SplineFontDB: 3.0
FontName: Estedad-Light
FullName: Estedad Light
FamilyName: Estedad Light
Weight: Light
Copyright: Copyright (c) 2017-2018 by Amin Abedi (@aminabedi68)-www.opentypeshop.com,\nwith Reserved Font Name Estedad.\n\nThis Font Software is licensed under the SIL Open Font License, Version 1.1.
Version: 2.3
StrokeWidth: 100
ItalicAngle: 0
UnderlinePosition: -509
UnderlineWidth: 101
Ascent: 1638
Descent: 410
InvalidEm: 0
sfntRevision: 0x00024ccd
LayerCount: 2
Layer: 0 0 "Back" 1
Layer: 1 0 "Fore" 0
XUID: [1021 89 1101065813 28845]
StyleMap: 0x0000
FSType: 0
OS2Version: 0
OS2_WeightWidthSlopeOnly: 0
OS2_UseTypoMetrics: 1
CreationTime: 1496828874
ModificationTime: 1547317836
PfmFamily: 17
TTFWeight: 300
TTFWidth: 5
LineGap: 0
VLineGap: 213
OS2TypoAscent: 562
OS2TypoAOffset: 1
OS2TypoDescent: -790
OS2TypoDOffset: 1
OS2TypoLinegap: 0
OS2WinAscent: -532
OS2WinAOffset: 1
OS2WinDescent: 108
OS2WinDOffset: 1
HheadAscent: -532
HheadAOffset: 1
HheadDescent: -108
HheadDOffset: 1
OS2CapHeight: 1400
OS2XHeight: 1012
OS2Vendor: 'AA68'
Lookup: 2 0 0 "Multiple substitution 0" { "Multiple substitution 0 subtable"  } []
Lookup: 2 0 0 "Multiple substitution 1" { "Multiple substitution 1 subtable"  } []
Lookup: 1 9 0 "'fina' Terminal Forms in Arabic lookup 2" { "'fina' Terminal Forms in Arabic lookup 2 subtable"  } ['fina' ('arab' <'FAR ' 'KUR ' 'dflt' > ) ]
Lookup: 1 9 0 "'medi' Medial Forms in Arabic lookup 3" { "'medi' Medial Forms in Arabic lookup 3 subtable"  } ['medi' ('arab' <'FAR ' 'KUR ' 'dflt' > ) ]
Lookup: 1 9 0 "'init' Initial Forms in Arabic lookup 4" { "'init' Initial Forms in Arabic lookup 4 subtable"  } ['init' ('arab' <'FAR ' 'KUR ' 'dflt' > ) ]
Lookup: 4 9 1 "'rlig' Required Ligatures in Arabic lookup 5" { "'rlig' Required Ligatures in Arabic lookup 5 subtable"  } ['rlig' ('arab' <'FAR ' 'KUR ' 'dflt' > ) ]

StartChar: period
Encoding: 46 46 0
Width: 453
VWidth: 1647
Flags: HMW
LayerCount: 2
Fore
SplineSet
120 106 m 0
 120 165 168 211 227 211 c 0
 286 211 333 165 333 106 c 0
 333 47 286 0 227 0 c 0
 168 0 120 47 120 106 c 0
EndSplineSet
Colour: ff0000
EndChar

StartChar: slash
Encoding: 47 47 1
Width: 1050
VWidth: 1647
Flags: HMW
LayerCount: 2
Fore
SplineSet
782 1442 m 1
 918 1380 l 1
 268 -31 l 1
 132 31 l 1
 782 1442 l 1
EndSplineSet
Colour: ffff
EndChar

StartChar: asterisk
Encoding: 42 42 2
Width: 1133
VWidth: 1647
Flags: HMW
LayerCount: 2
Fore
SplineSet
183 1093 m 1
 217 1197 l 1
 511 1101 l 1
 511 1411 l 1
 621 1411 l 1
 621 1101 l 1
 916 1197 l 1
 950 1093 l 1
 655 996 l 1
 838 745 l 1
 750 681 l 1
 566 932 l 1
 383 681 l 1
 295 745 l 1
 477 996 l 1
 183 1093 l 1
EndSplineSet
Colour: ff00ff
EndChar

StartChar: parenleft
Encoding: 40 40 3
Width: 598
VWidth: 1647
Flags: HMW
LayerCount: 2
Fore
SplineSet
461 40 m 1
 335 -40 l 1
 199 174 125 414 125 706 c 0
 125 998 199 1238 335 1451 c 1
 461 1371 l 1
 339 1180 275 972 275 706 c 0
 275 440 339 230 461 40 c 1
EndSplineSet
Colour: ffff
EndChar

StartChar: parenright
Encoding: 41 41 4
Width: 598
VWidth: 1647
Flags: HMW
LayerCount: 2
Fore
SplineSet
137 1371 m 1
 263 1451 l 1
 399 1237 473 997 473 705 c 0
 473 413 399 173 263 -40 c 1
 137 40 l 1
 259 231 323 439 323 705 c 0
 323 971 259 1181 137 1371 c 1
EndSplineSet
Colour: ffff
EndChar

StartChar: uni0660
Encoding: 1632 1632 5
Width: 845
VWidth: 1954
Flags: HMW
LayerCount: 2
Fore
SplineSet
422 623 m 0
 325 623 250 548 250 451 c 0
 250 354 326 277 422 277 c 0
 518 277 595 354 595 451 c 0
 595 547 519 623 422 623 c 0
422 748 m 0
 587 748 720 617 720 451 c 0
 720 286 588 152 422 152 c 0
 256 152 125 287 125 451 c 0
 125 616 257 748 422 748 c 0
EndSplineSet
PairPos2: "'kern' Horizontal Kerning in Arabic lookup 3 per glyph data 0" uni0662 dx=-125 dy=0 dh=-125 dv=0 dx=0 dy=0 dh=0 dv=0
PairPos2: "'kern' Horizontal Kerning in Arabic lookup 3 per glyph data 0" uni0666 dx=-25 dy=0 dh=-25 dv=0 dx=0 dy=0 dh=0 dv=0
PairPos2: "'kern' Horizontal Kerning in Arabic lookup 3 per glyph data 0" uni0667 dx=-100 dy=0 dh=-100 dv=0 dx=0 dy=0 dh=0 dv=0
PairPos2: "'kern' Horizontal Kerning in Arabic lookup 3 per glyph data 0" uni0661 dx=50 dy=0 dh=50 dv=0 dx=0 dy=0 dh=0 dv=0
Colour: ffff
EndChar

StartChar: uni0661
Encoding: 1633 1633 6
Width: 618
VWidth: 1854
Flags: HMW
LayerCount: 2
Fore
SplineSet
493 0 m 1
 343 0 l 1
 343 457 273 770 129 1186 c 1
 271 1236 l 1
 419 808 493 473 493 0 c 1
EndSplineSet
PairPos2: "'kern' Horizontal Kerning in Arabic lookup 3 per glyph data 0" uni0660 dx=-50 dy=0 dh=-50 dv=0 dx=0 dy=0 dh=0 dv=0
PairPos2: "'kern' Horizontal Kerning in Arabic lookup 3 per glyph data 0" uni0665 dx=-50 dy=0 dh=-50 dv=0 dx=0 dy=0 dh=0 dv=0
Colour: ffff
EndChar

StartChar: uni0662
Encoding: 1634 1634 7
Width: 1086
VWidth: 1854
Flags: HMW
LayerCount: 2
Fore
SplineSet
403 907 m 0
 456 816 503 800 587 800 c 0
 785 800 811 960 811 1236 c 1
 961 1236 l 1
 961 1002 955 650 587 650 c 0
 533 650 479 658 428 682 c 1
 469 467 493 246 493 0 c 1
 343 0 l 1
 343 436.247460221 254 870 128 1192 c 1
 272 1236 l 1
 307 1131 358.206286313 981.656189478 403 907 c 0
EndSplineSet
Colour: ffff
EndChar

StartChar: uni0663
Encoding: 1635 1635 8
Width: 1473
VWidth: 1854
Flags: HMW
LayerCount: 2
Fore
SplineSet
873 1051 m 0
 873 891 903 805 1031 805 c 0
 1157 805 1195 879 1195 1059 c 0
 1195 1125 1192 1142 1181 1196 c 1
 1328 1226 l 1
 1341 1160 1345 1135 1345 1059 c 0
 1345 863 1279 655 1031 655 c 0
 916 655 828 706 779 788 c 1
 730 710 647 655 538 655 c 0
 501 655 464 660 430 672 c 1
 470 460 493 242 493 0 c 1
 343 0 l 1
 343 469 258 816 128 1192 c 1
 272 1236 l 1
 327 1079 l 2
 394.421406374 886.542530895 424 805 538 805 c 0
 631 805 680 867 711 1017 c 0
 726 1091 730 1133 738 1219 c 1
 888 1206 l 1
 878 1146 873 1101 873 1051 c 0
EndSplineSet
PairPos2: "'kern' Horizontal Kerning in Arabic lookup 3 per glyph data 0" uni0668 dx=-50 dy=0 dh=-50 dv=0 dx=0 dy=0 dh=0 dv=0
Colour: ffff
EndChar

StartChar: uni0664
Encoding: 1636 1636 9
Width: 997
VWidth: 1854
Flags: HMW
LayerCount: 2
Fore
SplineSet
664 1236 m 1
 664 1086 l 1
 426 1086 336 1017 336 904 c 0
 336 780 433 726 671 726 c 1
 671 576 l 1
 412 576 275 447 275 295 c 0
 275 153 376 150 533 150 c 2
 797 150 l 1
 797 0 l 1
 533 0 l 2
 336 0 125 39 125 295 c 0
 125 452 203 573 319 641 c 1
 239 687 186 789 186 898 c 0
 186 1152 414 1236 664 1236 c 1
EndSplineSet
PairPos2: "'kern' Horizontal Kerning in Arabic lookup 3 per glyph data 0" uni0666 dx=50 dy=0 dh=50 dv=0 dx=0 dy=0 dh=0 dv=0
Colour: ffff
EndChar

StartChar: uni0665
Encoding: 1637 1637 10
Width: 1196
VWidth: 1854
Flags: HMW
LayerCount: 2
Fore
SplineSet
603 943 m 1
 380 729 275 568 275 376 c 0
 275 201 385 140 601 140 c 0
 823 140 921 196 921 379 c 0
 921 572 779 757 603 943 c 1
510 1236 m 1
 756 1031 1071 731 1071 379 c 0
 1071 98 869 -10 601 -10 c 0
 343 -10 125 97 125 376 c 0
 125 625 260 821 496 1048 c 1
 414 1120 l 1
 510 1236 l 1
EndSplineSet
PairPos2: "'kern' Horizontal Kerning in Arabic lookup 3 per glyph data 0" uni0667 dx=-100 dy=0 dh=-100 dv=0 dx=0 dy=0 dh=0 dv=0
PairPos2: "'kern' Horizontal Kerning in Arabic lookup 3 per glyph data 0" uni0661 dx=50 dy=0 dh=50 dv=0 dx=0 dy=0 dh=0 dv=0
Colour: ffff
EndChar

StartChar: uni0666
Encoding: 1638 1638 11
Width: 1168
VWidth: 1854
Flags: HMW
LayerCount: 2
Fore
SplineSet
184 1090 m 1
 216 1236 l 1
 337 1209 483 1196 618 1196 c 0
 702 1196 784 1203 848 1213 c 1
 935 1136 l 1
 931 1043 929 956 929 871 c 0
 929 507 956 378 1041 36 c 1
 895 0 l 1
 808 348 779 499 779 871 c 0
 779 931 780 991 782 1054 c 1
 732 1049 675 1046 618 1046 c 0
 473 1046 319 1061 184 1090 c 1
EndSplineSet
PairPos2: "'kern' Horizontal Kerning in Arabic lookup 3 per glyph data 0" uni0668 dx=-200 dy=0 dh=-200 dv=0 dx=0 dy=0 dh=0 dv=0
PairPos2: "'kern' Horizontal Kerning in Arabic lookup 3 per glyph data 0" uni066B dx=-150 dy=0 dh=-150 dv=0 dx=0 dy=0 dh=0 dv=0
PairPos2: "'kern' Horizontal Kerning in Arabic lookup 3 per glyph data 0" uni0660 dx=-200 dy=0 dh=-200 dv=0 dx=0 dy=0 dh=0 dv=0
PairPos2: "'kern' Horizontal Kerning in Arabic lookup 3 per glyph data 0" uni0665 dx=-175 dy=0 dh=-175 dv=0 dx=0 dy=0 dh=0 dv=0
PairPos2: "'kern' Horizontal Kerning in Arabic lookup 3 per glyph data 0" uni0664 dx=-50 dy=0 dh=-50 dv=0 dx=0 dy=0 dh=0 dv=0
Colour: ffff
EndChar

StartChar: uni0667
Encoding: 1639 1639 12
Width: 1315
VWidth: 1854
Flags: HMW
LayerCount: 2
Fore
SplineSet
1056 1236 m 1
 1174 1144 l 1
 946 848 840 627 737 62 c 2
 726 -0 l 1
 590 0 l 1
 579 62 l 2
 476 626 369 848 141 1144 c 1
 260 1236 l 1
 451 988 566 786 658 415 c 1
 749 784 865 988 1056 1236 c 1
EndSplineSet
PairPos2: "'kern' Horizontal Kerning in Arabic lookup 3 per glyph data 0" uni066B dx=-125 dy=0 dh=-125 dv=0 dx=0 dy=0 dh=0 dv=0
PairPos2: "'kern' Horizontal Kerning in Arabic lookup 3 per glyph data 0" uni0668 dx=-150 dy=0 dh=-150 dv=0 dx=0 dy=0 dh=0 dv=0
PairPos2: "'kern' Horizontal Kerning in Arabic lookup 3 per glyph data 0" uni0665 dx=-100 dy=0 dh=-100 dv=0 dx=0 dy=0 dh=0 dv=0
PairPos2: "'kern' Horizontal Kerning in Arabic lookup 3 per glyph data 0" uni0660 dx=-100 dy=0 dh=-100 dv=0 dx=0 dy=0 dh=0 dv=0
Colour: ffff
EndChar

StartChar: uni0668
Encoding: 1640 1640 13
Width: 1315
VWidth: 1854
Flags: HMW
LayerCount: 2
Fore
SplineSet
259 -10 m 1
 141 82 l 1
 369 378 475 599 578 1164 c 2
 589 1226 l 1
 725 1226 l 1
 736 1164 l 2
 839 600 946 378 1174 82 c 1
 1055 -10 l 1
 864 238 749 440 657 811 c 1
 566 442 450 238 259 -10 c 1
EndSplineSet
PairPos2: "'kern' Horizontal Kerning in Arabic lookup 3 per glyph data 0" uni0667 dx=-150 dy=0 dh=-150 dv=0 dx=0 dy=0 dh=0 dv=0
PairPos2: "'kern' Horizontal Kerning in Arabic lookup 3 per glyph data 0" uni0662 dx=-175 dy=0 dh=-175 dv=0 dx=0 dy=0 dh=0 dv=0
PairPos2: "'kern' Horizontal Kerning in Arabic lookup 3 per glyph data 0" uni0663 dx=-200 dy=0 dh=-200 dv=0 dx=0 dy=0 dh=0 dv=0
Colour: ffff
EndChar

StartChar: uni0669
Encoding: 1641 1641 14
Width: 1035
VWidth: 1854
Flags: HMW
LayerCount: 2
Fore
SplineSet
657 525 m 1
 608 515 556 509 501 509 c 0
 315 509 125 584 125 810 c 0
 125 1010 240 1236 467 1236 c 0
 730 1236 803 1001 803 783 c 0
 803 716 804 655 805 601 c 0
 812 272 838 201 904 50 c 1
 766 -10 l 1
 698 146 666 243 657 525 c 1
653 678 m 1
 653 783 l 2
 653 989 600 1086 467 1086 c 0
 362 1086 275 972 275 810 c 0
 275 702 339 659 501 659 c 0
 556 659 603 666 653 678 c 1
EndSplineSet
PairPos2: "'kern' Horizontal Kerning in Arabic lookup 3 per glyph data 0" uni0665 dx=-50 dy=0 dh=-50 dv=0 dx=0 dy=0 dh=0 dv=0
PairPos2: "'kern' Horizontal Kerning in Arabic lookup 3 per glyph data 0" uni0668 dx=-150 dy=0 dh=-150 dv=0 dx=0 dy=0 dh=0 dv=0
PairPos2: "'kern' Horizontal Kerning in Arabic lookup 3 per glyph data 0" uni066B dx=200 dy=0 dh=200 dv=0 dx=0 dy=0 dh=0 dv=0
Colour: ffff
EndChar

StartChar: uni06F4
Encoding: 1780 1780 19
Width: 1179
VWidth: 1854
Flags: HMW
LayerCount: 2
Fore
SplineSet
976 538 m 1
 911 532 827 526 761 526 c 0
 629 526 524 545 437 603 c 1
 473 401 493 230 493 0 c 1
 343 -0 l 1
 343 462 246 819 130 1192 c 1
 274 1236 l 17
 293 1193 338 1085 371 980 c 1
 428 1145 583 1236 742 1236 c 0
 814 1236 874 1229 943 1213 c 1
 909 1067 l 1
 848 1081 806 1086 742 1086 c 0
 613 1086 498 1002 498 836 c 0
 498 745 531 701 632 684 c 0
 668 678 710 676 761 676 c 0
 816 676 902 682 962 688 c 1
 976 538 l 1
EndSplineSet
PairPos2: "'kern' Horizontal Kerning in Arabic lookup 3 per glyph data 1" uni06F8 dx=-50 dy=0 dh=-50 dv=0 dx=0 dy=0 dh=0 dv=0
PairPos2: "'kern' Horizontal Kerning in Arabic lookup 3 per glyph data 1" uni06F0 dx=-25 dy=0 dh=-25 dv=0 dx=0 dy=0 dh=0 dv=0
Colour: ffff
EndChar

StartChar: uni06F5
Encoding: 1781 1781 20
Width: 1276
VWidth: 1854
Flags: HMW
LayerCount: 2
Fore
SplineSet
646 77 m 1
 589 20 513 -10 434 -10 c 0
 272 -10 125 106 125 356 c 0
 125 565 238 806 530 1050 c 1
 445 1114 l 1
 531 1236 l 1
 586 1197 639 1157 688 1114 c 0
 973 865 1151 602 1151 341 c 0
 1151 101 1008 -10 852 -10 c 0
 775 -10 700 21 646 77 c 1
573 260 m 2
 573 289 l 1
 623 289 673 289 723 289 c 1
 723 260 l 2
 723 186 785 140 852 140 c 0
 916 140 1001 161 1001 341 c 0
 1001 520 875 729 645 950 c 1
 368 727 275 517 275 356 c 0
 275 166 366 140 434 140 c 0
 505 140 573 187 573 260 c 2
EndSplineSet
PairPos2: "'kern' Horizontal Kerning in Arabic lookup 3 per glyph data 1" uni06F9 dx=-75 dy=0 dh=-75 dv=0 dx=0 dy=0 dh=0 dv=0
PairPos2: "'kern' Horizontal Kerning in Arabic lookup 3 per glyph data 1" uni06F7 dx=-100 dy=0 dh=-100 dv=0 dx=0 dy=0 dh=0 dv=0
PairPos2: "'kern' Horizontal Kerning in Arabic lookup 3 per glyph data 1" uni06F3 dx=-25 dy=0 dh=-25 dv=0 dx=0 dy=0 dh=0 dv=0
PairPos2: "'kern' Horizontal Kerning in Arabic lookup 3 per glyph data 1" uni06F2 dx=-25 dy=0 dh=-25 dv=0 dx=0 dy=0 dh=0 dv=0
PairPos2: "'kern' Horizontal Kerning in Arabic lookup 3 per glyph data 1" uni06F1 dx=50 dy=0 dh=50 dv=0 dx=0 dy=0 dh=0 dv=0
Colour: ffff
EndChar

StartChar: uni06F6
Encoding: 1782 1782 21
Width: 1034
VWidth: 1854
Flags: HMW
LayerCount: 2
Fore
SplineSet
793 1126 m 1
 691 1016 l 1
 652 1053 591 1086 514 1086 c 0
 382 1086 281 992 281 839 c 0
 281 715 398 645 565 645 c 0
 650 645 735 667 790 701 c 2
 845 735 l 1
 944 616 l 1
 876 569 l 2
 637 406 441 233 265 -10 c 1
 135 64 l 1
 258 233 384 360 537 496 c 1
 352 504 131 599 131 839 c 0
 131 1070 300 1236 514 1236 c 0
 635 1236 730 1185 793 1126 c 1
EndSplineSet
Colour: ffff
EndChar

StartChar: uni0654
Encoding: 1620 1620 25
Width: 0
VWidth: 1854
Flags: HMW
AnchorPoint: "Anchor-1" 0 1598 basemark 0
AnchorPoint: "Anchor-1" 1 1209 mark 0
AnchorPoint: "Anchor-4" 1 1209 mark 0
AnchorPoint: "Anchor-5" 1 1209 mark 0
LayerCount: 2
Fore
SplineSet
-202 1522 m 1
 -240 1604 l 1
 -149 1645 l 1
 -188 1694 -208 1752 -208 1806 c 0
 -208 1908 -131 1997 0 1997 c 2
 82 1997 l 1
 82 1907 l 1
 0 1907 l 2
 -87 1907 -118 1860 -118 1806 c 0
 -118 1769 -100 1722 -63 1684 c 1
 157 1784 l 1
 195 1702 l 1
 -202 1522 l 1
EndSplineSet
Colour: ff00
EndChar

StartChar: uni0653
Encoding: 1619 1619 27
Width: 0
VWidth: 1854
Flags: HMW
AnchorPoint: "Anchor-1" 0 1598 basemark 0
AnchorPoint: "Anchor-1" 1 1209 mark 0
AnchorPoint: "Anchor-4" 1 1209 mark 0
AnchorPoint: "Anchor-5" 1 1209 mark 0
LayerCount: 2
Fore
SplineSet
185 1695 m 1
 267 1661 l 1
 239 1595 180 1527 94 1527 c 0
 56 1527 16 1541 -21 1570 c 0
 -45 1588 -65 1594 -79 1594 c 0
 -113 1594 -150 1562 -171 1519 c 1
 -252 1559 l 1
 -223 1618 -165 1684 -79 1684 c 0
 -41 1684 -3 1670 33 1642 c 0
 58 1623 78 1617 94 1617 c 0
 128 1617 165 1647 185 1695 c 1
EndSplineSet
Colour: ff00
EndChar

StartChar: uni0652
Encoding: 1618 1618 28
Width: 0
VWidth: 1854
Flags: HMW
AnchorPoint: "Anchor-1" 0 1598 basemark 0
AnchorPoint: "Anchor-1" 1 1209 mark 0
AnchorPoint: "Anchor-4" 1 1209 mark 0
AnchorPoint: "Anchor-5" 1 1209 mark 0
LayerCount: 2
Fore
SplineSet
0 1807 m 0
 -61 1807 -108 1760 -108 1699 c 0
 -108 1638 -61 1590 0 1590 c 0
 60 1590 109 1639 109 1699 c 0
 109 1759 61 1807 0 1807 c 0
0 1897 m 0
 109 1897 199 1809 199 1699 c 0
 199 1589 110 1500 0 1500 c 0
 -111 1500 -198 1590 -198 1699 c 0
 -198 1808 -111 1897 0 1897 c 0
EndSplineSet
Colour: ff00
EndChar

StartChar: uni0651
Encoding: 1617 1617 29
Width: 0
VWidth: 1854
Flags: HMW
AnchorPoint: "Anchor-1" 0 1598 basemark 0
AnchorPoint: "Anchor-1" 0 1209 mark 0
AnchorPoint: "Anchor-4" 0 1209 mark 0
AnchorPoint: "Anchor-5" 0 1209 mark 0
LayerCount: 2
Fore
SplineSet
143 1872 m 1
 227 1902 l 1
 247 1848 261 1794 261 1726 c 0
 261 1627 202 1559 124 1559 c 0
 77 1559 31 1584 0 1627 c 1
 -32 1583 -77 1559 -124 1559 c 0
 -202 1559 -261 1627 -261 1726 c 0
 -261 1794 -247 1849 -227 1903 c 1
 -143 1871 l 1
 -161 1821 -171 1782 -171 1726 c 0
 -171 1661 -142 1649 -124 1649 c 0
 -103 1649 -69 1666 -53 1721 c 0
 -48 1738 -45 1758 -45 1782 c 2
 -45 1857 l 1
 45 1857 l 1
 45 1782 l 2
 45 1758 48 1737 53 1720 c 0
 69 1666 103 1649 124 1649 c 0
 142 1649 171 1661 171 1726 c 0
 171 1782 161 1822 143 1872 c 1
EndSplineSet
Colour: ff00
EndChar

StartChar: uni064E
Encoding: 1614 1614 30
Width: 0
VWidth: 1854
Flags: HMW
AnchorPoint: "Anchor-1" 0 1598 basemark 0
AnchorPoint: "Anchor-1" 1 1209 mark 0
AnchorPoint: "Anchor-4" 1 1209 mark 0
AnchorPoint: "Anchor-5" 1 1209 mark 0
LayerCount: 2
Fore
SplineSet
157 1784 m 1
 195 1702 l 1
 -202 1522 l 1
 -240 1604 l 1
 157 1784 l 1
EndSplineSet
Colour: ff00
EndChar

StartChar: uni064F
Encoding: 1615 1615 31
Width: 0
VWidth: 1854
Flags: HMW
AnchorPoint: "Anchor-1" 0 1598 basemark 0
AnchorPoint: "Anchor-1" 1 1209 mark 0
AnchorPoint: "Anchor-4" 1 1209 mark 0
AnchorPoint: "Anchor-5" 1 1209 mark 0
LayerCount: 2
Fore
SplineSet
-8 1671 m 1
 -74 1700 -143 1751 -143 1836 c 0
 -143 1932 -56 2004 26 2004 c 0
 128 2004 172 1908 172 1845 c 0
 172 1770 141 1702 95 1648 c 0
 21 1560 -92 1501 -201 1482 c 1
 -217 1570 l 1
 -145 1583 -66 1620 -8 1671 c 1
53 1744 m 1
 72 1776 82 1810 82 1845 c 0
 82 1880 58 1914 26 1914 c 0
 -8 1914 -53 1876 -53 1836 c 0
 -53 1805 -18 1769 53 1744 c 1
EndSplineSet
Colour: ff00
EndChar

StartChar: uni064C
Encoding: 1612 1612 34
Width: 0
VWidth: 1854
Flags: HMW
AnchorPoint: "Anchor-1" 0 1598 basemark 0
AnchorPoint: "Anchor-1" 1 1209 mark 0
AnchorPoint: "Anchor-4" 1 1209 mark 0
AnchorPoint: "Anchor-5" 1 1209 mark 0
LayerCount: 2
Fore
SplineSet
-175 1707 m 1
 -249 1657 l 1
 -287 1713 -309 1780 -309 1852 c 0
 -309 2046 -152 2203 42 2203 c 1
 42 2113 l 1
 -102 2113 -219 1996 -219 1852 c 0
 -219 1798 -203 1749 -175 1707 c 1
EndSplineSet
Refer: 31 1615 N 1 0 0 1 0 0 2
Colour: ff00
EndChar

StartChar: GAFbar
Encoding: 1114122 -1 44
Width: 999
VWidth: 1804
Flags: HMW
LayerCount: 2
Fore
SplineSet
818 1902 m 1
 840 1794 l 1
 584 1741 324 1639 105 1499 c 1
 45 1591 l 1
 276 1739 550 1847 818 1902 c 1
EndSplineSet
Colour: ff00ff
EndChar

StartChar: dotlessfinalBEH
Encoding: 1114123 -1 45
Width: 1973
VWidth: 1854
Flags: HMW
AnchorPoint: "Anchor-5" 944 823 basechar 0
AnchorPoint: "Anchor-3" 767 -4 basechar 0
LayerCount: 2
Fore
SplineSet
167 707 m 1
 305 651 l 1
 273 573 252 471 252 413 c 0
 252 237 407 152 767 152 c 0
 1325.51054897 152 1581 285 1630 613 c 1
 1776 576 l 1
 1745 455 1727 367 1727 303 c 0
 1727 183 1793 150 1973 150 c 1
 1973 0 l 1
 1758 0 1628 75 1589 211 c 1
 1402 48 1103 2 767 2 c 0
 411 2 102 93 102 413 c 0
 102 500 128 611 167 707 c 1
EndSplineSet
Colour: ffff
EndChar

StartChar: dotlessinitialFEH
Encoding: 1114124 -1 46
Width: 921
VWidth: 1854
Flags: HMW
AnchorPoint: "Anchor-5" 463 1073 basechar 0
AnchorPoint: "Anchor-3" 422 -4 basechar 0
LayerCount: 2
Fore
SplineSet
0 0 m 1
 -41 0 -74 34 -74 75 c 0
 -74 116 -41 150 0 150 c 1
 380 150 627 176 662 369 c 1
 606 355 546 347 481 347 c 0
 302 347 130 430 130 651 c 0
 130 848 260 1073 463 1073 c 0
 784 1073 818 617 818 446 c 0
 818 18 384 0 0 0 c 1
665 525 m 1
 650 734 579 923 463 923 c 0
 386 923 280 804 280 651 c 0
 280 536 338 497 481 497 c 0
 549 497 606 507 665 525 c 1
EndSplineSet
Colour: ffff
EndChar

StartChar: dotlessfinalFEH
Encoding: 1114125 -1 47
Width: 1876
VWidth: 2374
Flags: HMW
AnchorPoint: "Anchor-5" 1406 887 basechar 0
AnchorPoint: "Anchor-3" 891 0 basechar 0
LayerCount: 2
Fore
SplineSet
1417 67 m 1
 1270 17 1090 0 891 0 c 0
 503 0 104 39 104 400 c 0
 104 514 138 619 166 703 c 1
 308 655 l 1
 281 572 254 484 254 400 c 0
 254 207 463 150 891 150 c 0
 1015 150 1129 157 1227 174 c 1
 1140 250 1087 358 1087 489 c 0
 1087 706 1230 840 1422 840 c 0
 1611 840 1757 707 1757 489 c 0
 1757 356 1704 247 1612 171 c 1
 1693 157 1783 150 1876 150 c 1
 1876 0 l 1
 1711 0 1548 20 1417 67 c 1
1419 228 m 1
 1537 279 1607 357 1607 489 c 0
 1607 631 1533 690 1422 690 c 0
 1308 690 1237 632 1237 489 c 0
 1237 359 1307 280 1419 228 c 1
EndSplineSet
Colour: ffff
EndChar

StartChar: dotlessmedialFEH
Encoding: 1114126 -1 48
Width: 908
VWidth: 1870
Flags: HMW
LayerCount: 2
Fore
SplineSet
0 150 m 0
 93 150 182 157 263 171 c 1
 174 247 119 355 119 489 c 0
 119 706 262 840 454 840 c 0
 643 840 789 707 789 489 c 0
 789 355 734 247 645 171 c 1
 726 157 815 150 908 150 c 1
 908 0 l 1
 745 0 584 19 454 65 c 1
 324 19 163 0 0 0 c 0
 -41 0 -74 34 -74 75 c 0
 -74 116 -41 150 0 150 c 0
454 227 m 1
 567 279 639 358 639 489 c 0
 639 631 565 690 454 690 c 0
 340 690 269 632 269 489 c 0
 269 358 340 280 454 227 c 1
EndSplineSet
Colour: ffff
EndChar

StartChar: dotlessfinalQAF
Encoding: 1114127 -1 49
Width: 1505
VWidth: 1854
Flags: HMW
AnchorPoint: "Anchor-3" 728 -504 basechar 0
AnchorPoint: "Anchor-5" 1047 726 basechar 0
LayerCount: 2
Fore
SplineSet
253 -3 m 0
 253 -220 459 -354 728 -354 c 0
 987 -354 1198 -231 1243 0 c 1
 1065 0 l 2
 886 0 714 83 714 304 c 0
 714 501 844 726 1047 726 c 0
 1344 726 1393 332 1401 150 c 1
 1505 150 l 1
 1505 0 l 1
 1395 -0 l 1
 1344 -342 1038 -504 728 -504 c 0
 423 -504 103 -340 103 -3 c 0
 103 165.125976562 179.998046875 352.346679688 278.040039062 529.918945312 c 1
 402.571289062 452.366210938 l 1
 315.983398438 294.55859375 253 130.134765625 253 -3 c 0
1251 150 m 1
 1241 362 1170 576 1047 576 c 0
 970 576 864 457 864 304 c 0
 864 189 922 150 1065 150 c 2
 1251 150 l 1
EndSplineSet
Colour: ffff
EndChar

StartChar: uniFEFB
Encoding: 65275 65275 51
Width: 1022
VWidth: 1854
Flags: HMW
AnchorPoint: "Anchor-4" 143 1146 baselig 1
AnchorPoint: "Anchor-4" 847 1211 baselig 0
AnchorPoint: "Anchor-2" 221 0 baselig 1
AnchorPoint: "Anchor-2" 810 0 baselig 0
LayerCount: 2
Fore
SplineSet
558 647 m 1
 432 834 255 976 100 1084 c 1
 186 1208 l 1
 349 1095 514 916 645 734 c 1
 722 874 772 1032 772 1211 c 1
 922 1211 l 1
 922 974 845 817 737 645 c 1
 823 503 885 367 885 253 c 0
 885 35 654 0 517 0 c 0
 375.898615275 0 245.492749574 42.2331288395 152 101 c 1
 152 257 l 1
 288.57578692 353.924752008 433.337551827 476.409281448 558 647 c 1
642 510 m 1
 536 376 414 267 308 186 c 1
 364 165 448 150 517 150 c 0
 664 150 735 187 735 253 c 0
 735 303 703 400 642 510 c 1
EndSplineSet
PairPos2: "'kern' Horizontal Kerning in Arabic lookup 2 per glyph data 0" uni0686 dx=-150 dy=0 dh=-150 dv=0 dx=0 dy=0 dh=0 dv=0
PairPos2: "'kern' Horizontal Kerning in Arabic lookup 2 per glyph data 0" uni063A dx=-150 dy=0 dh=-150 dv=0 dx=0 dy=0 dh=0 dv=0
PairPos2: "'kern' Horizontal Kerning in Arabic lookup 2 per glyph data 0" uni0639 dx=-150 dy=0 dh=-150 dv=0 dx=0 dy=0 dh=0 dv=0
PairPos2: "'kern' Horizontal Kerning in Arabic lookup 2 per glyph data 0" uni062E dx=-150 dy=0 dh=-150 dv=0 dx=0 dy=0 dh=0 dv=0
PairPos2: "'kern' Horizontal Kerning in Arabic lookup 2 per glyph data 0" uni062D dx=-150 dy=0 dh=-150 dv=0 dx=0 dy=0 dh=0 dv=0
PairPos2: "'kern' Horizontal Kerning in Arabic lookup 2 per glyph data 0" uni062C dx=-150 dy=0 dh=-150 dv=0 dx=0 dy=0 dh=0 dv=0
Ligature2: "'rlig' Required Ligatures in Arabic lookup 5 subtable" uniFEDF uniFE8E
LCarets2: 1 0
Colour: ffff
EndChar

StartChar: uniFEFC
Encoding: 65276 65276 52
Width: 1372
VWidth: 1854
Flags: HMW
AnchorPoint: "Anchor-2" 976 0 baselig 0
AnchorPoint: "Anchor-2" 266 0 baselig 1
AnchorPoint: "Anchor-4" 988 1211 baselig 0
AnchorPoint: "Anchor-4" 151 1211 baselig 1
LayerCount: 2
Back
SplineSet
1450 75 m 17
 1303 75 1206 111 1147 185 c 0
 1088 259 1066 370 1066 517 c 2
 1066 1411 l 1
 1066 517 l 2
 1066 222 977 75 683 75 c 2
 178 75 l 17
 178 85 l 17
 386 85 477 299 477 579 c 0
 477 859 386 1193 229 1411 c 1024
EndSplineSet
Fore
SplineSet
324 365 m 1
 324 679 269 903 147 1185 c 1
 285 1245 l 1
 415 943 474 697 474 365 c 1
 324 365 l 1
1372 0 m 1
 1175 0 1033 66 965 211 c 1
 825 49 535 0 100 0 c 1
 100 150 l 1
 751 150 913 243 913 516 c 2
 913 1211 l 1
 1063 1211 l 1
 1063 517 l 2
 1063 376 1087 284 1128 232 c 0
 1167 183 1236 150 1372 150 c 1
 1372 0 l 1
EndSplineSet
PairPos2: "'kern' Horizontal Kerning in Arabic lookup 2 per glyph data 0" uni0686 dx=-150 dy=0 dh=-150 dv=0 dx=0 dy=0 dh=0 dv=0
PairPos2: "'kern' Horizontal Kerning in Arabic lookup 2 per glyph data 0" uni063A dx=-180 dy=0 dh=-180 dv=0 dx=0 dy=0 dh=0 dv=0
PairPos2: "'kern' Horizontal Kerning in Arabic lookup 2 per glyph data 0" uni0639 dx=-180 dy=0 dh=-180 dv=0 dx=0 dy=0 dh=0 dv=0
PairPos2: "'kern' Horizontal Kerning in Arabic lookup 2 per glyph data 0" uni062E dx=-150 dy=0 dh=-150 dv=0 dx=0 dy=0 dh=0 dv=0
PairPos2: "'kern' Horizontal Kerning in Arabic lookup 2 per glyph data 0" uni062D dx=-150 dy=0 dh=-150 dv=0 dx=0 dy=0 dh=0 dv=0
PairPos2: "'kern' Horizontal Kerning in Arabic lookup 2 per glyph data 0" uni062C dx=-150 dy=0 dh=-150 dv=0 dx=0 dy=0 dh=0 dv=0
Ligature2: "'rlig' Required Ligatures in Arabic lookup 5 subtable" uniFEE0 uniFE8E
LCarets2: 1 0
Colour: ffff
EndChar

StartChar: uni060C
Encoding: 1548 1548 59
Width: 558
VWidth: 1854
Flags: HMW
LayerCount: 2
Fore
SplineSet
276 513 m 1
 339 470 l 1
 296 420 243 315 243 238 c 1
 327 238 408 205 408 122 c 0
 408 65 376 0 284 0 c 0
 196 0 150 61 150 153 c 0
 150 317 211 434 276 513 c 1
EndSplineSet
EndChar

StartChar: uni0615
Encoding: 1557 1557 61
Width: 0
VWidth: 1854
Flags: HMW
AnchorPoint: "Anchor-5" 1 1209 mark 0
AnchorPoint: "Anchor-4" 1 1209 mark 0
AnchorPoint: "Anchor-1" 1 1209 mark 0
AnchorPoint: "Anchor-1" 0 1598 basemark 0
LayerCount: 2
Fore
SplineSet
547 1516 m 0
 547 1338 331 1331 119 1329 c 2
 0 1329 l 1
 0 1419 l 1
 105 1419 l 1
 105 1837 l 1
 195 1837 l 1
 195 1560 l 1
 256 1629 326 1665 394 1665 c 0
 477 1665 547 1607 547 1516 c 0
206 1421 m 1
 401 1428 457 1458 457 1516 c 0
 457 1555 435 1575 394 1575 c 0
 347 1575 270 1535 206 1421 c 1
EndSplineSet
Colour: ff00
EndChar

StartChar: less
Encoding: 60 60 63
Width: 775
VWidth: 1819
Flags: HMW
LayerCount: 2
Fore
SplineSet
559 1165 m 1
 635 1085 l 1
 258 728 l 1
 635 370 l 1
 559 290 l 1
 98 728 l 1
 559 1165 l 1
EndSplineSet
Colour: ff00ff
EndChar

StartChar: greater
Encoding: 62 62 65
Width: 775
VWidth: 1819
Flags: HMW
LayerCount: 2
Fore
SplineSet
174 290 m 1
 98 370 l 1
 475 727 l 1
 98 1085 l 1
 174 1165 l 1
 635 727 l 1
 174 290 l 1
EndSplineSet
Colour: ff00
EndChar

StartChar: braceleft
Encoding: 123 123 66
Width: 656
VWidth: 1647
Flags: HMW
LayerCount: 2
Fore
SplineSet
556 130 m 1
 556 0 l 1
 422 0 l 2
 300 0 210 81 210 189 c 2
 210 465 l 2
 210 557 150 617 76 638 c 2
 25 653 l 1
 25 757 l 1
 76 772 l 2
 150 793 210 853 210 945 c 2
 210 1221 l 2
 210 1329 300 1411 422 1411 c 2
 556 1411 l 1
 556 1281 l 1
 422 1281 l 2
 382 1281 360 1265 360 1221 c 2
 360 945 l 2
 360 845 312 761 238 705 c 1
 311 650 360 565 360 465 c 2
 360 189 l 2
 360 145 382 130 422 130 c 2
 556 130 l 1
EndSplineSet
Colour: ffff00
EndChar

StartChar: braceright
Encoding: 125 125 67
Width: 656
VWidth: 1647
Flags: HMW
LayerCount: 2
Fore
SplineSet
100 1281 m 1
 100 1411 l 1
 234 1411 l 2
 356 1411 446 1330 446 1222 c 2
 446 946 l 2
 446 854 506 794 580 773 c 2
 631 758 l 1
 631 654 l 1
 580 639 l 2
 506 618 446 558 446 466 c 2
 446 190 l 2
 446 82 356 0 234 0 c 2
 100 0 l 1
 100 130 l 1
 234 130 l 2
 274 130 296 146 296 190 c 2
 296 466 l 2
 296 566 344 650 418 706 c 1
 345 761 296 846 296 946 c 2
 296 1222 l 2
 296 1266 274 1281 234 1281 c 2
 100 1281 l 1
EndSplineSet
Colour: ffff00
EndChar

StartChar: uni061F
Encoding: 1567 1567 70
Width: 1067
VWidth: 1854
Flags: HMW
LayerCount: 2
Fore
SplineSet
936 939 m 1
 788 957 l 1
 791 979 792 1000 792 1024 c 0
 792 1183 709 1281 539 1281 c 0
 383 1281 275 1167 275 983 c 0
 275 883 322 844 401 792 c 0
 502 725 629 622 629 405 c 1
 479 405 l 1
 479 572 400 629 311 688 c 0
 222 746 125 831 125 983 c 0
 125 1207 273 1411 539 1411 c 0
 809 1411 942 1227 942 1024 c 0
 942 998 941 969 936 939 c 1
EndSplineSet
Refer: 0 46 N -1 0 0 1 778 0 2
Colour: ffff00
EndChar

StartChar: uni0621
Encoding: 1569 1569 71
Width: 878
VWidth: 1854
Flags: HMW
AnchorPoint: "Anchor-5" 431 831 basechar 0
AnchorPoint: "Anchor-3" 431 65 basechar 0
LayerCount: 2
Fore
SplineSet
682 618 m 1
 598 548 l 1
 563 589 511 626 431 626 c 0
 337 626 239 549 239 410 c 0
 239 314 332 275 508 275 c 1
 726 365 l 1
 768 263 l 1
 153 9 l 1
 111 111 l 1
 305 191 l 1
 207 222 129 285 129 410 c 0
 129 607 275 736 431 736 c 0
 549 736 633 677 682 618 c 1
EndSplineSet
Colour: ff00ff
EndChar

StartChar: uni0627
Encoding: 1575 1575 72
Width: 500
VWidth: 1854
Flags: HMW
AnchorPoint: "Anchor-5" 251 1211 basechar 0
AnchorPoint: "Anchor-3" 251 0 basechar 0
LayerCount: 2
Fore
SplineSet
325 0 m 1
 175 0 l 1
 175 1211 l 1
 325 1211 l 1
 325 0 l 1
EndSplineSet
PairPos2: "'kern' Horizontal Kerning in Arabic lookup 2 per glyph data 1" uni063A dx=-225 dy=0 dh=-225 dv=0 dx=0 dy=0 dh=0 dv=0
PairPos2: "'kern' Horizontal Kerning in Arabic lookup 2 per glyph data 1" uni0639 dx=-225 dy=0 dh=-225 dv=0 dx=0 dy=0 dh=0 dv=0
PairPos2: "'kern' Horizontal Kerning in Arabic lookup 2 per glyph data 0" uni0639 dx=-200 dy=0 dh=-200 dv=0 dx=0 dy=0 dh=0 dv=0
PairPos2: "'kern' Horizontal Kerning in Arabic lookup 2 per glyph data 0" uni063A dx=-200 dy=0 dh=-200 dv=0 dx=0 dy=0 dh=0 dv=0
PairPos2: "'kern' Horizontal Kerning in Arabic lookup 2 per glyph data 0" uni0622 dx=200 dy=0 dh=200 dv=0 dx=0 dy=0 dh=0 dv=0
Substitution2: "'medi' Medial Forms in Arabic lookup 3 subtable" uniFE8E
Substitution2: "'fina' Terminal Forms in Arabic lookup 2 subtable" uniFE8E
Colour: ffff
EndChar

StartChar: uni062D
Encoding: 1581 1581 73
Width: 1464
VWidth: 1854
Flags: HMW
AnchorPoint: "Anchor-3" 805 -736 basechar 0
AnchorPoint: "Anchor-5" 507 853 basechar 0
LayerCount: 2
Fore
SplineSet
1260 -502 m 1
 1312 -642 l 1
 1159 -699 1000 -736 805 -736 c 0
 480 -736 101 -597 101 -226 c 0
 101 211 586 394 1054 528 c 1
 605 686 l 18
 567 698 534 703 507 703 c 0
 391 703 324 628 303 440 c 1
 154 456 l 1
 178 672 285 853 507 853 c 0
 554 853 601 847 653 828 c 10
 1289 599 l 1
 1289 439 l 1
 727.824610323 298.706152581 251 117.503899737 251 -226 c 0
 251 -461 496 -586 805 -586 c 0
 982 -586 1119 -555 1260 -502 c 1
EndSplineSet
Substitution2: "'init' Initial Forms in Arabic lookup 4 subtable" uniFEA3
Substitution2: "'medi' Medial Forms in Arabic lookup 3 subtable" uniFEA4
Substitution2: "'fina' Terminal Forms in Arabic lookup 2 subtable" uniFEA2
Colour: ffff
EndChar

StartChar: uni062F
Encoding: 1583 1583 74
Width: 936
VWidth: 1854
Flags: HMW
AnchorPoint: "Anchor-5" 485 904 basechar 0
AnchorPoint: "Anchor-3" 469 0 basechar 0
LayerCount: 2
Fore
SplineSet
480 909 m 1
 706 719 833 534 833 327 c 0
 833 75 571 0 352 0 c 0
 269 0 183 11 100 33 c 1
 137 177 l 17
 208 159 281 150 352 150 c 0
 567 150 683 219 683 327 c 0
 683 468 598 615 384 795 c 1
 480 909 l 1
EndSplineSet
PairPos2: "'kern' Horizontal Kerning in Arabic lookup 2 per glyph data 3" uniFEDB dx=-300 dy=0 dh=-300 dv=0 dx=0 dy=0 dh=0 dv=0
PairPos2: "'kern' Horizontal Kerning in Arabic lookup 2 per glyph data 3" uniFB94 dx=-300 dy=0 dh=-300 dv=0 dx=0 dy=0 dh=0 dv=0
PairPos2: "'kern' Horizontal Kerning in Arabic lookup 2 per glyph data 3" uniFB90 dx=-300 dy=0 dh=-300 dv=0 dx=0 dy=0 dh=0 dv=0
PairPos2: "'kern' Horizontal Kerning in Arabic lookup 2 per glyph data 3" uni06AF dx=-300 dy=0 dh=-300 dv=0 dx=0 dy=0 dh=0 dv=0
PairPos2: "'kern' Horizontal Kerning in Arabic lookup 2 per glyph data 3" uni06A9 dx=-300 dy=0 dh=-300 dv=0 dx=0 dy=0 dh=0 dv=0
PairPos2: "'kern' Horizontal Kerning in Arabic lookup 2 per glyph data 1" uni063A dx=-250 dy=0 dh=-250 dv=0 dx=0 dy=0 dh=0 dv=0
PairPos2: "'kern' Horizontal Kerning in Arabic lookup 2 per glyph data 1" uni0639 dx=-250 dy=0 dh=-250 dv=0 dx=0 dy=0 dh=0 dv=0
Substitution2: "'fina' Terminal Forms in Arabic lookup 2 subtable" uniFEAA
Colour: ffff
EndChar

StartChar: uni0631
Encoding: 1585 1585 75
Width: 834
VWidth: 1854
Flags: HMW
AnchorPoint: "Anchor-3" 488 -402 basechar 0
AnchorPoint: "Anchor-5" 556 571 basechar 0
LayerCount: 2
Fore
SplineSet
486 543 m 1
 626 599 l 1
 692 433 731 277 731 131 c 0
 731 -164 516 -392 176 -516 c 1
 124 -376 l 1
 420 -268 581 -98 581 131 c 0
 581 249 548 389 486 543 c 1
EndSplineSet
PairPos2: "'kern' Horizontal Kerning in Arabic lookup 2 per glyph data 7" uni06CE dx=-100 dy=0 dh=-100 dv=0 dx=0 dy=0 dh=0 dv=0
PairPos2: "'kern' Horizontal Kerning in Arabic lookup 2 per glyph data 7" uni06C6 dx=-150 dy=0 dh=-150 dv=0 dx=0 dy=0 dh=0 dv=0
PairPos2: "'kern' Horizontal Kerning in Arabic lookup 2 per glyph data 7" uni06BE dx=-250 dy=0 dh=-250 dv=0 dx=0 dy=0 dh=0 dv=0
PairPos2: "'kern' Horizontal Kerning in Arabic lookup 2 per glyph data 7" uniFBE8 dx=-225 dy=0 dh=-225 dv=0 dx=0 dy=0 dh=0 dv=0
PairPos2: "'kern' Horizontal Kerning in Arabic lookup 2 per glyph data 7" uni06BA dx=-150 dy=0 dh=-150 dv=0 dx=0 dy=0 dh=0 dv=0
PairPos2: "'kern' Horizontal Kerning in Arabic lookup 2 per glyph data 7" uniE017 dx=-325 dy=0 dh=-325 dv=0 dx=0 dy=0 dh=0 dv=0
PairPos2: "'kern' Horizontal Kerning in Arabic lookup 2 per glyph data 7" uniE015 dx=-250 dy=0 dh=-250 dv=0 dx=0 dy=0 dh=0 dv=0
PairPos2: "'kern' Horizontal Kerning in Arabic lookup 2 per glyph data 7" uni06B5 dx=-112 dy=0 dh=-112 dv=0 dx=0 dy=0 dh=0 dv=0
PairPos2: "'kern' Horizontal Kerning in Arabic lookup 2 per glyph data 7" uniFB6C dx=-250 dy=0 dh=-250 dv=0 dx=0 dy=0 dh=0 dv=0
PairPos2: "'kern' Horizontal Kerning in Arabic lookup 2 per glyph data 7" uni06A4 dx=-250 dy=0 dh=-250 dv=0 dx=0 dy=0 dh=0 dv=0
PairPos2: "'kern' Horizontal Kerning in Arabic lookup 2 per glyph data 7" uni0695 dx=-150 dy=0 dh=-150 dv=0 dx=0 dy=0 dh=0 dv=0
PairPos2: "'kern' Horizontal Kerning in Arabic lookup 2 per glyph data 7" uni06D5 dx=-250 dy=0 dh=-250 dv=0 dx=0 dy=0 dh=0 dv=0
PairPos2: "'kern' Horizontal Kerning in Arabic lookup 2 per glyph data 7" uniE012 dx=-150 dy=0 dh=-150 dv=0 dx=0 dy=0 dh=0 dv=0
PairPos2: "'kern' Horizontal Kerning in Arabic lookup 2 per glyph data 4" parenleft dx=-300 dy=0 dh=-300 dv=0 dx=0 dy=0 dh=0 dv=0
PairPos2: "'kern' Horizontal Kerning in Arabic lookup 2 per glyph data 4" less dx=-420 dy=0 dh=-420 dv=0 dx=0 dy=0 dh=0 dv=0
PairPos2: "'kern' Horizontal Kerning in Arabic lookup 2 per glyph data 4" guillemotleft dx=-420 dy=0 dh=-420 dv=0 dx=0 dy=0 dh=0 dv=0
PairPos2: "'kern' Horizontal Kerning in Arabic lookup 2 per glyph data 4" bracketleft dx=-300 dy=0 dh=-300 dv=0 dx=0 dy=0 dh=0 dv=0
PairPos2: "'kern' Horizontal Kerning in Arabic lookup 2 per glyph data 3" uniFEDB dx=-300 dy=0 dh=-300 dv=0 dx=0 dy=0 dh=0 dv=0
PairPos2: "'kern' Horizontal Kerning in Arabic lookup 2 per glyph data 3" uniFB94 dx=-300 dy=0 dh=-300 dv=0 dx=0 dy=0 dh=0 dv=0
PairPos2: "'kern' Horizontal Kerning in Arabic lookup 2 per glyph data 3" uniFB90 dx=-300 dy=0 dh=-300 dv=0 dx=0 dy=0 dh=0 dv=0
PairPos2: "'kern' Horizontal Kerning in Arabic lookup 2 per glyph data 3" uni06AF dx=-300 dy=0 dh=-300 dv=0 dx=0 dy=0 dh=0 dv=0
PairPos2: "'kern' Horizontal Kerning in Arabic lookup 2 per glyph data 3" uni06A9 dx=-300 dy=0 dh=-300 dv=0 dx=0 dy=0 dh=0 dv=0
PairPos2: "'kern' Horizontal Kerning in Arabic lookup 2 per glyph data 2" uni0621 dx=-200 dy=0 dh=-200 dv=0 dx=0 dy=0 dh=0 dv=0
PairPos2: "'kern' Horizontal Kerning in Arabic lookup 2 per glyph data 2" uni064A dx=-100 dy=0 dh=-100 dv=0 dx=0 dy=0 dh=0 dv=0
PairPos2: "'kern' Horizontal Kerning in Arabic lookup 2 per glyph data 2" uni0649 dx=-100 dy=0 dh=-100 dv=0 dx=0 dy=0 dh=0 dv=0
PairPos2: "'kern' Horizontal Kerning in Arabic lookup 2 per glyph data 2" uni06CC dx=-100 dy=0 dh=-100 dv=0 dx=0 dy=0 dh=0 dv=0
PairPos2: "'kern' Horizontal Kerning in Arabic lookup 2 per glyph data 2" uniFEFB dx=-325 dy=0 dh=-325 dv=0 dx=0 dy=0 dh=0 dv=0
PairPos2: "'kern' Horizontal Kerning in Arabic lookup 2 per glyph data 2" uniFEF9 dx=-325 dy=0 dh=-325 dv=0 dx=0 dy=0 dh=0 dv=0
PairPos2: "'kern' Horizontal Kerning in Arabic lookup 2 per glyph data 2" uniFEF7 dx=-325 dy=0 dh=-325 dv=0 dx=0 dy=0 dh=0 dv=0
PairPos2: "'kern' Horizontal Kerning in Arabic lookup 2 per glyph data 2" uniFEF5 dx=-325 dy=0 dh=-325 dv=0 dx=0 dy=0 dh=0 dv=0
PairPos2: "'kern' Horizontal Kerning in Arabic lookup 2 per glyph data 2" uniFEEB dx=-250 dy=0 dh=-250 dv=0 dx=0 dy=0 dh=0 dv=0
PairPos2: "'kern' Horizontal Kerning in Arabic lookup 2 per glyph data 2" uniFEE7 dx=-225 dy=0 dh=-225 dv=0 dx=0 dy=0 dh=0 dv=0
PairPos2: "'kern' Horizontal Kerning in Arabic lookup 2 per glyph data 2" uniFEE3 dx=-250 dy=0 dh=-250 dv=0 dx=0 dy=0 dh=0 dv=0
PairPos2: "'kern' Horizontal Kerning in Arabic lookup 2 per glyph data 2" uniFEDF dx=-250 dy=0 dh=-250 dv=0 dx=0 dy=0 dh=0 dv=0
PairPos2: "'kern' Horizontal Kerning in Arabic lookup 2 per glyph data 2" uniFEDB dx=-500 dy=0 dh=-500 dv=0 dx=0 dy=0 dh=0 dv=0
PairPos2: "'kern' Horizontal Kerning in Arabic lookup 2 per glyph data 2" uniFED7 dx=-250 dy=0 dh=-250 dv=0 dx=0 dy=0 dh=0 dv=0
PairPos2: "'kern' Horizontal Kerning in Arabic lookup 2 per glyph data 2" uniFED3 dx=-250 dy=0 dh=-250 dv=0 dx=0 dy=0 dh=0 dv=0
PairPos2: "'kern' Horizontal Kerning in Arabic lookup 2 per glyph data 2" uniFECF dx=-300 dy=0 dh=-300 dv=0 dx=0 dy=0 dh=0 dv=0
PairPos2: "'kern' Horizontal Kerning in Arabic lookup 2 per glyph data 2" uniFECB dx=-300 dy=0 dh=-300 dv=0 dx=0 dy=0 dh=0 dv=0
PairPos2: "'kern' Horizontal Kerning in Arabic lookup 2 per glyph data 2" uniFEC7 dx=-300 dy=0 dh=-300 dv=0 dx=0 dy=0 dh=0 dv=0
PairPos2: "'kern' Horizontal Kerning in Arabic lookup 2 per glyph data 2" uniFEC3 dx=-300 dy=0 dh=-300 dv=0 dx=0 dy=0 dh=0 dv=0
PairPos2: "'kern' Horizontal Kerning in Arabic lookup 2 per glyph data 2" uniFEBF dx=-300 dy=0 dh=-300 dv=0 dx=0 dy=0 dh=0 dv=0
PairPos2: "'kern' Horizontal Kerning in Arabic lookup 2 per glyph data 2" uniFEBB dx=-300 dy=0 dh=-300 dv=0 dx=0 dy=0 dh=0 dv=0
PairPos2: "'kern' Horizontal Kerning in Arabic lookup 2 per glyph data 2" uniFEB7 dx=-200 dy=0 dh=-200 dv=0 dx=0 dy=0 dh=0 dv=0
PairPos2: "'kern' Horizontal Kerning in Arabic lookup 2 per glyph data 2" uniFEB3 dx=-200 dy=0 dh=-200 dv=0 dx=0 dy=0 dh=0 dv=0
PairPos2: "'kern' Horizontal Kerning in Arabic lookup 2 per glyph data 2" uniFEA7 dx=-250 dy=0 dh=-250 dv=0 dx=0 dy=0 dh=0 dv=0
PairPos2: "'kern' Horizontal Kerning in Arabic lookup 2 per glyph data 2" uniFEA3 dx=-250 dy=0 dh=-250 dv=0 dx=0 dy=0 dh=0 dv=0
PairPos2: "'kern' Horizontal Kerning in Arabic lookup 2 per glyph data 2" uniFE9F dx=-250 dy=0 dh=-250 dv=0 dx=0 dy=0 dh=0 dv=0
PairPos2: "'kern' Horizontal Kerning in Arabic lookup 2 per glyph data 2" uniFE9B dx=-225 dy=0 dh=-225 dv=0 dx=0 dy=0 dh=0 dv=0
PairPos2: "'kern' Horizontal Kerning in Arabic lookup 2 per glyph data 2" uniFE97 dx=-225 dy=0 dh=-225 dv=0 dx=0 dy=0 dh=0 dv=0
PairPos2: "'kern' Horizontal Kerning in Arabic lookup 2 per glyph data 2" uniFE91 dx=-225 dy=0 dh=-225 dv=0 dx=0 dy=0 dh=0 dv=0
PairPos2: "'kern' Horizontal Kerning in Arabic lookup 2 per glyph data 2" uniFE8B dx=-225 dy=0 dh=-225 dv=0 dx=0 dy=0 dh=0 dv=0
PairPos2: "'kern' Horizontal Kerning in Arabic lookup 2 per glyph data 2" uniFB94 dx=-400 dy=0 dh=-400 dv=0 dx=0 dy=0 dh=0 dv=0
PairPos2: "'kern' Horizontal Kerning in Arabic lookup 2 per glyph data 2" uniFB90 dx=-400 dy=0 dh=-400 dv=0 dx=0 dy=0 dh=0 dv=0
PairPos2: "'kern' Horizontal Kerning in Arabic lookup 2 per glyph data 2" uniFB7C dx=-250 dy=0 dh=-250 dv=0 dx=0 dy=0 dh=0 dv=0
PairPos2: "'kern' Horizontal Kerning in Arabic lookup 2 per glyph data 2" uni06CA dx=-150 dy=0 dh=-150 dv=0 dx=0 dy=0 dh=0 dv=0
PairPos2: "'kern' Horizontal Kerning in Arabic lookup 2 per glyph data 2" uni06C0 dx=-250 dy=0 dh=-250 dv=0 dx=0 dy=0 dh=0 dv=0
PairPos2: "'kern' Horizontal Kerning in Arabic lookup 2 per glyph data 2" uni06AF dx=-400 dy=0 dh=-400 dv=0 dx=0 dy=0 dh=0 dv=0
PairPos2: "'kern' Horizontal Kerning in Arabic lookup 2 per glyph data 2" uni06A9 dx=-400 dy=0 dh=-400 dv=0 dx=0 dy=0 dh=0 dv=0
PairPos2: "'kern' Horizontal Kerning in Arabic lookup 2 per glyph data 2" uni0698 dx=-150 dy=0 dh=-150 dv=0 dx=0 dy=0 dh=0 dv=0
PairPos2: "'kern' Horizontal Kerning in Arabic lookup 2 per glyph data 2" uni0686 dx=-125 dy=0 dh=-125 dv=0 dx=0 dy=0 dh=0 dv=0
PairPos2: "'kern' Horizontal Kerning in Arabic lookup 2 per glyph data 2" uni067E dx=-250 dy=0 dh=-250 dv=0 dx=0 dy=0 dh=0 dv=0
PairPos2: "'kern' Horizontal Kerning in Arabic lookup 2 per glyph data 2" uni0648 dx=-150 dy=0 dh=-150 dv=0 dx=0 dy=0 dh=0 dv=0
PairPos2: "'kern' Horizontal Kerning in Arabic lookup 2 per glyph data 2" uni0647 dx=-250 dy=0 dh=-250 dv=0 dx=0 dy=0 dh=0 dv=0
PairPos2: "'kern' Horizontal Kerning in Arabic lookup 2 per glyph data 2" uni0646 dx=-150 dy=0 dh=-150 dv=0 dx=0 dy=0 dh=0 dv=0
PairPos2: "'kern' Horizontal Kerning in Arabic lookup 2 per glyph data 2" uni0645 dx=-250 dy=0 dh=-250 dv=0 dx=0 dy=0 dh=0 dv=0
PairPos2: "'kern' Horizontal Kerning in Arabic lookup 2 per glyph data 2" uni0644 dx=-112 dy=0 dh=-112 dv=0 dx=0 dy=0 dh=0 dv=0
PairPos2: "'kern' Horizontal Kerning in Arabic lookup 2 per glyph data 2" uni0643 dx=-300 dy=0 dh=-300 dv=0 dx=0 dy=0 dh=0 dv=0
PairPos2: "'kern' Horizontal Kerning in Arabic lookup 2 per glyph data 2" uni0642 dx=-150 dy=0 dh=-150 dv=0 dx=0 dy=0 dh=0 dv=0
PairPos2: "'kern' Horizontal Kerning in Arabic lookup 2 per glyph data 2" uni0641 dx=-250 dy=0 dh=-250 dv=0 dx=0 dy=0 dh=0 dv=0
PairPos2: "'kern' Horizontal Kerning in Arabic lookup 2 per glyph data 2" uni0638 dx=-300 dy=0 dh=-300 dv=0 dx=0 dy=0 dh=0 dv=0
PairPos2: "'kern' Horizontal Kerning in Arabic lookup 2 per glyph data 2" uni0637 dx=-300 dy=0 dh=-300 dv=0 dx=0 dy=0 dh=0 dv=0
PairPos2: "'kern' Horizontal Kerning in Arabic lookup 2 per glyph data 2" uni0636 dx=-300 dy=0 dh=-300 dv=0 dx=0 dy=0 dh=0 dv=0
PairPos2: "'kern' Horizontal Kerning in Arabic lookup 2 per glyph data 2" uni0635 dx=-300 dy=0 dh=-300 dv=0 dx=0 dy=0 dh=0 dv=0
PairPos2: "'kern' Horizontal Kerning in Arabic lookup 2 per glyph data 2" uni0634 dx=-200 dy=0 dh=-200 dv=0 dx=0 dy=0 dh=0 dv=0
PairPos2: "'kern' Horizontal Kerning in Arabic lookup 2 per glyph data 2" uni0633 dx=-200 dy=0 dh=-200 dv=0 dx=0 dy=0 dh=0 dv=0
PairPos2: "'kern' Horizontal Kerning in Arabic lookup 2 per glyph data 2" uni0632 dx=-150 dy=0 dh=-150 dv=0 dx=0 dy=0 dh=0 dv=0
PairPos2: "'kern' Horizontal Kerning in Arabic lookup 2 per glyph data 2" uni0631 dx=-150 dy=0 dh=-150 dv=0 dx=0 dy=0 dh=0 dv=0
PairPos2: "'kern' Horizontal Kerning in Arabic lookup 2 per glyph data 2" uni0630 dx=-250 dy=0 dh=-250 dv=0 dx=0 dy=0 dh=0 dv=0
PairPos2: "'kern' Horizontal Kerning in Arabic lookup 2 per glyph data 2" uni062F dx=-250 dy=0 dh=-250 dv=0 dx=0 dy=0 dh=0 dv=0
PairPos2: "'kern' Horizontal Kerning in Arabic lookup 2 per glyph data 2" uni062E dx=-125 dy=0 dh=-125 dv=0 dx=0 dy=0 dh=0 dv=0
PairPos2: "'kern' Horizontal Kerning in Arabic lookup 2 per glyph data 2" uni062D dx=-125 dy=0 dh=-125 dv=0 dx=0 dy=0 dh=0 dv=0
PairPos2: "'kern' Horizontal Kerning in Arabic lookup 2 per glyph data 2" uni062C dx=-125 dy=0 dh=-125 dv=0 dx=0 dy=0 dh=0 dv=0
PairPos2: "'kern' Horizontal Kerning in Arabic lookup 2 per glyph data 2" uni062B dx=-250 dy=0 dh=-250 dv=0 dx=0 dy=0 dh=0 dv=0
PairPos2: "'kern' Horizontal Kerning in Arabic lookup 2 per glyph data 2" uni062A dx=-250 dy=0 dh=-250 dv=0 dx=0 dy=0 dh=0 dv=0
PairPos2: "'kern' Horizontal Kerning in Arabic lookup 2 per glyph data 2" uni0629 dx=-250 dy=0 dh=-250 dv=0 dx=0 dy=0 dh=0 dv=0
PairPos2: "'kern' Horizontal Kerning in Arabic lookup 2 per glyph data 2" uni0628 dx=-250 dy=0 dh=-250 dv=0 dx=0 dy=0 dh=0 dv=0
PairPos2: "'kern' Horizontal Kerning in Arabic lookup 2 per glyph data 2" uni0627 dx=-250 dy=0 dh=-250 dv=0 dx=0 dy=0 dh=0 dv=0
PairPos2: "'kern' Horizontal Kerning in Arabic lookup 2 per glyph data 2" uni0624 dx=-150 dy=0 dh=-150 dv=0 dx=0 dy=0 dh=0 dv=0
PairPos2: "'kern' Horizontal Kerning in Arabic lookup 2 per glyph data 2" uni0623 dx=-250 dy=0 dh=-250 dv=0 dx=0 dy=0 dh=0 dv=0
PairPos2: "'kern' Horizontal Kerning in Arabic lookup 2 per glyph data 2" uni0622 dx=-250 dy=0 dh=-250 dv=0 dx=0 dy=0 dh=0 dv=0
PairPos2: "'kern' Horizontal Kerning in Arabic lookup 2 per glyph data 2" uniFB58 dx=-100 dy=0 dh=-100 dv=0 dx=0 dy=0 dh=0 dv=0
PairPos2: "'kern' Horizontal Kerning in Arabic lookup 2 per glyph data 2" uniFEF3 dx=-100 dy=0 dh=-100 dv=0 dx=0 dy=0 dh=0 dv=0
PairPos2: "'kern' Horizontal Kerning in Arabic lookup 2 per glyph data 2" uniFBFE dx=-100 dy=0 dh=-100 dv=0 dx=0 dy=0 dh=0 dv=0
PairPos2: "'kern' Horizontal Kerning in Arabic lookup 2 per glyph data 1" uni063A dx=-200 dy=0 dh=-200 dv=0 dx=0 dy=0 dh=0 dv=0
PairPos2: "'kern' Horizontal Kerning in Arabic lookup 2 per glyph data 1" uni0639 dx=-200 dy=0 dh=-200 dv=0 dx=0 dy=0 dh=0 dv=0
Substitution2: "'fina' Terminal Forms in Arabic lookup 2 subtable" uniFEAE
Colour: ffff
EndChar

StartChar: uni0633
Encoding: 1587 1587 76
Width: 2448
VWidth: 1854
Flags: HMW
AnchorPoint: "Anchor-3" 721 -502 basechar 0
AnchorPoint: "Anchor-5" 1820 574 basechar 0
LayerCount: 2
Fore
SplineSet
1239 598 m 25
 1328 365 l 2
 1390 200 1472 150 1543 150 c 0
 1605 150 1684 204 1710 360 c 2
 1746 586 l 25
 1894 562 l 25
 1868 395 l 2
 1865 377 1865 358 1865 337 c 0
 1865 191 1948 150 2033 150 c 0
 2150 150 2195 229 2195 387 c 0
 2195 480 2173 589 2143 683 c 1
 2287 729 l 17
 2321 623 2345 502 2345 387 c 0
 2345 205 2270 0 2033 0 c 0
 1939 0 1839 39 1776 127 c 1
 1718 47 1636 0 1543 0 c 0
 1487 0 1433 16 1387 44 c 1
 1370 -328 1035 -501 719 -501 c 0
 409 -501 103 -335 103 11 c 0
 103 185 190 389 385 619 c 9
 499 523 l 1
 316 308 253 135 253 11 c 0
 253 -221 451 -351 719 -351 c 0
 1001 -351 1238 -206 1238 74 c 0
 1238 142 1223 219 1188 311 c 2
 1099 544 l 25
 1239 598 l 25
EndSplineSet
Substitution2: "'init' Initial Forms in Arabic lookup 4 subtable" uniFEB3
Substitution2: "'medi' Medial Forms in Arabic lookup 3 subtable" uniFEB4
Substitution2: "'fina' Terminal Forms in Arabic lookup 2 subtable" uniFEB2
Colour: ffff
EndChar

StartChar: uni0635
Encoding: 1589 1589 77
Width: 2392
VWidth: 1854
Flags: HMW
AnchorPoint: "Anchor-5" 1933 695 basechar 0
AnchorPoint: "Anchor-3" 719 -502 basechar 0
LayerCount: 2
Fore
SplineSet
1359 273 m 1
 1523 571 1742 699 1934 699 c 0
 2125 699 2288 571 2288 367 c 0
 2288 96 1989 0 1741 0 c 0
 1621 0 1495 23 1388 64 c 1
 1382 -321 1041 -501 720 -501 c 0
 410 -501 104 -335 104 11 c 0
 104 185 191 389 386 619 c 1
 500 523 l 1
 317 308 254 135 254 11 c 0
 254 -221 452 -351 720 -351 c 0
 1002 -351 1239 -206 1239 74 c 0
 1239 142 1224 220 1189 311 c 2
 1099 544 l 1
 1239 598 l 1
 1329 365 l 2
 1341 334 1351 302 1359 273 c 1
1484 188 m 1
 1565 163 1654 150 1741 150 c 0
 1983 150 2138 242 2138 367 c 0
 2138 478 2060 549 1934 549 c 0
 1809 549 1631 464 1484 188 c 1
EndSplineSet
Substitution2: "'init' Initial Forms in Arabic lookup 4 subtable" uniFEBB
Substitution2: "'medi' Medial Forms in Arabic lookup 3 subtable" uniFEBC
Substitution2: "'fina' Terminal Forms in Arabic lookup 2 subtable" uniFEBA
Colour: ffff
EndChar

StartChar: uni0637
Encoding: 1591 1591 78
Width: 1515
VWidth: 1854
Flags: HMW
AnchorPoint: "Anchor-5" 1088 764 basechar 0
AnchorPoint: "Anchor-3" 768 0 basechar 0
LayerCount: 2
Fore
SplineSet
403 150 m 1
 403 1211 l 1
 553 1211 l 1
 553 454 l 1
 708 653 911 740 1060 740 c 0
 1225 740 1390 631 1390 434 c 0
 1390 156 1171 0 478 0 c 2
 105 0 l 1
 105 150 l 1
 403 150 l 1
554 151 m 1
 1181 162 1240 294 1240 434 c 0
 1240 531 1167 590 1060 590 c 0
 932 590 680 477 554 151 c 1
EndSplineSet
Substitution2: "'init' Initial Forms in Arabic lookup 4 subtable" uniFEC3
Substitution2: "'medi' Medial Forms in Arabic lookup 3 subtable" uniFEC4
Substitution2: "'fina' Terminal Forms in Arabic lookup 2 subtable" uniFEC2
Colour: ffff
EndChar

StartChar: uni0639
Encoding: 1593 1593 79
Width: 1299
VWidth: 1854
Flags: HMW
AnchorPoint: "Anchor-5" 596 1079 basechar 0
AnchorPoint: "Anchor-3" 772 -734 basechar 0
LayerCount: 2
Fore
SplineSet
945 918 m 1
 831 822 l 1
 784 878 707 931 596 931 c 0
 465 931 329 823 329 629 c 0
 329 507 471 437 696 437 c 0
 790.118131058 437 886.105974071 451.345224497 973 466 c 1
 1004 312 l 1
 604.2314133 262.028926662 256 126.792069656 256 -217 c 0
 256 -442 475 -584 772 -584 c 0
 902 -584 1028 -556 1119 -517 c 1
 1179 -655 l 1
 1066 -704 922 -734 772 -734 c 0
 443 -734 106 -566 106 -217 c 0
 106 37 255 212 454 317 c 1
 314 357 179 454 179 629 c 0
 179 901 379 1081 596 1081 c 0
 759 1081 876 1000 945 918 c 1
EndSplineSet
Substitution2: "'init' Initial Forms in Arabic lookup 4 subtable" uniFECB
Substitution2: "'medi' Medial Forms in Arabic lookup 3 subtable" uniFECC
Substitution2: "'fina' Terminal Forms in Arabic lookup 2 subtable" uniFECA
Colour: ffff
EndChar

StartChar: uni0640
Encoding: 1600 1600 80
Width: 811
VWidth: 1854
Flags: HMW
AnchorPoint: "Anchor-5" 406 904 basechar 0
AnchorPoint: "Anchor-3" 406 0 basechar 0
LayerCount: 2
Fore
SplineSet
0 150 m 0
 811 150 l 1
 811 0 l 1
 0 0 l 0
 -41 0 -74 34 -74 75 c 0
 -74 116 -41 150 0 150 c 0
EndSplineSet
Colour: ffff
EndChar

StartChar: uni0644
Encoding: 1604 1604 81
Width: 1378
VWidth: 1854
Flags: HMW
AnchorPoint: "Anchor-5" 631 712 basechar 0
AnchorPoint: "Anchor-3" 663 -502 basechar 0
LayerCount: 2
Fore
SplineSet
1092 1211 m 1
 1242 1211 l 1
 1242 126 l 2
 1242 -302 949 -503 663 -503 c 0
 392 -503 103 -323 103 -5 c 0
 103 142 152 311 256 497 c 1
 387 425 l 1
 292 255 253 108 253 -5 c 0
 253 -215 446 -353 663 -353 c 0
 877 -353 1092 -220 1092 126 c 2
 1092 1211 l 1
EndSplineSet
Substitution2: "'init' Initial Forms in Arabic lookup 4 subtable" uniFEDF
Substitution2: "'medi' Medial Forms in Arabic lookup 3 subtable" uniFEE0
Substitution2: "'fina' Terminal Forms in Arabic lookup 2 subtable" uniFEDE
Colour: ffff
EndChar

StartChar: uni0645
Encoding: 1605 1605 82
Width: 1199
VWidth: 2374
Flags: HMW
AnchorPoint: "Anchor-5" 750 696 basechar 0
AnchorPoint: "Anchor-3" 668 -50 basechar 0
LayerCount: 2
Fore
SplineSet
373 234 m 1
 395 417 486 696 760 696 c 0
 977 696 1094 493 1094 302 c 0
 1094 85 943 1 793 1 c 0
 692 1 591 29 513 59 c 0
 467 77 445 85 401 85 c 0
 316 85 253 22 253 -99 c 2
 253 -783 l 1
 103 -783 l 1
 103 -99 l 2
 103 71 205 218 373 234 c 1
522 214 m 1
 609 188 703 151 793 151 c 0
 890 151 944 175 944 302 c 0
 944 445 863 546 760 546 c 0
 618 546 541 387 522 214 c 1
EndSplineSet
Substitution2: "'init' Initial Forms in Arabic lookup 4 subtable" uniFEE3
Substitution2: "'medi' Medial Forms in Arabic lookup 3 subtable" uniFEE4
Substitution2: "'fina' Terminal Forms in Arabic lookup 2 subtable" uniFEE2
Colour: ffff
EndChar

StartChar: uni0647
Encoding: 1607 1607 83
Width: 869
VWidth: 1854
Flags: HMW
AnchorPoint: "Anchor-5" 435 872 basechar 0
AnchorPoint: "Anchor-3" 435 75 basechar 0
LayerCount: 2
Fore
SplineSet
435 150 m 0
 552 150 603 208 603 306 c 0
 603 409 537 532 435 636 c 1
 334 533 266 409 266 306 c 0
 266 208 318 150 435 150 c 0
435 0 m 0
 246 0 116 128 116 306 c 0
 116 495 244 671 386 795 c 2
 435 839 l 1
 484 795 l 2
 626 671 753 494 753 306 c 0
 753 128 624 0 435 0 c 0
EndSplineSet
Substitution2: "'init' Initial Forms in Arabic lookup 4 subtable" uniFEEB
Substitution2: "'medi' Medial Forms in Arabic lookup 3 subtable" uniFEEC
Substitution2: "'fina' Terminal Forms in Arabic lookup 2 subtable" uniFEEA
Colour: ffff
EndChar

StartChar: uni0648
Encoding: 1608 1608 84
Width: 888
VWidth: 1854
Flags: HMW
AnchorPoint: "Anchor-5" 440 725 basechar 0
AnchorPoint: "Anchor-3" 444 -502 basechar 0
LayerCount: 2
Fore
SplineSet
638 21 m 1
 582 7 523 -1 458 -1 c 0
 279 -1 107 82 107 303 c 0
 107 500 237 725 440 725 c 0
 761 725 795 269 795 98 c 0
 795 -215 557 -408 142 -514 c 1
 104 -368 l 1
 453 -279 605 -147 638 21 c 1
642 177 m 1
 627 386 556 575 440 575 c 0
 363 575 257 456 257 303 c 0
 257 188 315 149 458 149 c 0
 527 149 582 159 642 177 c 1
EndSplineSet
PairPos2: "'kern' Horizontal Kerning in Arabic lookup 2 per glyph data 3" uniFEDB dx=-200 dy=0 dh=-200 dv=0 dx=0 dy=0 dh=0 dv=0
PairPos2: "'kern' Horizontal Kerning in Arabic lookup 2 per glyph data 3" uniFB94 dx=-200 dy=0 dh=-200 dv=0 dx=0 dy=0 dh=0 dv=0
PairPos2: "'kern' Horizontal Kerning in Arabic lookup 2 per glyph data 3" uniFB90 dx=-200 dy=0 dh=-200 dv=0 dx=0 dy=0 dh=0 dv=0
PairPos2: "'kern' Horizontal Kerning in Arabic lookup 2 per glyph data 3" uni06AF dx=-200 dy=0 dh=-200 dv=0 dx=0 dy=0 dh=0 dv=0
PairPos2: "'kern' Horizontal Kerning in Arabic lookup 2 per glyph data 3" uni06A9 dx=-200 dy=0 dh=-200 dv=0 dx=0 dy=0 dh=0 dv=0
PairPos2: "'kern' Horizontal Kerning in Arabic lookup 2 per glyph data 1" uni063A dx=-100 dy=0 dh=-100 dv=0 dx=0 dy=0 dh=0 dv=0
PairPos2: "'kern' Horizontal Kerning in Arabic lookup 2 per glyph data 1" uni0639 dx=-100 dy=0 dh=-100 dv=0 dx=0 dy=0 dh=0 dv=0
Substitution2: "'fina' Terminal Forms in Arabic lookup 2 subtable" uniFEEE
Colour: ffff
EndChar

StartChar: uni065A
Encoding: 1626 1626 86
Width: 0
VWidth: 1854
Flags: HMW
AnchorPoint: "Anchor-1" 0 1598 basemark 0
AnchorPoint: "Anchor-1" 1 1209 mark 0
AnchorPoint: "Anchor-4" 1 1209 mark 0
AnchorPoint: "Anchor-5" 1 1209 mark 0
LayerCount: 2
Fore
SplineSet
-242 1813 m 1
 -170 1867 l 1
 0 1640 l 1
 170 1867 l 1
 242 1813 l 1
 -0 1490 l 1
 -242 1813 l 1
EndSplineSet
Colour: ff00
EndChar

StartChar: uni066C
Encoding: 1644 1644 88
Width: 587
VWidth: 1854
Flags: HMW
LayerCount: 2
Fore
SplineSet
179 760 m 1
 121 829 l 1
 193 887 271 994 301 1065 c 1
 228 1065 120 1128 120 1237 c 0
 120 1329 189 1411 283 1411 c 0
 379 1411 467 1350 467 1202 c 0
 467 1046 293 851 179 760 c 1
EndSplineSet
EndChar

StartChar: uni066D
Encoding: 1645 1645 89
Width: 910
VWidth: 1854
Flags: HMW
LayerCount: 2
Fore
SplineSet
510 601 m 1
 400 601 l 1
 400 911 l 1
 133 756 l 1
 77 852 l 1
 345 1007 l 1
 77 1161 l 1
 133 1257 l 1
 400 1102 l 1
 400 1411 l 1
 510 1411 l 1
 510 1102 l 1
 777 1257 l 1
 833 1161 l 1
 565 1007 l 1
 833 852 l 1
 777 756 l 1
 510 911 l 1
 510 601 l 1
EndSplineSet
Colour: ff00ff
EndChar

StartChar: uni066E
Encoding: 1646 1646 90
Width: 1782
VWidth: 1854
Flags: HMW
AnchorPoint: "Anchor-5" 892 528 basechar 0
AnchorPoint: "Anchor-3" 892 0 basechar 0
LayerCount: 2
Back
SplineSet
1545 679 m 0
 1572.62207031 595.350585938 1603 499.030273438 1603 400 c 0
 1603 123 1299 75 891 75 c 0
 483 75 179 123 179 400 c 0
 179 499.030654358 209.377920874 595.350916719 237 679 c 1024
EndSplineSet
Fore
SplineSet
1476 659 m 1
 1620 699 l 1
 1663 540 l 2
 1678 488 1680 439 1680 400 c 0
 1680 39 1280 0 892 0 c 0
 504 0 103 39 103 400 c 0
 103 440 107 489 121 540 c 2
 164 699 l 1
 308 659 l 1
 265 500 l 2
 255 465 253 432 253 400 c 0
 253 207 464 150 892 150 c 0
 1320 150 1530 207 1530 400 c 0
 1530 433 1528 466 1519 500 c 2
 1476 659 l 1
EndSplineSet
Substitution2: "'init' Initial Forms in Arabic lookup 4 subtable" uniFBE8
Substitution2: "'medi' Medial Forms in Arabic lookup 3 subtable" uniFBE9
Substitution2: "'fina' Terminal Forms in Arabic lookup 2 subtable" dotlessfinalBEH
Colour: ffff
EndChar

StartChar: uni066F
Encoding: 1647 1647 91
Width: 1505
VWidth: 1854
Flags: HMW
AnchorPoint: "Anchor-5" 1047 726 basechar 0
AnchorPoint: "Anchor-3" 728 -504 basechar 0
LayerCount: 2
Back
SplineSet
1311 124 m 0
 1229 94 1149 75 1052 75 c 0
 890 75 776 137 776 305 c 0
 776 482 895 651 1034 651 c 0
 1254 651 1315 314 1315 109 c 0
 1315 -252 1077 -429 756 -429 c 0
 457 -429 184 -274 184 30 c 0
 184 231 277 415 370 553 c 1024
EndSplineSet
Fore
SplineSet
253 -3 m 0
 253 -220 459 -354 728 -354 c 0
 994 -354 1211 -224 1247 22 c 1
 1191 8 1130 0 1065 0 c 0
 886 0 714 83 714 304 c 0
 714 501 844 726 1047 726 c 0
 1368 726 1402 270 1402 99 c 0
 1402 -306 1069 -504 728 -504 c 0
 423 -504 103 -340 103 -3 c 0
 103 165.125976562 179.998046875 352.346679688 278.040039062 529.918945312 c 1
 402.571289062 452.366210938 l 1
 315.983398438 294.55859375 253 130.134765625 253 -3 c 0
1249 178 m 1
 1234 387 1163 576 1047 576 c 0
 970 576 864 457 864 304 c 0
 864 189 922 150 1065 150 c 0
 1134 150 1189 160 1249 178 c 1
EndSplineSet
Substitution2: "'init' Initial Forms in Arabic lookup 4 subtable" dotlessinitialFEH
Substitution2: "'medi' Medial Forms in Arabic lookup 3 subtable" dotlessmedialFEH
Substitution2: "'fina' Terminal Forms in Arabic lookup 2 subtable" dotlessfinalQAF
Colour: ffff
EndChar

StartChar: uni0670
Encoding: 1648 1648 92
Width: 0
VWidth: 1854
Flags: HMW
AnchorPoint: "Anchor-1" 0 1598 basemark 0
AnchorPoint: "Anchor-1" 1 1209 mark 0
AnchorPoint: "Anchor-4" 1 1209 mark 0
AnchorPoint: "Anchor-5" 1 1209 mark 0
LayerCount: 2
Fore
SplineSet
-45 1834 m 1
 45 1834 l 1
 45 1505 l 1
 -45 1505 l 1
 -45 1834 l 1
EndSplineSet
Colour: ff00
EndChar

StartChar: uni06A1
Encoding: 1697 1697 93
Width: 1752
VWidth: 1854
Flags: HMW
AnchorPoint: "Anchor-3" 892 0 basechar 0
AnchorPoint: "Anchor-5" 1313 1111 basechar 0
LayerCount: 2
Fore
SplineSet
1489 368 m 1
 1434 355 1376 347 1312 347 c 0
 1133 347 961 430 961 651 c 0
 961 848 1091 1073 1294 1073 c 0
 1615 1073 1649 617 1649 446 c 0
 1649 81 1292 0 891 0 c 0
 503 0 104 39 104 400 c 0
 104 514 138 619 166 703 c 1
 308 655 l 1
 280 572 254 484 254 400 c 0
 254 207 463 150 891 150 c 0
 1254 150 1448 220 1489 368 c 1
1496 525 m 1
 1481 734 1410 923 1294 923 c 0
 1217 923 1111 804 1111 651 c 0
 1111 536 1169 497 1312 497 c 0
 1381 497 1436 507 1496 525 c 1
EndSplineSet
Substitution2: "'init' Initial Forms in Arabic lookup 4 subtable" dotlessinitialFEH
Substitution2: "'medi' Medial Forms in Arabic lookup 3 subtable" dotlessmedialFEH
Substitution2: "'fina' Terminal Forms in Arabic lookup 2 subtable" dotlessfinalFEH
Colour: ffff
EndChar

StartChar: uni06A9
Encoding: 1705 1705 94
Width: 1848
VWidth: 1854
Flags: HMW
AnchorPoint: "Anchor-5" 1304 1258 basechar 0
AnchorPoint: "Anchor-3" 868 0 basechar 0
LayerCount: 2
Fore
SplineSet
166 703 m 1
 308 655 l 1
 281 572 254 484 254 400 c 0
 254 207 463 150 891 150 c 0
 1171 150 1318 181 1318 298 c 0
 1318 425 1107 690 899 847 c 2
 869 870 l 1
 869 1034 l 1
 904 1056 l 2
 1138 1206 1412 1313 1683 1369 c 1
 1713 1223 l 1
 1473 1174 1229 1079 1019 951 c 1
 1019 944 l 1
 1227 780 1468 518 1468 298 c 0
 1468 3 1119 0 891 0 c 0
 503 0 104 39 104 400 c 0
 104 514 138 619 166 703 c 1
EndSplineSet
Substitution2: "'init' Initial Forms in Arabic lookup 4 subtable" uniFB90
Substitution2: "'medi' Medial Forms in Arabic lookup 3 subtable" uniFB91
Substitution2: "'fina' Terminal Forms in Arabic lookup 2 subtable" uniFB8F
Colour: ffff
EndChar

StartChar: uni06BA
Encoding: 1722 1722 95
Width: 1542
VWidth: 1854
Flags: HMW
AnchorPoint: "Anchor-3" 734 -502 basechar 0
AnchorPoint: "Anchor-5" 792 539 basechar 0
LayerCount: 2
Fore
SplineSet
253 1 m 0
 253 -220 452 -353 729 -353 c 0
 1030 -353 1289 -197 1289 86 c 0
 1289 229 1212 415 1150 553 c 1
 1288 613 l 1
 1350 475 1439 276 1439 86 c 0
 1439 -314 1070 -503 729 -503 c 0
 414 -503 103 -338 103 1 c 0
 103 169.125976562 179.998046875 396.346679688 278.040039062 573.918945312 c 1
 402.571289062 496.366210938 l 1
 315.983398438 338.55859375 253 134.134765625 253 1 c 0
EndSplineSet
Substitution2: "'init' Initial Forms in Arabic lookup 4 subtable" uniFBE8
Substitution2: "'medi' Medial Forms in Arabic lookup 3 subtable" uniFBE9
Substitution2: "'fina' Terminal Forms in Arabic lookup 2 subtable" uniFB9F
Colour: ffff
EndChar

StartChar: uni06CC
Encoding: 1740 1740 96
Width: 1449
VWidth: 1854
Flags: HMW
AnchorPoint: "Anchor-3" 775 -502 basechar 0
AnchorPoint: "Anchor-5" 463 696 basechar 0
LayerCount: 2
Fore
SplineSet
1348 758 m 1
 1292 618 l 1
 1223 645 1130 661 1035 661 c 0
 850 661 749 546 749 384 c 0
 749 296 764 264 780 249 c 0
 801 229 856 210 979 204 c 0
 1098 198 1197 181 1266 112 c 0
 1317 61 1337 -10 1337 -88 c 0
 1337 -358 1081 -503 754 -503 c 0
 356 -503 103 -321 103 -5 c 0
 103 129 128 278 176 427 c 2
 186 461 l 1
 330 417 l 1
 318 381 l 2
 274 244 253 111 253 -5 c 0
 253 -213 396 -353 754 -353 c 0
 1053 -353 1187 -234 1187 -88 c 0
 1187 -32 1175 -9 1160 6 c 0
 1137 29 1084 48 971 54 c 0
 844 60 747 75 678 139 c 0
 612 200 599 288 599 384 c 0
 599 622 770 811 1035 811 c 0
 1146 811 1255 795 1348 758 c 1
EndSplineSet
Substitution2: "'init' Initial Forms in Arabic lookup 4 subtable" uniFEF3
Substitution2: "'medi' Medial Forms in Arabic lookup 3 subtable" uniFEF4
Substitution2: "'fina' Terminal Forms in Arabic lookup 2 subtable" uniFBFD
Colour: ffff
EndChar

StartChar: uniFBE8
Encoding: 64488 64488 100
Width: 547
VWidth: 1854
Flags: HMW
AnchorPoint: "Anchor-5" 303 791 basechar 0
AnchorPoint: "Anchor-3" 274 0 basechar 0
LayerCount: 2
Fore
SplineSet
0 150 m 0
 121 150 209 185 238 219 c 0
 275 263 294 342 294 443 c 0
 294 529 269 655 232 767 c 1
 374 815 l 1
 415 691 444 555 444 443 c 0
 444 328 426 211 352 123 c 0
 275 31 139 0 0 0 c 0
 -41 0 -74 34 -74 75 c 0
 -74 116 -41 150 0 150 c 0
EndSplineSet
Colour: ffff
EndChar

StartChar: uniFBE9
Encoding: 64489 64489 101
Width: 767
VWidth: 1854
Flags: HMW
AnchorPoint: "Anchor-5" 384 594 basechar 0
AnchorPoint: "Anchor-3" 184 0 basechar 0
LayerCount: 2
Fore
SplineSet
0 150 m 0
 123 150 192 178 232 219 c 0
 281 269 309 363 309 517 c 2
 309 594 l 1
 459 594 l 1
 459 517 l 2
 459 368 486 274 532 223 c 0
 572 178 638 150 767 150 c 1
 767 0 l 1
 590 0 458 53 384 171 c 1
 310 54 177 0 0 0 c 0
 -41 0 -74 34 -74 75 c 0
 -74 116 -41 150 0 150 c 0
EndSplineSet
Colour: ffff
EndChar

StartChar: uniFBFD
Encoding: 64509 64509 102
Width: 1473
VWidth: 1854
Flags: HMW
AnchorPoint: "Anchor-5" 883 149 basechar 0
AnchorPoint: "Anchor-3" 739 -573 basechar 0
LayerCount: 2
Fore
SplineSet
1473 150 m 1
 1473 0 l 1
 1297 0 l 1
 1342 -50 1366 -110 1366 -172 c 0
 1366 -433 1119 -573 739 -573 c 0
 400 -573 103 -395 103 -52 c 0
 103 114 164 312 307 544 c 1
 435 466 l 1
 302 250 253 76 253 -52 c 0
 253 -267 432 -423 739 -423 c 0
 1115 -423 1216 -285 1216 -199 c 0
 1216 -111 1143 -1 812 -1 c 2
 737 -1 l 1
 737 150 l 1
 982 150 1228 150 1473 150 c 1
EndSplineSet
Colour: ffff
EndChar

StartChar: uniFE8E
Encoding: 65166 65166 109
Width: 596
VWidth: 1854
Flags: HMW
AnchorPoint: "Anchor-3" 346 0 basechar 0
AnchorPoint: "Anchor-5" 250 1211 basechar 0
LayerCount: 2
Fore
SplineSet
175 1211 m 25
 325 1211 l 25
 325 391 l 2
 325 306 335 249 366 212 c 0
 404 166 474 150 596 150 c 9
 596 0 l 17
 444 0 331 39 260 119 c 0
 204 183 175 273 175 391 c 2
 175 1211 l 25
EndSplineSet
PairPos2: "'kern' Horizontal Kerning in Arabic lookup 2 per glyph data 1" uni063A dx=-225 dy=0 dh=-225 dv=0 dx=0 dy=0 dh=0 dv=0
PairPos2: "'kern' Horizontal Kerning in Arabic lookup 2 per glyph data 1" uni0639 dx=-225 dy=0 dh=-225 dv=0 dx=0 dy=0 dh=0 dv=0
Colour: ffff
EndChar

StartChar: uniFEA2
Encoding: 65186 65186 110
Width: 1398
VWidth: 1854
Flags: HMW
AnchorPoint: "Anchor-5" 507 853 basechar 0
AnchorPoint: "Anchor-3" 805 -736 basechar 0
LayerCount: 2
Fore
SplineSet
1260 -502 m 1
 1312 -642 l 1
 1159 -699 1000 -736 805 -736 c 0
 480 -736 101 -597 101 -226 c 0
 101 211 586 394 1054 528 c 1
 605 686 l 18
 567 698 534 703 507 703 c 0
 391 703 324 628 303 440 c 1
 154 456 l 1
 178 672 285 853 507 853 c 0
 554 853 601 847 653 828 c 10
 1289 599 l 1
 1289 439 l 1
 1204.14446869 417.786117171 1121.21759707 395.636887083 1041.57630164 372.132609358 c 1
 1126.00094218 245.962542897 1204.69050269 150.000000019 1398 150 c 1
 1398 0 l 1
 1139.90428523 0 994.153342256 150.707920202 893.271844232 325.301839038 c 1
 520.760110462 198.918042649 251 32.3695879378 251 -226 c 0
 251 -461 496 -586 805 -586 c 0
 982 -586 1119 -555 1260 -502 c 1
EndSplineSet
Colour: ffff
EndChar

StartChar: uniFEA3
Encoding: 65187 65187 111
Width: 1366
VWidth: 1854
Flags: HMW
AnchorPoint: "Anchor-5" 431 852 basechar 0
AnchorPoint: "Anchor-3" 708 0 basechar 0
LayerCount: 2
Fore
SplineSet
101 443 m 1
 131 626 209 852 436 852 c 0
 496 852 561 835 631 802 c 2
 1232 512 l 1
 1232 354 l 1
 1093 325 989 286 879 221 c 0
 691 109 440 0 0 0 c 0
 -41 0 -75 34 -75 75 c 0
 -75 116 -41 150 0 150 c 0
 416 150 619 240 801 349 c 0
 867 389 938 424 1014 451 c 1
 565 667 l 2
 510 694 468 702 436 702 c 0
 341 702 279 605 249 419 c 1
 101 443 l 1
EndSplineSet
Colour: ffff
EndChar

StartChar: uniFEA4
Encoding: 65188 65188 112
Width: 1366
VWidth: 1854
Flags: HMW
AnchorPoint: "Anchor-5" 480 852 basechar 0
AnchorPoint: "Anchor-3" 708 0 basechar 0
LayerCount: 2
Fore
SplineSet
914 241 m 1
 703 112 467 0 0 0 c 0
 -41 0 -75 34 -75 75 c 0
 -75 116 -41 150 0 150 c 0
 416 150 619 240 801 349 c 0
 867 388 937 423 1014 451 c 1
 565 667 l 2
 510 694 468 702 436 702 c 0
 341 702 279 605 249 419 c 1
 101 443 l 1
 131 626 209 852 436 852 c 0
 496 852 561 835 631 802 c 2
 1232 512 l 1
 1232 354 l 1
 1170 340 1109 325 1055 306 c 1
 1084 272 1116 240 1154 211 c 0
 1201 175 1262 150 1366 150 c 1
 1366 0 l 1
 1141 0 1009 111 914 241 c 1
EndSplineSet
Colour: ffff
EndChar

StartChar: uniFEAA
Encoding: 65194 65194 113
Width: 1180
VWidth: 1854
Flags: HMW
AnchorPoint: "Anchor-3" 421 0 basechar 0
AnchorPoint: "Anchor-5" 570 857 basechar 0
LayerCount: 2
Fore
SplineSet
1180 0 m 1
 1021 0 896 38 797 177 c 1
 723 53 575 0 429 0 c 0
 303 0 167 40 56 127 c 1
 148 245 l 1
 229 182 333 150 429 150 c 0
 589 150 690 228 690 336 c 0
 690 365 683 400 664 444 c 2
 501 827 l 1
 639 887 l 1
 838 420 l 2
 944 170 1003 150 1180 150 c 1
 1180 0 l 1
EndSplineSet
PairPos2: "'kern' Horizontal Kerning in Arabic lookup 2 per glyph data 3" uniFEDB dx=-300 dy=0 dh=-300 dv=0 dx=0 dy=0 dh=0 dv=0
PairPos2: "'kern' Horizontal Kerning in Arabic lookup 2 per glyph data 3" uniFB94 dx=-300 dy=0 dh=-300 dv=0 dx=0 dy=0 dh=0 dv=0
PairPos2: "'kern' Horizontal Kerning in Arabic lookup 2 per glyph data 3" uniFB90 dx=-300 dy=0 dh=-300 dv=0 dx=0 dy=0 dh=0 dv=0
PairPos2: "'kern' Horizontal Kerning in Arabic lookup 2 per glyph data 3" uni06AF dx=-300 dy=0 dh=-300 dv=0 dx=0 dy=0 dh=0 dv=0
PairPos2: "'kern' Horizontal Kerning in Arabic lookup 2 per glyph data 3" uni06A9 dx=-300 dy=0 dh=-300 dv=0 dx=0 dy=0 dh=0 dv=0
PairPos2: "'kern' Horizontal Kerning in Arabic lookup 2 per glyph data 1" uni063A dx=-250 dy=0 dh=-250 dv=0 dx=0 dy=0 dh=0 dv=0
PairPos2: "'kern' Horizontal Kerning in Arabic lookup 2 per glyph data 1" uni0639 dx=-250 dy=0 dh=-250 dv=0 dx=0 dy=0 dh=0 dv=0
Colour: ffff
EndChar

StartChar: uniFEAE
Encoding: 65198 65198 114
Width: 960
VWidth: 1854
Flags: HMW
AnchorPoint: "Anchor-5" 556 571 basechar 0
AnchorPoint: "Anchor-3" 488 -402 basechar 0
LayerCount: 2
Fore
SplineSet
960 150 m 1
 960 0 l 1
 865 0 788 19 727 54 c 1
 700 -203 485 -403 176 -516 c 1
 124 -376 l 1
 420 -268 581 -98 581 131 c 0
 581 249 548 389 486 543 c 1
 626 599 l 1
 669 493 699 390 716 292 c 1
 755 191 802 150 960 150 c 1
EndSplineSet
PairPos2: "'kern' Horizontal Kerning in Arabic lookup 2 per glyph data 7" uniE017 dx=-325 dy=0 dh=-325 dv=0 dx=0 dy=0 dh=0 dv=0
PairPos2: "'kern' Horizontal Kerning in Arabic lookup 2 per glyph data 7" uniE015 dx=-250 dy=0 dh=-250 dv=0 dx=0 dy=0 dh=0 dv=0
PairPos2: "'kern' Horizontal Kerning in Arabic lookup 2 per glyph data 7" uniE012 dx=-150 dy=0 dh=-150 dv=0 dx=0 dy=0 dh=0 dv=0
PairPos2: "'kern' Horizontal Kerning in Arabic lookup 2 per glyph data 7" uni06D5 dx=-250 dy=0 dh=-250 dv=0 dx=0 dy=0 dh=0 dv=0
PairPos2: "'kern' Horizontal Kerning in Arabic lookup 2 per glyph data 7" uni06CE dx=-100 dy=0 dh=-100 dv=0 dx=0 dy=0 dh=0 dv=0
PairPos2: "'kern' Horizontal Kerning in Arabic lookup 2 per glyph data 7" uni06C6 dx=-150 dy=0 dh=-150 dv=0 dx=0 dy=0 dh=0 dv=0
PairPos2: "'kern' Horizontal Kerning in Arabic lookup 2 per glyph data 7" uni06BE dx=-250 dy=0 dh=-250 dv=0 dx=0 dy=0 dh=0 dv=0
PairPos2: "'kern' Horizontal Kerning in Arabic lookup 2 per glyph data 7" uni06BA dx=-150 dy=0 dh=-150 dv=0 dx=0 dy=0 dh=0 dv=0
PairPos2: "'kern' Horizontal Kerning in Arabic lookup 2 per glyph data 7" uni06B5 dx=-112 dy=0 dh=-112 dv=0 dx=0 dy=0 dh=0 dv=0
PairPos2: "'kern' Horizontal Kerning in Arabic lookup 2 per glyph data 7" uniFB6C dx=-250 dy=0 dh=-250 dv=0 dx=0 dy=0 dh=0 dv=0
PairPos2: "'kern' Horizontal Kerning in Arabic lookup 2 per glyph data 7" uni06A4 dx=-250 dy=0 dh=-250 dv=0 dx=0 dy=0 dh=0 dv=0
PairPos2: "'kern' Horizontal Kerning in Arabic lookup 2 per glyph data 7" uni0695 dx=-150 dy=0 dh=-150 dv=0 dx=0 dy=0 dh=0 dv=0
PairPos2: "'kern' Horizontal Kerning in Arabic lookup 2 per glyph data 7" uniFBE8 dx=-225 dy=0 dh=-225 dv=0 dx=0 dy=0 dh=0 dv=0
PairPos2: "'kern' Horizontal Kerning in Arabic lookup 2 per glyph data 4" parenleft dx=-300 dy=0 dh=-300 dv=0 dx=0 dy=0 dh=0 dv=0
PairPos2: "'kern' Horizontal Kerning in Arabic lookup 2 per glyph data 4" less dx=-420 dy=0 dh=-420 dv=0 dx=0 dy=0 dh=0 dv=0
PairPos2: "'kern' Horizontal Kerning in Arabic lookup 2 per glyph data 4" guillemotleft dx=-420 dy=0 dh=-420 dv=0 dx=0 dy=0 dh=0 dv=0
PairPos2: "'kern' Horizontal Kerning in Arabic lookup 2 per glyph data 4" bracketleft dx=-300 dy=0 dh=-300 dv=0 dx=0 dy=0 dh=0 dv=0
PairPos2: "'kern' Horizontal Kerning in Arabic lookup 2 per glyph data 3" uniFEDB dx=-300 dy=0 dh=-300 dv=0 dx=0 dy=0 dh=0 dv=0
PairPos2: "'kern' Horizontal Kerning in Arabic lookup 2 per glyph data 3" uniFB94 dx=-300 dy=0 dh=-300 dv=0 dx=0 dy=0 dh=0 dv=0
PairPos2: "'kern' Horizontal Kerning in Arabic lookup 2 per glyph data 3" uniFB90 dx=-300 dy=0 dh=-300 dv=0 dx=0 dy=0 dh=0 dv=0
PairPos2: "'kern' Horizontal Kerning in Arabic lookup 2 per glyph data 3" uni06AF dx=-300 dy=0 dh=-300 dv=0 dx=0 dy=0 dh=0 dv=0
PairPos2: "'kern' Horizontal Kerning in Arabic lookup 2 per glyph data 3" uni06A9 dx=-300 dy=0 dh=-300 dv=0 dx=0 dy=0 dh=0 dv=0
PairPos2: "'kern' Horizontal Kerning in Arabic lookup 2 per glyph data 2" uni0621 dx=-200 dy=0 dh=-200 dv=0 dx=0 dy=0 dh=0 dv=0
PairPos2: "'kern' Horizontal Kerning in Arabic lookup 2 per glyph data 2" uni064A dx=-100 dy=0 dh=-100 dv=0 dx=0 dy=0 dh=0 dv=0
PairPos2: "'kern' Horizontal Kerning in Arabic lookup 2 per glyph data 2" uni0649 dx=-100 dy=0 dh=-100 dv=0 dx=0 dy=0 dh=0 dv=0
PairPos2: "'kern' Horizontal Kerning in Arabic lookup 2 per glyph data 2" uni06CC dx=-100 dy=0 dh=-100 dv=0 dx=0 dy=0 dh=0 dv=0
PairPos2: "'kern' Horizontal Kerning in Arabic lookup 2 per glyph data 2" uniFEFB dx=-325 dy=0 dh=-325 dv=0 dx=0 dy=0 dh=0 dv=0
PairPos2: "'kern' Horizontal Kerning in Arabic lookup 2 per glyph data 2" uniFEF9 dx=-325 dy=0 dh=-325 dv=0 dx=0 dy=0 dh=0 dv=0
PairPos2: "'kern' Horizontal Kerning in Arabic lookup 2 per glyph data 2" uniFEF7 dx=-325 dy=0 dh=-325 dv=0 dx=0 dy=0 dh=0 dv=0
PairPos2: "'kern' Horizontal Kerning in Arabic lookup 2 per glyph data 2" uniFEF5 dx=-325 dy=0 dh=-325 dv=0 dx=0 dy=0 dh=0 dv=0
PairPos2: "'kern' Horizontal Kerning in Arabic lookup 2 per glyph data 2" uniFEEB dx=-250 dy=0 dh=-250 dv=0 dx=0 dy=0 dh=0 dv=0
PairPos2: "'kern' Horizontal Kerning in Arabic lookup 2 per glyph data 2" uniFEE7 dx=-225 dy=0 dh=-225 dv=0 dx=0 dy=0 dh=0 dv=0
PairPos2: "'kern' Horizontal Kerning in Arabic lookup 2 per glyph data 2" uniFEE3 dx=-250 dy=0 dh=-250 dv=0 dx=0 dy=0 dh=0 dv=0
PairPos2: "'kern' Horizontal Kerning in Arabic lookup 2 per glyph data 2" uniFEDF dx=-250 dy=0 dh=-250 dv=0 dx=0 dy=0 dh=0 dv=0
PairPos2: "'kern' Horizontal Kerning in Arabic lookup 2 per glyph data 2" uniFEDB dx=-400 dy=0 dh=-400 dv=0 dx=0 dy=0 dh=0 dv=0
PairPos2: "'kern' Horizontal Kerning in Arabic lookup 2 per glyph data 2" uniFED7 dx=-250 dy=0 dh=-250 dv=0 dx=0 dy=0 dh=0 dv=0
PairPos2: "'kern' Horizontal Kerning in Arabic lookup 2 per glyph data 2" uniFED3 dx=-250 dy=0 dh=-250 dv=0 dx=0 dy=0 dh=0 dv=0
PairPos2: "'kern' Horizontal Kerning in Arabic lookup 2 per glyph data 2" uniFECF dx=-300 dy=0 dh=-300 dv=0 dx=0 dy=0 dh=0 dv=0
PairPos2: "'kern' Horizontal Kerning in Arabic lookup 2 per glyph data 2" uniFECB dx=-300 dy=0 dh=-300 dv=0 dx=0 dy=0 dh=0 dv=0
PairPos2: "'kern' Horizontal Kerning in Arabic lookup 2 per glyph data 2" uniFEC7 dx=-300 dy=0 dh=-300 dv=0 dx=0 dy=0 dh=0 dv=0
PairPos2: "'kern' Horizontal Kerning in Arabic lookup 2 per glyph data 2" uniFEC3 dx=-300 dy=0 dh=-300 dv=0 dx=0 dy=0 dh=0 dv=0
PairPos2: "'kern' Horizontal Kerning in Arabic lookup 2 per glyph data 2" uniFEBF dx=-300 dy=0 dh=-300 dv=0 dx=0 dy=0 dh=0 dv=0
PairPos2: "'kern' Horizontal Kerning in Arabic lookup 2 per glyph data 2" uniFEBB dx=-300 dy=0 dh=-300 dv=0 dx=0 dy=0 dh=0 dv=0
PairPos2: "'kern' Horizontal Kerning in Arabic lookup 2 per glyph data 2" uniFEB7 dx=-200 dy=0 dh=-200 dv=0 dx=0 dy=0 dh=0 dv=0
PairPos2: "'kern' Horizontal Kerning in Arabic lookup 2 per glyph data 2" uniFEB3 dx=-200 dy=0 dh=-200 dv=0 dx=0 dy=0 dh=0 dv=0
PairPos2: "'kern' Horizontal Kerning in Arabic lookup 2 per glyph data 2" uniFEA7 dx=-250 dy=0 dh=-250 dv=0 dx=0 dy=0 dh=0 dv=0
PairPos2: "'kern' Horizontal Kerning in Arabic lookup 2 per glyph data 2" uniFEA3 dx=-250 dy=0 dh=-250 dv=0 dx=0 dy=0 dh=0 dv=0
PairPos2: "'kern' Horizontal Kerning in Arabic lookup 2 per glyph data 2" uniFE9F dx=-250 dy=0 dh=-250 dv=0 dx=0 dy=0 dh=0 dv=0
PairPos2: "'kern' Horizontal Kerning in Arabic lookup 2 per glyph data 2" uniFE9B dx=-225 dy=0 dh=-225 dv=0 dx=0 dy=0 dh=0 dv=0
PairPos2: "'kern' Horizontal Kerning in Arabic lookup 2 per glyph data 2" uniFE97 dx=-225 dy=0 dh=-225 dv=0 dx=0 dy=0 dh=0 dv=0
PairPos2: "'kern' Horizontal Kerning in Arabic lookup 2 per glyph data 2" uniFE91 dx=-225 dy=0 dh=-225 dv=0 dx=0 dy=0 dh=0 dv=0
PairPos2: "'kern' Horizontal Kerning in Arabic lookup 2 per glyph data 2" uniFE8B dx=-225 dy=0 dh=-225 dv=0 dx=0 dy=0 dh=0 dv=0
PairPos2: "'kern' Horizontal Kerning in Arabic lookup 2 per glyph data 2" uniFB94 dx=-400 dy=0 dh=-400 dv=0 dx=0 dy=0 dh=0 dv=0
PairPos2: "'kern' Horizontal Kerning in Arabic lookup 2 per glyph data 2" uniFB90 dx=-400 dy=0 dh=-400 dv=0 dx=0 dy=0 dh=0 dv=0
PairPos2: "'kern' Horizontal Kerning in Arabic lookup 2 per glyph data 2" uniFB7C dx=-250 dy=0 dh=-250 dv=0 dx=0 dy=0 dh=0 dv=0
PairPos2: "'kern' Horizontal Kerning in Arabic lookup 2 per glyph data 2" uni06CA dx=-150 dy=0 dh=-150 dv=0 dx=0 dy=0 dh=0 dv=0
PairPos2: "'kern' Horizontal Kerning in Arabic lookup 2 per glyph data 2" uni06C0 dx=-250 dy=0 dh=-250 dv=0 dx=0 dy=0 dh=0 dv=0
PairPos2: "'kern' Horizontal Kerning in Arabic lookup 2 per glyph data 2" uni06AF dx=-400 dy=0 dh=-400 dv=0 dx=0 dy=0 dh=0 dv=0
PairPos2: "'kern' Horizontal Kerning in Arabic lookup 2 per glyph data 2" uni06A9 dx=-400 dy=0 dh=-400 dv=0 dx=0 dy=0 dh=0 dv=0
PairPos2: "'kern' Horizontal Kerning in Arabic lookup 2 per glyph data 2" uni0698 dx=-150 dy=0 dh=-150 dv=0 dx=0 dy=0 dh=0 dv=0
PairPos2: "'kern' Horizontal Kerning in Arabic lookup 2 per glyph data 2" uni0686 dx=-125 dy=0 dh=-125 dv=0 dx=0 dy=0 dh=0 dv=0
PairPos2: "'kern' Horizontal Kerning in Arabic lookup 2 per glyph data 2" uni067E dx=-250 dy=0 dh=-250 dv=0 dx=0 dy=0 dh=0 dv=0
PairPos2: "'kern' Horizontal Kerning in Arabic lookup 2 per glyph data 2" uni0648 dx=-150 dy=0 dh=-150 dv=0 dx=0 dy=0 dh=0 dv=0
PairPos2: "'kern' Horizontal Kerning in Arabic lookup 2 per glyph data 2" uni0647 dx=-250 dy=0 dh=-250 dv=0 dx=0 dy=0 dh=0 dv=0
PairPos2: "'kern' Horizontal Kerning in Arabic lookup 2 per glyph data 2" uni0646 dx=-150 dy=0 dh=-150 dv=0 dx=0 dy=0 dh=0 dv=0
PairPos2: "'kern' Horizontal Kerning in Arabic lookup 2 per glyph data 2" uni0645 dx=-250 dy=0 dh=-250 dv=0 dx=0 dy=0 dh=0 dv=0
PairPos2: "'kern' Horizontal Kerning in Arabic lookup 2 per glyph data 2" uni0644 dx=-112 dy=0 dh=-112 dv=0 dx=0 dy=0 dh=0 dv=0
PairPos2: "'kern' Horizontal Kerning in Arabic lookup 2 per glyph data 2" uni0643 dx=-300 dy=0 dh=-300 dv=0 dx=0 dy=0 dh=0 dv=0
PairPos2: "'kern' Horizontal Kerning in Arabic lookup 2 per glyph data 2" uni0642 dx=-150 dy=0 dh=-150 dv=0 dx=0 dy=0 dh=0 dv=0
PairPos2: "'kern' Horizontal Kerning in Arabic lookup 2 per glyph data 2" uni0641 dx=-250 dy=0 dh=-250 dv=0 dx=0 dy=0 dh=0 dv=0
PairPos2: "'kern' Horizontal Kerning in Arabic lookup 2 per glyph data 2" uni0638 dx=-300 dy=0 dh=-300 dv=0 dx=0 dy=0 dh=0 dv=0
PairPos2: "'kern' Horizontal Kerning in Arabic lookup 2 per glyph data 2" uni0637 dx=-300 dy=0 dh=-300 dv=0 dx=0 dy=0 dh=0 dv=0
PairPos2: "'kern' Horizontal Kerning in Arabic lookup 2 per glyph data 2" uni0636 dx=-300 dy=0 dh=-300 dv=0 dx=0 dy=0 dh=0 dv=0
PairPos2: "'kern' Horizontal Kerning in Arabic lookup 2 per glyph data 2" uni0635 dx=-300 dy=0 dh=-300 dv=0 dx=0 dy=0 dh=0 dv=0
PairPos2: "'kern' Horizontal Kerning in Arabic lookup 2 per glyph data 2" uni0634 dx=-200 dy=0 dh=-200 dv=0 dx=0 dy=0 dh=0 dv=0
PairPos2: "'kern' Horizontal Kerning in Arabic lookup 2 per glyph data 2" uni0633 dx=-200 dy=0 dh=-200 dv=0 dx=0 dy=0 dh=0 dv=0
PairPos2: "'kern' Horizontal Kerning in Arabic lookup 2 per glyph data 2" uni0632 dx=-150 dy=0 dh=-150 dv=0 dx=0 dy=0 dh=0 dv=0
PairPos2: "'kern' Horizontal Kerning in Arabic lookup 2 per glyph data 2" uni0631 dx=-150 dy=0 dh=-150 dv=0 dx=0 dy=0 dh=0 dv=0
PairPos2: "'kern' Horizontal Kerning in Arabic lookup 2 per glyph data 2" uni0630 dx=-250 dy=0 dh=-250 dv=0 dx=0 dy=0 dh=0 dv=0
PairPos2: "'kern' Horizontal Kerning in Arabic lookup 2 per glyph data 2" uni062F dx=-250 dy=0 dh=-250 dv=0 dx=0 dy=0 dh=0 dv=0
PairPos2: "'kern' Horizontal Kerning in Arabic lookup 2 per glyph data 2" uni062E dx=-125 dy=0 dh=-125 dv=0 dx=0 dy=0 dh=0 dv=0
PairPos2: "'kern' Horizontal Kerning in Arabic lookup 2 per glyph data 2" uni062D dx=-125 dy=0 dh=-125 dv=0 dx=0 dy=0 dh=0 dv=0
PairPos2: "'kern' Horizontal Kerning in Arabic lookup 2 per glyph data 2" uni062C dx=-125 dy=0 dh=-125 dv=0 dx=0 dy=0 dh=0 dv=0
PairPos2: "'kern' Horizontal Kerning in Arabic lookup 2 per glyph data 2" uni062B dx=-250 dy=0 dh=-250 dv=0 dx=0 dy=0 dh=0 dv=0
PairPos2: "'kern' Horizontal Kerning in Arabic lookup 2 per glyph data 2" uni062A dx=-250 dy=0 dh=-250 dv=0 dx=0 dy=0 dh=0 dv=0
PairPos2: "'kern' Horizontal Kerning in Arabic lookup 2 per glyph data 2" uni0629 dx=-250 dy=0 dh=-250 dv=0 dx=0 dy=0 dh=0 dv=0
PairPos2: "'kern' Horizontal Kerning in Arabic lookup 2 per glyph data 2" uni0628 dx=-250 dy=0 dh=-250 dv=0 dx=0 dy=0 dh=0 dv=0
PairPos2: "'kern' Horizontal Kerning in Arabic lookup 2 per glyph data 2" uni0627 dx=-250 dy=0 dh=-250 dv=0 dx=0 dy=0 dh=0 dv=0
PairPos2: "'kern' Horizontal Kerning in Arabic lookup 2 per glyph data 2" uni0624 dx=-150 dy=0 dh=-150 dv=0 dx=0 dy=0 dh=0 dv=0
PairPos2: "'kern' Horizontal Kerning in Arabic lookup 2 per glyph data 2" uni0623 dx=-250 dy=0 dh=-250 dv=0 dx=0 dy=0 dh=0 dv=0
PairPos2: "'kern' Horizontal Kerning in Arabic lookup 2 per glyph data 2" uni0622 dx=-250 dy=0 dh=-250 dv=0 dx=0 dy=0 dh=0 dv=0
PairPos2: "'kern' Horizontal Kerning in Arabic lookup 2 per glyph data 2" uniFB58 dx=-100 dy=0 dh=-100 dv=0 dx=0 dy=0 dh=0 dv=0
PairPos2: "'kern' Horizontal Kerning in Arabic lookup 2 per glyph data 2" uniFEF3 dx=-100 dy=0 dh=-100 dv=0 dx=0 dy=0 dh=0 dv=0
PairPos2: "'kern' Horizontal Kerning in Arabic lookup 2 per glyph data 2" uniFBFE dx=-100 dy=0 dh=-100 dv=0 dx=0 dy=0 dh=0 dv=0
PairPos2: "'kern' Horizontal Kerning in Arabic lookup 2 per glyph data 1" uni063A dx=-200 dy=0 dh=-200 dv=0 dx=0 dy=0 dh=0 dv=0
PairPos2: "'kern' Horizontal Kerning in Arabic lookup 2 per glyph data 1" uni0639 dx=-200 dy=0 dh=-200 dv=0 dx=0 dy=0 dh=0 dv=0
Colour: ffff
EndChar

StartChar: uniFEB2
Encoding: 65202 65202 115
Width: 2684
VWidth: 1854
Flags: HMW
AnchorPoint: "Anchor-5" 1768 594 basechar 0
AnchorPoint: "Anchor-3" 719 -502 basechar 0
LayerCount: 2
Fore
SplineSet
2297 720 m 25
 2345 486 l 2
 2394 246 2414 150 2684 150 c 9
 2684 0 l 17
 2483 0 2367 62 2299 162 c 1
 2254 68 2169 0 2033 0 c 0
 1940 0 1840 39 1778 123 c 1
 1724 46 1645 0 1543 0 c 0
 1486 0 1433 15 1387 42 c 1
 1368 -328 1034 -501 719 -501 c 0
 409 -501 103 -335 103 11 c 0
 103 185 190 389 385 619 c 9
 499 523 l 1
 316 308 253 135 253 11 c 0
 253 -221 451 -351 719 -351 c 0
 1001 -351 1238 -206 1238 74 c 0
 1238 141 1225 216 1191 305 c 2
 1099 544 l 25
 1239 598 l 25
 1330 358 l 2
 1391 195 1462 150 1543 150 c 0
 1625 150 1684 198 1710 360 c 2
 1746 586 l 25
 1894 562 l 25
 1867 394 l 2
 1865 375 1865 357 1865 337 c 0
 1865 191 1948 150 2033 150 c 0
 2152 150 2194 229 2194 385 c 0
 2194 436 2190 488 2182 536 c 2
 2151 690 l 25
 2297 720 l 25
EndSplineSet
Colour: ffff
EndChar

StartChar: uniFEB3
Encoding: 65203 65203 116
Width: 1538
VWidth: 2374
Flags: HMW
AnchorPoint: "Anchor-5" 880 594 basechar 0
AnchorPoint: "Anchor-3" 881 0 basechar 0
LayerCount: 2
Back
SplineSet
1306 706 m 1
 1344 461 l 2
 1351 419 1353 383 1353 350 c 0
 1353 175 1268 75 1116 75 c 0
 924 75 849.03103855 275.994537215 883 469 c 2
 905 594 l 1
 883 469 l 2
 852.59765625 297.071289062 808 75 620 75 c 0
 452 75 402.770507812 281.970703125 380 463 c 2
 364 594 l 1
 380 463 l 2
 406.340820312 265.447265625 281.860023333 75 0 75 c 1025
EndSplineSet
Fore
SplineSet
0 150 m 0
 122 150 199 173 245 228 c 0
 293 285 309 378 309 517 c 2
 309 594 l 1
 459 594 l 1
 459 541 459 488 459 435 c 0
 459 330 483 245 521 200 c 0
 548 168 579 150 632 150 c 0
 685 150 716 168 743 200 c 0
 781 245 805 330 805 435 c 2
 805 594 l 1
 955 594 l 1
 955 435 l 2
 955 330 979 245 1017 200 c 0
 1044 168 1075 150 1128 150 c 0
 1185 150 1225 172 1250 208 c 0
 1274 242 1285 289 1285 343 c 0
 1285 365 1283 389 1279 416 c 2
 1236 695 l 1
 1384 717 l 1
 1427 438 l 2
 1431 407 1435 376 1435 343 c 0
 1435 251 1408 167 1358 106 c 0
 1305 41 1227 0 1128 0 c 0
 1018 0 931 56 880 133 c 1
 829 56 742 0 632 0 c 0
 510 0 419 68 369 157 c 1
 297 57 179 0 0 0 c 0
 -41 0 -74 34 -74 75 c 0
 -74 116 -41 150 0 150 c 0
EndSplineSet
Colour: ffff
EndChar

StartChar: uniFEB4
Encoding: 65204 65204 117
Width: 1735
VWidth: 2374
Flags: HMW
AnchorPoint: "Anchor-3" 881 0 basechar 0
AnchorPoint: "Anchor-5" 880 594 basechar 0
LayerCount: 2
Back
SplineSet
1731 75 m 16
 1594 75 1500 107 1440 173 c 0
 1397 220 1368 305 1344 461 c 2
 1306 706 l 1
 1344 461 l 2
 1351 419 1353 383 1353 350 c 0
 1353 175 1268 75 1116 75 c 0
 924 75 849.03103855 275.994537215 883 469 c 2
 905 594 l 1
 883 469 l 2
 852.59765625 297.071289062 808 75 620 75 c 0
 452 75 402.770507812 281.970703125 380 463 c 2
 364 594 l 1
 380 463 l 2
 406.340820312 265.447265625 281.860023333 75 0 75 c 1025
EndSplineSet
Fore
SplineSet
632 150 m 0
 693 150 733 177 760 220 c 0
 794 275 805 355 805 435 c 2
 805 594 l 1
 955 594 l 25
 955 435 l 2
 955 339 976 249 1017 200 c 0
 1044 168 1075 150 1128 150 c 0
 1187 150 1227 173 1252 210 c 0
 1274 244 1284 290 1284 343 c 0
 1284 389 1275 444 1268 486 c 2
 1236 695 l 1
 1384 717 l 25
 1407 567 l 2
 1428 425 1453 266 1531 202 c 0
 1572 168 1635 150 1735 150 c 1
 1735 0 l 1
 1583 0 1459 44 1383 140 c 1
 1333 56 1243 0 1128 0 c 0
 1018 0 931 56 880 133 c 1
 829 55 742 0 632 0 c 0
 510 0 419 68 369 157 c 1
 297 57 179 0 0 0 c 0
 -41 0 -74 34 -74 75 c 0
 -74 116 -41 150 0 150 c 0
 122 150 199 173 245 228 c 0
 293 285 309 378 309 517 c 2
 309 594 l 1
 459 594 l 1
 459 541 459 488 459 435 c 0
 459 330 483 245 521 200 c 0
 548 168 579 150 632 150 c 0
EndSplineSet
Colour: ffff
EndChar

StartChar: uniFEBA
Encoding: 65210 65210 118
Width: 2486
VWidth: 1854
Flags: HMW
AnchorPoint: "Anchor-5" 1934 729 basechar 0
AnchorPoint: "Anchor-3" 719 -502 basechar 0
LayerCount: 2
Fore
SplineSet
1484 188 m 1
 1564 163 1654 150 1741 150 c 0
 1983 150 2138 242 2138 367 c 0
 2138 478 2060 549 1934 549 c 0
 1809 549 1632 466 1484 188 c 1
1099 544 m 1
 1239 598 l 1
 1329 365 l 2
 1341 334 1352 303 1360 273 c 1
 1524 570 1742 699 1934 699 c 0
 2125 699 2288 570 2288 367 c 0
 2288 310 2275 261 2252 219 c 1
 2287 179 2350 150 2486 150 c 1
 2486 0 l 1
 2332 0 2222 38 2151 109 c 1
 2041 32 1883 0 1741 0 c 0
 1621 0 1495 23 1389 63 c 1
 1383 -322 1042 -501 720 -501 c 0
 411 -501 104 -335 104 11 c 0
 104 185 190 389 386 620 c 1
 500 522 l 1
 317 307 254 135 254 11 c 0
 254 -221 451 -351 720 -351 c 0
 1001 -351 1239 -206 1239 74 c 0
 1239 142 1224 220 1189 311 c 2
 1099 544 l 1
EndSplineSet
Colour: ffff
EndChar

StartChar: uniFEBB
Encoding: 65211 65211 119
Width: 1612
VWidth: 1854
Flags: HMW
AnchorPoint: "Anchor-5" 1167 769 basechar 0
AnchorPoint: "Anchor-3" 821 0 basechar 0
LayerCount: 2
Fore
SplineSet
0 150 m 0
 123 150 192 178 232 219 c 0
 280 267 307 357 309 502 c 2
 309 594 l 1
 459 594 l 1
 459 519 459 444 459 369 c 0
 459 292 477 251 503 224 c 1
 695 593 952 740 1157 740 c 0
 1322 740 1487 631 1487 434 c 0
 1487 145 1100 0 829 0 c 0
 621 0 457 30 371 151 c 1
 295 47 166 0 0 0 c 0
 -41 0 -74 34 -74 75 c 0
 -74 116 -41 150 0 150 c 0
640 163 m 1
 691 154 755 150 829 150 c 0
 1088 150 1337 301 1337 434 c 0
 1337 531 1264 590 1157 590 c 0
 1027 590 814 493 640 163 c 1
EndSplineSet
Colour: ffff
EndChar

StartChar: uniFEBC
Encoding: 65212 65212 120
Width: 1635
VWidth: 1854
Flags: HMW
AnchorPoint: "Anchor-3" 821 0 basechar 0
AnchorPoint: "Anchor-5" 1167 769 basechar 0
LayerCount: 2
Fore
SplineSet
0 150 m 0
 258 150 309 270 309 517 c 2
 309 594 l 1
 459 594 l 1
 459 369 l 0
 459 301 477 252 503 224 c 1
 695 593 952 740 1157 740 c 0
 1322 740 1487 631 1487 434 c 0
 1487 350 1455 279 1402 219 c 1
 1445 172 1513 150 1635 150 c 1
 1635 0 l 1
 1484 0 1364 40 1287 125 c 1
 1153 42 974 0 829 0 c 0
 621 0 458 29 370 150 c 1
 294 46 165 0 0 0 c 0
 -41 0 -74 34 -74 75 c 0
 -74 116 -41 150 0 150 c 0
640 163 m 1
 691 154 755 150 829 150 c 0
 1088 150 1337 301 1337 434 c 0
 1337 531 1264 590 1157 590 c 0
 1027 590 814 493 640 163 c 1
EndSplineSet
Colour: ffff
EndChar

StartChar: uniFEC2
Encoding: 65218 65218 121
Width: 1538
VWidth: 1854
Flags: HMW
AnchorPoint: "Anchor-3" 768 0 basechar 0
AnchorPoint: "Anchor-5" 1088 764 basechar 0
LayerCount: 2
Fore
SplineSet
554 151 m 1
 1181 162 1240 294 1240 434 c 0
 1240 531 1167 590 1060 590 c 0
 932 590 680 477 554 151 c 1
403 150 m 1
 403 1211 l 1
 553 1211 l 1
 553 454 l 1
 708 653 911 740 1060 740 c 0
 1225 740 1390 631 1390 434 c 0
 1390 346 1368 270 1316 208 c 1
 1359 170 1426 150 1538 150 c 1
 1538 0 l 1
 1394 0 1277 32 1198 115 c 1
 1057 40 828 0 478 0 c 2
 105 0 l 1
 105 150 l 1
 403 150 l 1
EndSplineSet
Colour: ffff
EndChar

StartChar: uniFEC3
Encoding: 65219 65219 122
Width: 1317
VWidth: 1854
Flags: HMW
AnchorPoint: "Anchor-3" 548 0 basechar 0
AnchorPoint: "Anchor-5" 868 764 basechar 0
LayerCount: 2
Fore
SplineSet
0 150 m 0
 183 150 l 1
 183 1211 l 1
 333 1211 l 1
 333 454 l 1
 487 653 691 740 840 740 c 0
 1005 740 1170 631 1170 434 c 0
 1170 156 951 0 258 0 c 2
 0 0 l 0
 -41 0 -74 34 -74 75 c 0
 -74 116 -41 150 0 150 c 0
334 151 m 1
 961 162 1020 294 1020 434 c 0
 1020 531 947 590 840 590 c 0
 712 590 459 477 334 151 c 1
EndSplineSet
Colour: ffff
EndChar

StartChar: uniFEC4
Encoding: 65220 65220 123
Width: 1318
VWidth: 1854
Flags: HMW
AnchorPoint: "Anchor-5" 868 764 basechar 0
AnchorPoint: "Anchor-3" 548 0 basechar 0
LayerCount: 2
Fore
SplineSet
0 150 m 0
 183 151 l 1
 183 1211 l 1
 333 1211 l 1
 333 453 l 1
 488 652 690 740 840 740 c 0
 1005 740 1170 631 1170 434 c 0
 1170 346 1148 270 1096 208 c 1
 1139 170 1206 150 1318 150 c 1
 1318 0 l 1
 1174 0 1057 32 978 115 c 1
 837 40 608 0 258 0 c 2
 0 0 l 0
 -41 0 -74 34 -74 75 c 0
 -74 116 -41 150 0 150 c 0
334 151 m 1
 961 162 1020 294 1020 434 c 0
 1020 531 947 590 840 590 c 0
 728 590 519 502 385 259 c 0
 367 226 349 190 334 151 c 1
EndSplineSet
Colour: ffff
EndChar

StartChar: uniFECA
Encoding: 65226 65226 124
Width: 1144
VWidth: 2374
Flags: HMW
AnchorPoint: "Anchor-5" 622 761 basechar 0
AnchorPoint: "Anchor-3" 688 -739 basechar 0
LayerCount: 2
Fore
SplineSet
847 472 m 0
 847 530 754 611 596 611 c 0
 485 611 370 581 305 542 c 1
 304 538 l 1
 403 441 512 343 643 268 c 1
 765 327 847 396 847 472 c 0
997 473 m 0
 997 339 899 262 807 198 c 1
 904 168 1015 150 1144 150 c 1
 1144 0 l 1
 943 0 777 34 638 101 c 1
 436 12 240 -109 240 -301 c 0
 240 -448 434 -590 722 -590 c 0
 822 -590 929 -572 1030 -534 c 1
 1083 -674 l 1
 963 -719 840 -740 722 -740 c 0
 405 -740 90 -582 90 -303 c 0
 90 -49 296 102 479 193 c 1
 349 282 247 380 152 478 c 1
 158 620 l 1
 265 704 417 761 593 761 c 0
 788 761 997 663 997 473 c 0
EndSplineSet
Colour: ffff
EndChar

StartChar: uniFECB
Encoding: 65227 65227 125
Width: 1083
VWidth: 1854
Flags: HMW
AnchorPoint: "Anchor-3" 468 0 basechar 0
AnchorPoint: "Anchor-5" 527 843 basechar 0
LayerCount: 2
Fore
SplineSet
0 150 m 0
 87 150 171 155 252 164 c 1
 178 220 128 306 128 411 c 0
 128 671 320 843 527 843 c 0
 682 843 795 769 862 689 c 1
 746 593 l 1
 703 645 632 693 527 693 c 0
 404 693 278 593 278 411 c 0
 278 319 342 257 462 233 c 0
 491 227 528 223 564 223 c 0
 583 223 601 224 618 227 c 2
 891 279 l 1
 919 131 l 1
 452 42 l 2
 308 15 161 0 0 0 c 0
 -41 0 -74 34 -74 75 c 0
 -74 116 -41 150 0 150 c 0
EndSplineSet
Colour: ffff
EndChar

StartChar: uniFECC
Encoding: 65228 65228 126
Width: 996
VWidth: 1853
Flags: HMW
AnchorPoint: "Anchor-5" 519 762 basechar 0
AnchorPoint: "Anchor-3" 488 0 basechar 0
LayerCount: 2
Fore
SplineSet
0 150 m 0
 132 150 262 162 375 186 c 1
 259 261 159 350 63 442 c 1
 63 577 l 1
 164 695 334 761 519 761 c 0
 695 761 907 666 907 439 c 0
 907 329 843 240 757 178 c 1
 830 160 909 150 996 150 c 1
 996 0 l 1
 834 0 690 32 568 83 c 1
 407 27 206 0 0 0 c 0
 -41 0 -74 34 -74 75 c 0
 -74 116 -41 150 0 150 c 0
213 507 m 1
 325 404 437 312 572 246 c 1
 684 302 757 364 757 439 c 0
 757 546 661 611 519 611 c 0
 400 611 273 569 213 518 c 1
 213 507 l 1
EndSplineSet
Colour: ffff
EndChar

StartChar: uniFEDB
Encoding: 65243 65243 127
Width: 999
VWidth: 1854
Flags: HMW
AnchorPoint: "Anchor-5" 455 1258 basechar 0
AnchorPoint: "Anchor-3" 355 0 basechar 0
LayerCount: 2
Fore
SplineSet
0 150 m 0
 92 150 l 2
 366 150 469 173 469 298 c 0
 469 425 258 690 50 847 c 2
 20 870 l 1
 20 1034 l 1
 55 1056 l 2
 289 1206 563 1313 834 1369 c 1
 864 1223 l 1
 624 1174 379 1078 170 951 c 1
 170 944 l 1
 379 778 619 518 619 298 c 0
 619 11 326 0 92 0 c 2
 0 0 l 0
 -41 0 -74 34 -74 75 c 0
 -74 116 -41 150 0 150 c 0
EndSplineSet
MultipleSubs2: "Multiple substitution 0 subtable" uniFEDB uniE000 uniE000
Colour: ffff
EndChar

StartChar: uniFEDC
Encoding: 65244 65244 128
Width: 900
VWidth: 1854
Flags: HMW
AnchorPoint: "Anchor-5" 455 1258 basechar 0
AnchorPoint: "Anchor-3" 355 0 basechar 0
LayerCount: 2
Fore
SplineSet
0 150 m 0
 92 150 l 2
 366 150 469 173 469 298 c 0
 469 425 258 690 50 847 c 2
 20 870 l 1
 20 1034 l 1
 55 1056 l 2
 289 1206 563 1313 834 1369 c 1
 864 1223 l 1
 624 1174 379 1078 170 951 c 1
 170 944 l 1
 354 799 561 580 609 380 c 1
 664 229 704 150 900 150 c 1
 900 0 l 1
 740 0 640 56 573 135 c 1
 481 7 270 0 92 0 c 2
 0 0 l 0
 -41 0 -74 34 -74 75 c 0
 -74 116 -41 150 0 150 c 0
EndSplineSet
MultipleSubs2: "Multiple substitution 0 subtable" uniFEDC uniE000 uniE000
Colour: ffff
EndChar

StartChar: uniFEDE
Encoding: 65246 65246 129
Width: 1549
VWidth: 1854
Flags: HMW
AnchorPoint: "Anchor-3" 663 -502 basechar 0
AnchorPoint: "Anchor-5" 631 712 basechar 0
LayerCount: 2
Fore
SplineSet
1549 150 m 1
 1549 0 l 1
 1423 0 1318 26 1241 86 c 1
 1223 -315 940 -503 663 -503 c 0
 392 -503 103 -323 103 -5 c 0
 103 142 152 311 256 497 c 1
 387 425 l 1
 292 255 253 108 253 -5 c 0
 253 -215 446 -353 663 -353 c 0
 877 -353 1092 -220 1092 126 c 2
 1092 1211 l 1
 1242 1211 l 1
 1242 517 l 2
 1242 375 1265 284 1306 232 c 0
 1346 182 1413 150 1549 150 c 1
EndSplineSet
Colour: ffff
EndChar

StartChar: uniFEDF
Encoding: 65247 65247 130
Width: 596
VWidth: 1854
Flags: HMW
AnchorPoint: "Anchor-5" 346 1211 basechar 0
AnchorPoint: "Anchor-3" 242 0 basechar 0
LayerCount: 2
Fore
SplineSet
421 1211 m 25
 421 391 l 2
 421 273 392 183 336 119 c 0
 265 39 152 0 0 0 c 0
 -41 0 -75 34 -75 75 c 0
 -75 116 -41 150 0 150 c 0
 122 150 192 166 230 212 c 0
 261 249 271 306 271 391 c 2
 271 1211 l 25
 421 1211 l 25
EndSplineSet
Colour: ffff
EndChar

StartChar: uniFEE0
Encoding: 65248 65248 131
Width: 692
VWidth: 1854
Flags: HMW
AnchorPoint: "Anchor-3" 346 0 basechar 0
AnchorPoint: "Anchor-5" 346 1211 basechar 0
LayerCount: 2
Fore
SplineSet
0 150 m 0
 118 150 178 179 212 219 c 0
 256 273 271 366 271 474 c 2
 271 1211 l 25
 421 1211 l 25
 421 474 l 2
 421 365 436 273 480 219 c 0
 513 180 573 150 692 150 c 1
 692 0 l 1
 537 0 415 46 346 148 c 1
 277 46 155 0 0 0 c 0
 -41 0 -74 34 -74 75 c 0
 -74 116 -41 150 0 150 c 0
EndSplineSet
Colour: ffff
EndChar

StartChar: uniFEE2
Encoding: 65250 65250 132
Width: 1329
VWidth: 2374
Flags: HMW
AnchorPoint: "Anchor-3" 668 -50 basechar 0
AnchorPoint: "Anchor-5" 750 696 basechar 0
LayerCount: 2
Fore
SplineSet
522 214 m 1
 609 188 703 151 793 151 c 0
 890 151 944 175 944 302 c 0
 944 445 863 546 760 546 c 0
 618 546 541 387 522 214 c 1
1329 0 m 1
 1215 0 1121 32 1040 112 c 1
 981 32 886 1 793 1 c 0
 693 1 590 28 513 59 c 0
 467 77 445 85 401 85 c 0
 316 85 253 22 253 -99 c 2
 253 -783 l 1
 103 -783 l 1
 103 -99 l 2
 103 71 205 218 373 234 c 1
 395 417 486 696 760 696 c 0
 956 696 1071 529 1091 358 c 0
 1111 203 1183 150 1329 150 c 1
 1329 0 l 1
EndSplineSet
Colour: ffff
EndChar

StartChar: uniFEE3
Encoding: 65251 65251 133
Width: 1046
VWidth: 1854
Flags: HMW
AnchorPoint: "Anchor-5" 590 744 basechar 0
AnchorPoint: "Anchor-3" 619 0 basechar 0
LayerCount: 2
Back
SplineSet
291 298 m 5
 346 193 516 75 648 75 c 4
 764 75 868 185 868 322 c 4
 868 474 762 641 605 641 c 4
 466 641 375 534 321.87890625 388.64453125 c 4
 249.257847744 189.931228208 183 75 0 75 c 1029
EndSplineSet
Fore
SplineSet
0 150 m 0
 108 150 152 189 204 298 c 0
 220 331 235 370 251 414 c 0
 308 570 420 716 605 716 c 0
 821 716 943 499 943 322 c 0
 943 149 812 0 648 0 c 0
 520 0 389 76 301 163 c 1
 237 63 139 0 0 0 c 0
 -41 0 -74 34 -74 75 c 0
 -74 116 -41 150 0 150 c 0
372 309 m 1
 429 230 564 150 648 150 c 0
 716 150 793 221 793 322 c 0
 793 449 703 566 605 566 c 0
 512 566 441 498 392 363 c 2
 372 309 l 1
EndSplineSet
Colour: ffff
EndChar

StartChar: uniFEE4
Encoding: 65252 65252 134
Width: 1238
VWidth: 1854
Flags: HMW
AnchorPoint: "Anchor-5" 590 744 basechar 0
AnchorPoint: "Anchor-3" 619 0 basechar 0
LayerCount: 2
Fore
SplineSet
0 150 m 0
 108 150 152 189 204 298 c 0
 220 331 235 370 251 414 c 0
 308 570 420 716 605 716 c 0
 803 716 922 534 940 367 c 1
 948 307 970 263 995 232 c 0
 1034 183 1102 150 1238 150 c 1
 1238 0 l 1
 1085 0 963 37 884 130 c 1
 830 52 745 0 648 0 c 0
 520 0 389 76 301 163 c 1
 237 63 139 0 0 0 c 0
 -41 0 -74 34 -74 75 c 0
 -74 116 -41 150 0 150 c 0
372 309 m 1
 429 230 564 150 648 150 c 0
 716 150 793 221 793 322 c 0
 793 449 703 566 605 566 c 0
 512 566 441 498 392 363 c 2
 372 309 l 1
EndSplineSet
Colour: ffff
EndChar

StartChar: uniFEEA
Encoding: 65258 65258 135
Width: 1041
VWidth: 2374
Flags: HMW
AnchorPoint: "Anchor-5" 493 1003 basechar 0
AnchorPoint: "Anchor-3" 513 0 basechar 0
LayerCount: 2
Fore
SplineSet
604 740 m 1
 392 700 255 599 255 497 c 0
 255 408 331 355 477 355 c 0
 513 355 579 366 627 378 c 1
 624 407 622 438 620 470 c 2
 604 740 l 1
1041 0 m 1
 846 0 709 75 656 229 c 1
 597 214 530 205 477 205 c 0
 307 205 105 282 105 497 c 0
 105 732 356 851 595 891 c 1
 588 1009 l 1
 738 1017 l 1
 770 478 l 2
 778 342 794 262 829 219 c 0
 862 180 922 150 1041 150 c 1
 1041 0 l 1
EndSplineSet
Colour: ffff
EndChar

StartChar: uniFEEB
Encoding: 65259 65259 136
Width: 1293
VWidth: 1854
Flags: HMW
AnchorPoint: "Anchor-5" 578 952 basechar 0
AnchorPoint: "Anchor-3" 678 28 basechar 0
LayerCount: 2
Back
SplineSet
0 75 m 1
 402 75 716 224 716 487 c 0
 716 639 628 763 456 763 c 0
 284 763 196 639 196 487 c 0
 196 224 500 75 844 75 c 1
 1017 75 1115 163 1115 310 c 0
 1115 545 809.960710588 667.878652435 538 756 c 0
 359 814 266 905 184 1027 c 1025
EndSplineSet
Fore
SplineSet
0 150 m 0
 101 150 197 158 280 174 c 1
 193 240 122 336 122 461 c 0
 122 630 233 745 347 797 c 1
 284 844 234 893 194 937 c 1
 305 1037 l 1
 379 955 506 850 664 793 c 0
 891 712 1190 585 1190 310 c 0
 1190 141 1073 0 854 0 c 0
 762 0 594 28 473 73 c 1
 341 23 177 0 0 0 c 0
 -41 0 -74 34 -74 75 c 0
 -74 116 -41 150 0 150 c 0
653 176 m 1
 732 158 807 150 854 150 c 0
 999 150 1040 217 1040 310 c 0
 1040 419 943 508 777 585 c 1
 785 547 789 509 789 471 c 0
 789 350 737 249 653 176 c 1
471 235 m 1
 576 287 639 363 639 471 c 0
 639 572 605 647 555 670 c 0
 541 677 523 681 499 681 c 0
 403 681 272 600 272 461 c 0
 272 365 356 287 471 235 c 1
EndSplineSet
Colour: ffff
EndChar

StartChar: uniFEEC
Encoding: 65260 65260 137
Width: 986
VWidth: 1854
Flags: HMW
AnchorPoint: "Anchor-5" 494 782 basechar 0
AnchorPoint: "Anchor-3" 494 -538 basechar 0
LayerCount: 2
Fore
SplineSet
304 173 m 1
 579 220 680 327 680 447 c 0
 680 581 629 617 544 617 c 0
 416 617 315 481 304 173 c 1
684 -502 m 1
 656 -502 l 2
 411 -502 209 -264 163 5 c 1
 109 1 57 0 0 0 c 0
 -41 0 -75 34 -75 75 c 0
 -75 116 -41 150 0 150 c 0
 54 150 106 152 153 155 c 1
 160 484 272 767 544 767 c 0
 713 767 830 644 830 447 c 0
 830 209 615 71 312 22 c 1
 350 -182 493 -329 625 -349 c 1
 625 -160 l 2
 625 66 791 150 986 150 c 1
 986 0 l 1
 826 0 775 -36 775 -160 c 2
 775 -423 l 1
 684 -502 l 1
EndSplineSet
Colour: ffff
EndChar

StartChar: zero
Encoding: 48 48 139
Width: 1119
VWidth: 1816
Flags: HMW
LayerCount: 2
Fore
SplineSet
560 110 m 0
 809 110 894 408 894 706 c 0
 894 1004 809 1301 560 1301 c 0
 311 1301 225 1004 225 706 c 0
 225 408 311 110 560 110 c 0
560 -20 m 0
 145 -20 75 428 75 706 c 0
 75 984 145 1431 560 1431 c 0
 975 1431 1044 984 1044 706 c 0
 1044 428 975 -20 560 -20 c 0
EndSplineSet
Colour: ffff00
EndChar

StartChar: one
Encoding: 49 49 140
Width: 721
VWidth: 1819
Flags: HMW
LayerCount: 2
Fore
SplineSet
121 1056 m 1
 119 1186 l 1
 211 1187 l 2
 395 1189 426 1212 426 1411 c 1
 576 1411 l 1
 576 0 l 1
 426 0 l 1
 426 1094 l 1
 366 1066 295 1058 213 1057 c 2
 121 1056 l 1
EndSplineSet
Colour: ffff00
EndChar

StartChar: two
Encoding: 50 50 141
Width: 1126
VWidth: 1816
Flags: HMW
LayerCount: 2
Fore
SplineSet
1006 130 m 1
 1006 0 l 1
 75 0 l 1
 75 184 l 1
 650 620 l 2
 785 718 856 835 856 980 c 0
 856 1207 696 1301 541 1301 c 0
 386 1301 226 1207 226 980 c 1
 76 980 l 1
 76 1273 306 1431 541 1431 c 0
 776 1431 1006 1273 1006 980 c 0
 1006 793 909 638 746 520 c 2
 234 130 l 1
 1006 130 l 1
EndSplineSet
Colour: ffff00
EndChar

StartChar: three
Encoding: 51 51 142
Width: 1079
VWidth: 1816
Flags: HMW
LayerCount: 2
Fore
SplineSet
539 816 m 2
 721 816 835 918 835 1058 c 0
 835 1228 703 1301 561 1301 c 0
 414 1301 284 1235 284 1067 c 1
 134 1067 l 1
 134 1318 357 1431 561 1431 c 0
 768 1431 985 1307 985 1058 c 0
 985 935 920 814 816 753 c 1
 940 687 1024 546 1024 376 c 0
 1024 92 765 -20 548 -20 c 0
 320 -20 75 111 75 388 c 1
 225 388 l 1
 225 193 382 110 548 110 c 0
 715 110 874 180 874 376 c 0
 874 589 721 686 539 686 c 2
 466 686 l 1
 466 816 l 1
 539 816 l 2
EndSplineSet
Colour: ffff00
EndChar

StartChar: four
Encoding: 52 52 143
Width: 1217
VWidth: 1816
Flags: HMW
LayerCount: 2
Fore
SplineSet
1097 457 m 1
 1097 327 l 1
 909 327 l 1
 909 0 l 1
 759 0 l 1
 759 327 l 1
 75 327 l 1
 75 458 l 1
 744 1411 l 1
 909 1411 l 1
 909 457 l 1
 1097 457 l 1
759 457 m 1
 759 1192 l 1
 240 457 l 1
 759 457 l 1
EndSplineSet
Colour: ffff00
EndChar

StartChar: five
Encoding: 53 53 144
Width: 1112
VWidth: 1816
Flags: HMW
LayerCount: 2
Fore
SplineSet
992 1411 m 1
 992 1281 l 1
 287 1281 l 1
 255 951 l 1
 336 985 419 1002 498 1002 c 0
 820 1002 992 786 992 501 c 0
 992 188 816 -20 498 -20 c 0
 232 -20 75 158 75 381 c 1
 225 381 l 1
 225 210 326 110 498 110 c 0
 724 110 842 232 842 501 c 0
 842 744 720 872 498 872 c 0
 400.905636274 872 278 832 194 761 c 1
 91 812 l 1
 149 1411 l 1
 992 1411 l 1
EndSplineSet
Colour: ffff00
EndChar

StartChar: six
Encoding: 54 54 145
Width: 1095
VWidth: 1816
Flags: HMW
LayerCount: 2
Fore
SplineSet
75 689 m 0
 75 1119 263 1431 593 1431 c 0
 752 1431 886 1381 997 1284 c 1
 891 1192 l 1
 804 1267 714 1301 593 1301 c 0
 416 1301 259 1140 230 799 c 1
 338 867 453 901 564 901 c 0
 822 901 1020 717 1020 436 c 0
 1020 230 858 -20 563 -20 c 0
 131 -20 75 394 75 689 c 0
564 771 m 0
 462 771 337 724 226 624 c 1
 236 336 309 110 563 110 c 0
 750 110 870 278 870 436 c 0
 870 663 726 771 564 771 c 0
EndSplineSet
Colour: ffff00
EndChar

StartChar: seven
Encoding: 55 55 146
Width: 1059
VWidth: 1816
Flags: HMW
LayerCount: 2
Fore
SplineSet
120 1281 m 1
 120 1411 l 1
 976 1411 l 1
 1019 1295 l 1
 424 -24 l 1
 284 24 l 1
 851 1281 l 1
 120 1281 l 1
EndSplineSet
Colour: ffff00
EndChar

StartChar: eight
Encoding: 56 56 147
Width: 1057
VWidth: 1816
Flags: HMW
LayerCount: 2
Fore
SplineSet
739 763 m 1
 869 693 982 520 982 366 c 0
 982 146 803 -20 529 -20 c 0
 255 -20 75 146 75 366 c 0
 75 521 184 694 315 764 c 1
 217 818 139 956 139 1084 c 0
 139 1243 260 1431 529 1431 c 0
 798 1431 918 1243 918 1084 c 0
 918 954 838 817 739 763 c 1
225 366 m 0
 225 212 333 110 529 110 c 0
 725 110 832 212 832 366 c 0
 832 545 688 680 528 680 c 0
 362 680 225 549 225 366 c 0
768 1084 m 0
 768 1195 698 1301 529 1301 c 0
 360 1301 289 1195 289 1084 c 0
 289 923 357 850 528 850 c 0
 698 850 768 922 768 1084 c 0
EndSplineSet
Colour: ffff00
EndChar

StartChar: nine
Encoding: 57 57 148
Width: 1095
VWidth: 1816
Flags: HMW
LayerCount: 2
Fore
SplineSet
1020 722 m 0
 1020 292 832 -20 502 -20 c 0
 343 -20 209 30 98 127 c 1
 204 219 l 1
 291 144 381 110 502 110 c 0
 679 110 836 271 865 612 c 1
 757 544 642 510 531 510 c 0
 273 510 75 694 75 975 c 0
 75 1181 237 1431 532 1431 c 0
 964 1431 1020 1017 1020 722 c 0
531 640 m 0
 633 640 758 687 869 787 c 1
 859 1075 786 1301 532 1301 c 0
 345 1301 225 1133 225 975 c 0
 225 748 369 640 531 640 c 0
EndSplineSet
Colour: ffff00
EndChar

StartChar: uni0622
Encoding: 1570 1570 149
Width: 560
VWidth: 1854
Flags: HMW
AnchorPoint: "Anchor-5" 280 1472 basechar 0
AnchorPoint: "Anchor-3" 280 0 basechar 0
LayerCount: 2
Fore
SplineSet
710 1474 m 1
 623 1370 533 1320 422 1320 c 0
 367 1320 311 1335 258 1351 c 0
 206 1367 159 1378 129 1378 c 0
 59 1378 16 1344 -56 1254 c 1
 -150 1330 l 1
 -70 1428 7 1498 129 1498 c 0
 185 1498 240 1483 292 1467 c 0
 343 1451 391 1440 422 1440 c 0
 495 1440 547 1468 618 1552 c 1
 710 1474 l 1
355 0 m 1
 205 0 l 1
 205 1111 l 1
 355 1111 l 1
 355 0 l 1
EndSplineSet
PairPos2: "'kern' Horizontal Kerning in Arabic lookup 2 per glyph data 5" uniE017 dx=100 dy=0 dh=100 dv=0 dx=0 dy=0 dh=0 dv=0
PairPos2: "'kern' Horizontal Kerning in Arabic lookup 2 per glyph data 5" uniE015 dx=100 dy=0 dh=100 dv=0 dx=0 dy=0 dh=0 dv=0
PairPos2: "'kern' Horizontal Kerning in Arabic lookup 2 per glyph data 5" uni06B5 dx=100 dy=0 dh=100 dv=0 dx=0 dy=0 dh=0 dv=0
PairPos2: "'kern' Horizontal Kerning in Arabic lookup 2 per glyph data 5" uniFB6C dx=150 dy=0 dh=150 dv=0 dx=0 dy=0 dh=0 dv=0
PairPos2: "'kern' Horizontal Kerning in Arabic lookup 2 per glyph data 5" uniE012 dx=100 dy=0 dh=100 dv=0 dx=0 dy=0 dh=0 dv=0
PairPos2: "'kern' Horizontal Kerning in Arabic lookup 2 per glyph data 1" uni063A dx=-225 dy=0 dh=-225 dv=0 dx=0 dy=0 dh=0 dv=0
PairPos2: "'kern' Horizontal Kerning in Arabic lookup 2 per glyph data 1" uni0639 dx=-225 dy=0 dh=-225 dv=0 dx=0 dy=0 dh=0 dv=0
PairPos2: "'kern' Horizontal Kerning in Arabic lookup 2 per glyph data 0" uni06AF dx=200 dy=0 dh=200 dv=0 dx=0 dy=0 dh=0 dv=0
PairPos2: "'kern' Horizontal Kerning in Arabic lookup 2 per glyph data 0" uni06A9 dx=200 dy=0 dh=200 dv=0 dx=0 dy=0 dh=0 dv=0
PairPos2: "'kern' Horizontal Kerning in Arabic lookup 2 per glyph data 0" uniFEDB dx=200 dy=0 dh=200 dv=0 dx=0 dy=0 dh=0 dv=0
PairPos2: "'kern' Horizontal Kerning in Arabic lookup 2 per glyph data 0" uniFB94 dx=200 dy=0 dh=200 dv=0 dx=0 dy=0 dh=0 dv=0
PairPos2: "'kern' Horizontal Kerning in Arabic lookup 2 per glyph data 0" uniFB90 dx=200 dy=0 dh=200 dv=0 dx=0 dy=0 dh=0 dv=0
PairPos2: "'kern' Horizontal Kerning in Arabic lookup 2 per glyph data 0" uniFED7 dx=150 dy=0 dh=150 dv=0 dx=0 dy=0 dh=0 dv=0
PairPos2: "'kern' Horizontal Kerning in Arabic lookup 2 per glyph data 0" uniFED3 dx=150 dy=0 dh=150 dv=0 dx=0 dy=0 dh=0 dv=0
PairPos2: "'kern' Horizontal Kerning in Arabic lookup 2 per glyph data 0" uniFE9B dx=150 dy=0 dh=150 dv=0 dx=0 dy=0 dh=0 dv=0
PairPos2: "'kern' Horizontal Kerning in Arabic lookup 2 per glyph data 0" uniFE97 dx=150 dy=0 dh=150 dv=0 dx=0 dy=0 dh=0 dv=0
PairPos2: "'kern' Horizontal Kerning in Arabic lookup 2 per glyph data 0" uni0639 dx=-200 dy=0 dh=-200 dv=0 dx=0 dy=0 dh=0 dv=0
PairPos2: "'kern' Horizontal Kerning in Arabic lookup 2 per glyph data 0" uni063A dx=-200 dy=0 dh=-200 dv=0 dx=0 dy=0 dh=0 dv=0
PairPos2: "'kern' Horizontal Kerning in Arabic lookup 2 per glyph data 0" uni0622 dx=400 dy=0 dh=400 dv=0 dx=0 dy=0 dh=0 dv=0
PairPos2: "'kern' Horizontal Kerning in Arabic lookup 2 per glyph data 0" uni0627 dx=200 dy=0 dh=200 dv=0 dx=0 dy=0 dh=0 dv=0
PairPos2: "'kern' Horizontal Kerning in Arabic lookup 2 per glyph data 0" uni0623 dx=200 dy=0 dh=200 dv=0 dx=0 dy=0 dh=0 dv=0
PairPos2: "'kern' Horizontal Kerning in Arabic lookup 2 per glyph data 0" uni0625 dx=200 dy=0 dh=200 dv=0 dx=0 dy=0 dh=0 dv=0
PairPos2: "'kern' Horizontal Kerning in Arabic lookup 2 per glyph data 0" uniFE8B dx=100 dy=0 dh=100 dv=0 dx=0 dy=0 dh=0 dv=0
PairPos2: "'kern' Horizontal Kerning in Arabic lookup 2 per glyph data 0" uni0644 dx=100 dy=0 dh=100 dv=0 dx=0 dy=0 dh=0 dv=0
PairPos2: "'kern' Horizontal Kerning in Arabic lookup 2 per glyph data 0" uniFEDF dx=100 dy=0 dh=100 dv=0 dx=0 dy=0 dh=0 dv=0
PairPos2: "'kern' Horizontal Kerning in Arabic lookup 2 per glyph data 0" uniFEFB dx=100 dy=0 dh=100 dv=0 dx=0 dy=0 dh=0 dv=0
PairPos2: "'kern' Horizontal Kerning in Arabic lookup 2 per glyph data 0" uniFEF9 dx=100 dy=0 dh=100 dv=0 dx=0 dy=0 dh=0 dv=0
PairPos2: "'kern' Horizontal Kerning in Arabic lookup 2 per glyph data 0" uniFEF7 dx=100 dy=0 dh=100 dv=0 dx=0 dy=0 dh=0 dv=0
PairPos2: "'kern' Horizontal Kerning in Arabic lookup 2 per glyph data 0" uniFEF5 dx=100 dy=0 dh=100 dv=0 dx=0 dy=0 dh=0 dv=0
Ligature2: "'liga' Standard Ligatures in Arabic lookup 9 subtable" uni0627 uni0653
Substitution2: "'fina' Terminal Forms in Arabic lookup 2 subtable" uniFE82
LCarets2: 1 0
Colour: ffff
EndChar

StartChar: uni0643
Encoding: 1603 1603 168
Width: 1585
VWidth: 1854
Flags: HMW
AnchorPoint: "Anchor-5" 810 971 basechar 0
AnchorPoint: "Anchor-3" 868 0 basechar 0
LayerCount: 2
Fore
SplineSet
1290 1211 m 1
 1440 1211 l 1
 1440 517 l 2
 1440 360 1418 228 1339 132 c 0
 1230 0 1056 0 868 0 c 0
 478 0 103 41 103 400 c 0
 103 481 119 574 136 647 c 1
 282 613 l 1
 267 549 253 461 253 400 c 0
 253 205 442 150 868 150 c 0
 1066 150 1172 166 1223 228 c 0
 1266 280 1290 372 1290 517 c 2
 1290 1211 l 1
EndSplineSet
Refer: 25 1620 N 1 0 0 1 811 -892 2
Substitution2: "'init' Initial Forms in Arabic lookup 4 subtable" uniFEDB
Substitution2: "'medi' Medial Forms in Arabic lookup 3 subtable" uniFEDC
Substitution2: "'fina' Terminal Forms in Arabic lookup 2 subtable" uniFEDA
Colour: ffff
EndChar

StartChar: uniFEEE
Encoding: 65262 65262 194
Width: 898
VWidth: 1854
Flags: HMW
AnchorPoint: "Anchor-3" 412 -502 basechar 0
AnchorPoint: "Anchor-5" 440 726 basechar 0
LayerCount: 2
Fore
SplineSet
898 150 m 1
 898 0 l 1
 787 0 l 1
 741 -260 510 -420 142 -514 c 1
 104 -368 l 1
 439 -282 593 -157 633 0 c 1
 458 0 l 2
 279 0 107 83 107 304 c 0
 107 501 237 726 440 726 c 0
 737 726 786 332 794 150 c 1
 898 150 l 1
644 150 m 1
 634 362 562 576 440 576 c 0
 363 576 257 457 257 304 c 0
 257 189 315 150 458 150 c 2
 644 150 l 1
EndSplineSet
PairPos2: "'kern' Horizontal Kerning in Arabic lookup 2 per glyph data 3" uniFEDB dx=-200 dy=0 dh=-200 dv=0 dx=0 dy=0 dh=0 dv=0
PairPos2: "'kern' Horizontal Kerning in Arabic lookup 2 per glyph data 3" uniFB94 dx=-200 dy=0 dh=-200 dv=0 dx=0 dy=0 dh=0 dv=0
PairPos2: "'kern' Horizontal Kerning in Arabic lookup 2 per glyph data 3" uniFB90 dx=-200 dy=0 dh=-200 dv=0 dx=0 dy=0 dh=0 dv=0
PairPos2: "'kern' Horizontal Kerning in Arabic lookup 2 per glyph data 3" uni06AF dx=-200 dy=0 dh=-200 dv=0 dx=0 dy=0 dh=0 dv=0
PairPos2: "'kern' Horizontal Kerning in Arabic lookup 2 per glyph data 3" uni06A9 dx=-200 dy=0 dh=-200 dv=0 dx=0 dy=0 dh=0 dv=0
PairPos2: "'kern' Horizontal Kerning in Arabic lookup 2 per glyph data 1" uni063A dx=-100 dy=0 dh=-100 dv=0 dx=0 dy=0 dh=0 dv=0
PairPos2: "'kern' Horizontal Kerning in Arabic lookup 2 per glyph data 1" uni0639 dx=-100 dy=0 dh=-100 dv=0 dx=0 dy=0 dh=0 dv=0
Colour: ffff
EndChar

StartChar: uniFEDA
Encoding: 65242 65242 231
Width: 1748
VWidth: 1854
Flags: HMW
AnchorPoint: "Anchor-5" 809 971 basechar 0
AnchorPoint: "Anchor-3" 868 0 basechar 0
LayerCount: 2
Fore
SplineSet
1748 0 m 1
 1572 0 1440 52 1366 170 c 1
 1357 155 1349 144 1339 132 c 0
 1230 0 1056 0 868 0 c 0
 478 0 103 41 103 400 c 0
 103 481 119 574 136 647 c 1
 282 613 l 1
 267 549 253 461 253 400 c 0
 253 205 442 150 868 150 c 0
 1066 150 1172 166 1223 228 c 0
 1273 288 1290 395 1290 517 c 2
 1290 1211 l 25
 1440 1211 l 25
 1440 517 l 2
 1440 397 1458 293 1506 232 c 0
 1546 182 1612 150 1748 150 c 1
 1748 0 l 1
EndSplineSet
Refer: 25 1620 N 1 0 0 1 824 -892 2
Colour: ffff
EndChar

StartChar: uniFB8F
Encoding: 64399 64399 238
Width: 1744
VWidth: 1854
Flags: HMW
AnchorPoint: "Anchor-3" 868 0 basechar 0
AnchorPoint: "Anchor-5" 1304 1258 basechar 0
LayerCount: 2
Fore
SplineSet
1744 150 m 1
 1744 0 l 1
 1582 0 1483 57 1418 137 c 1
 1313 2 1067 0 891 0 c 0
 503 0 104 39 104 400 c 0
 104 514 138 619 166 703 c 1
 308 655 l 1
 280 572 254 484 254 400 c 0
 254 207 463 150 891 150 c 0
 1171 150 1318 181 1318 298 c 0
 1318 425 1107 690 899 847 c 2
 869 870 l 1
 869 1034 l 1
 904 1056 l 2
 1138 1206 1412 1313 1683 1369 c 1
 1713 1223 l 1
 1473 1174 1228 1078 1019 951 c 1
 1019 944 l 1
 1201 800 1406 583 1456 385 c 1
 1512 228 1546 150 1744 150 c 1
EndSplineSet
Colour: ffff
EndChar

StartChar: exclam
Encoding: 33 33 246
Width: 613
VWidth: 1647
Flags: HMW
LayerCount: 2
Fore
SplineSet
381 391 m 1
 231 391 l 1
 231 1411 l 1
 381 1411 l 1
 381 391 l 1
EndSplineSet
Refer: 0 46 N 1 0 0 1 80 0 2
Colour: ffff
EndChar

StartChar: uni066B
Encoding: 1643 1643 247
Width: 787
VWidth: 1854
Flags: HMW
LayerCount: 2
Fore
SplineSet
244 -294 m 1
 104 -240 l 1
 552 904 l 1
 692 850 l 1
 244 -294 l 1
EndSplineSet
PairPos2: "'kern' Horizontal Kerning in Arabic lookup 3 per glyph data 1" uni066B dx=-50 dy=0 dh=-50 dv=0 dx=0 dy=0 dh=0 dv=0
PairPos2: "'kern' Horizontal Kerning in Arabic lookup 3 per glyph data 1" uni06F2 dx=-100 dy=0 dh=-100 dv=0 dx=0 dy=0 dh=0 dv=0
PairPos2: "'kern' Horizontal Kerning in Arabic lookup 3 per glyph data 1" uni06F3 dx=-75 dy=0 dh=-75 dv=0 dx=0 dy=0 dh=0 dv=0
PairPos2: "'kern' Horizontal Kerning in Arabic lookup 3 per glyph data 1" uni06F0 dx=-50 dy=0 dh=-50 dv=0 dx=0 dy=0 dh=0 dv=0
PairPos2: "'kern' Horizontal Kerning in Arabic lookup 3 per glyph data 1" uni06F7 dx=-100 dy=0 dh=-100 dv=0 dx=0 dy=0 dh=0 dv=0
PairPos2: "'kern' Horizontal Kerning in Arabic lookup 3 per glyph data 0" uni0667 dx=-100 dy=0 dh=-100 dv=0 dx=0 dy=0 dh=0 dv=0
PairPos2: "'kern' Horizontal Kerning in Arabic lookup 3 per glyph data 0" uni0662 dx=-100 dy=0 dh=-100 dv=0 dx=0 dy=0 dh=0 dv=0
PairPos2: "'kern' Horizontal Kerning in Arabic lookup 3 per glyph data 0" uni0663 dx=-150 dy=0 dh=-150 dv=0 dx=0 dy=0 dh=0 dv=0
Colour: ffff
EndChar

StartChar: uniE000
Encoding: 57344 57344 248
Width: 120
VWidth: 1854
Flags: HMW
LayerCount: 2
Fore
SplineSet
0 150 m 0
 120 150 l 1
 120 0 l 1
 0 0 l 0
 -41 0 -74 34 -74 75 c 0
 -74 116 -41 150 0 150 c 0
EndSplineSet
Colour: ffff
EndChar

StartChar: uniE001
Encoding: 57345 57345 249
Width: 320
VWidth: 1854
Flags: HMW
LayerCount: 2
Fore
SplineSet
0 150 m 0
 320 150 l 1
 320 0 l 1
 0 0 l 0
 -41 0 -74 34 -74 75 c 0
 -74 116 -41 150 0 150 c 0
EndSplineSet
Colour: ffff
EndChar

StartChar: uniE002
Encoding: 57346 57346 250
Width: 450
VWidth: 1854
Flags: HMW
LayerCount: 2
Fore
SplineSet
0 150 m 0
 450 150 l 1
 450 0 l 1
 0 0 l 0
 -41 0 -74 34 -74 75 c 0
 -74 116 -41 150 0 150 c 0
EndSplineSet
Colour: ffff
EndChar

StartChar: simpledot
Encoding: 1114131 -1 251
Width: 2374
VWidth: 1854
Flags: HMW
LayerCount: 2
Fore
SplineSet
1065 132 m 1
 1187 254 l 1
 1309 132 l 1
 1187 10 l 1
 1065 132 l 1
EndSplineSet
Colour: ff0000
EndChar

StartChar: hyphen
Encoding: 45 45 252
Width: 993
VWidth: 1647
Flags: HMW
LayerCount: 2
Fore
SplineSet
873 575 m 1
 873 445 l 1
 120 445 l 1
 120 575 l 1
 873 575 l 1
EndSplineSet
Colour: ffff00
EndChar

StartChar: numbersign
Encoding: 35 35 254
Width: 1683
VWidth: 1819
Flags: HMW
LayerCount: 2
Fore
SplineSet
1090 891 m 1
 697 891 l 1
 594 556 l 1
 987 556 l 1
 1090 891 l 1
420 -17 m 1
 274 17 l 1
 400 426 l 1
 120 426 l 1
 120 556 l 1
 439 556 l 1
 542 891 l 1
 212 891 l 1
 212 1021 l 1
 581 1021 l 1
 705 1428 l 1
 851 1394 l 1
 736 1021 l 1
 1129 1021 l 1
 1253 1428 l 1
 1399 1394 l 1
 1284 1021 l 1
 1563 1021 l 1
 1563 891 l 1
 1245 891 l 1
 1142 556 l 1
 1471 556 l 1
 1471 426 l 1
 1103 426 l 1
 968 -17 l 1
 822 17 l 1
 948 426 l 1
 555 426 l 1
 420 -17 l 1
EndSplineSet
Colour: ffff00
EndChar

StartChar: ampersand
Encoding: 38 38 257
Width: 1138
VWidth: 1819
Flags: HMW
LayerCount: 2
Fore
SplineSet
944 150 m 1
 1044 15 l 1
 918 -55 l 1
 833 58 l 1
 746 7 639 -20 520 -20 c 0
 261 -20 75 149 75 376 c 0
 75 565 196 679 324 758 c 1
 245 864 l 1
 189 931 165 1027 165 1103 c 0
 165 1267 289 1431 519 1431 c 0
 733 1431 864 1265 864 1113 c 0
 864 901 682 798 532 719 c 1
 854 269 l 1
 891 328 913 404 913 496 c 1
 1063 496 l 1
 1063 360 1024 241 944 150 c 1
752 167 m 1
 406 649 l 1
 297 581 225 509 225 376 c 0
 225 219 333 110 520 110 c 0
 616 110 693 131 752 167 c 1
451 829 m 1
 607 911 714 977 714 1113 c 0
 714 1203 645 1301 519 1301 c 0
 387 1301 315 1217 315 1103 c 0
 315 1045 333 985 370 936 c 2
 451 829 l 1
EndSplineSet
Colour: ffff00
EndChar

StartChar: quotesingle
Encoding: 39 39 258
Width: 400
VWidth: 1819
Flags: HMW
LayerCount: 2
Fore
SplineSet
145 1411 m 1
 255 1411 l 1
 255 896 l 1
 145 896 l 1
 145 1411 l 1
EndSplineSet
Colour: ff00
EndChar

StartChar: plus
Encoding: 43 43 259
Width: 993
VWidth: 1647
Flags: HMW
LayerCount: 2
Fore
SplineSet
873 575 m 1
 873 445 l 1
 571 445 l 1
 571 134 l 1
 421 134 l 1
 421 445 l 1
 120 445 l 1
 120 575 l 1
 421 575 l 1
 421 886 l 1
 571 886 l 1
 571 575 l 1
 873 575 l 1
EndSplineSet
Colour: ffff00
EndChar

StartChar: comma
Encoding: 44 44 260
Width: 502
VWidth: 1854
Flags: HMW
LayerCount: 2
Fore
SplineSet
220 -201 m 1
 166 -159 l 1
 192 -130 266 -44 266 54 c 1
 187 54 145 90 145 163 c 0
 145 224 190 265 244 265 c 0
 313 265 357 219 357 126 c 0
 357 -29 279 -129 220 -201 c 1
EndSplineSet
EndChar

StartChar: question
Encoding: 63 63 262
Width: 1067
VWidth: 1854
Flags: HMW
LayerCount: 2
Fore
SplineSet
131 939 m 1
 126 969 125 998 125 1024 c 0
 125 1227 258 1411 528 1411 c 0
 794 1411 942 1207 942 983 c 0
 942 831 845 746 756 688 c 0
 667 629 588 572 588 405 c 1
 438 405 l 1
 438 622 565 725 666 792 c 0
 745 844 792 883 792 983 c 0
 792 1167 684 1281 528 1281 c 0
 358 1281 275 1183 275 1024 c 0
 275 1000 276 979 279 957 c 1
 131 939 l 1
EndSplineSet
Refer: 0 46 N -1 0 0 1 742 0 2
Colour: ffff00
EndChar

StartChar: at
Encoding: 64 64 263
Width: 2061
VWidth: 1819
Flags: HMW
LayerCount: 2
Fore
SplineSet
1046 935 m 0
 869 935 677 797 677 452 c 0
 677 178 828 109 963 109 c 0
 1085 109 1240 198 1266 481 c 2
 1299 862 l 1
 1239 905 1177 935 1046 935 c 0
1046 1065 m 0
 1254 1065 1358 994 1455 915 c 1
 1401 306 l 2
 1400 297 1400 290 1400 279 c 0
 1400 163 1457 109 1554 109 c 0
 1712 109 1836 287 1836 530 c 0
 1836 988 1466 1346 1031 1346 c 0
 596 1346 225 988 225 530 c 0
 225 72 595 -285 1031 -285 c 0
 1107 -285 1180 -274 1250 -254 c 1
 1296 -378 l 1
 1212 -402 1123 -415 1031 -415 c 0
 495 -415 75 16 75 530 c 0
 75 1044 494 1476 1031 1476 c 0
 1568 1476 1986 1044 1986 530 c 0
 1986 275 1856 -21 1554 -21 c 0
 1422 -21 1331 41 1285 129 c 1
 1201 30 1085 -21 963 -21 c 0
 742 -21 527 122 527 452 c 0
 527 837 759 1065 1046 1065 c 0
EndSplineSet
Colour: ffff00
EndChar

StartChar: A
Encoding: 65 65 264
Width: 1343
VWidth: 1819
Flags: HMW
LayerCount: 2
Fore
SplineSet
199 0 m 1
 41 0 l 1
 594 1411 l 1
 750 1411 l 1
 1302 0 l 1
 1144 0 l 1
 995 390 l 1
 348 390 l 1
 199 0 l 1
398 520 m 1
 945 520 l 1
 672 1235 l 1
 398 520 l 1
EndSplineSet
Colour: ffff00
EndChar

StartChar: B
Encoding: 66 66 265
Width: 1286
VWidth: 1819
Flags: HMW
LayerCount: 2
Fore
SplineSet
685 771 m 2
 827 771 948 870 948 1024 c 0
 948 1179 825 1281 685 1281 c 2
 295 1281 l 1
 295 771 l 1
 685 771 l 2
295 641 m 1
 295 130 l 1
 748 130 l 2
 890 130 1011 227 1011 381 c 0
 1011 537 887 641 748 641 c 0
 295 641 l 1
145 1411 m 1
 685 1411 l 0
 917 1411 1098 1241 1098 1024 c 0
 1098 900 1039 794 946 725 c 1
 1075 659 1161 530 1161 381 c 0
 1161 163 978 0 748 0 c 0
 145 0 l 1
 145 1411 l 1
EndSplineSet
Colour: ffff00
EndChar

StartChar: C
Encoding: 67 67 266
Width: 1303
VWidth: 1819
Flags: HMW
LayerCount: 2
Fore
SplineSet
1049 225 m 1
 1157 135 l 1
 1051 39 906 -20 731 -20 c 0
 283 -20 75 328 75 706 c 0
 75 1084 283 1431 731 1431 c 0
 905 1431 1051 1373 1157 1277 c 1
 1049 1187 l 1
 969 1259 867 1301 731 1301 c 0
 397 1301 225 1052 225 706 c 0
 225 360 397 110 731 110 c 0
 866 110 969 153 1049 225 c 1
EndSplineSet
Colour: ffff00
EndChar

StartChar: D
Encoding: 68 68 267
Width: 1292
VWidth: 1819
Flags: HMW
LayerCount: 2
Fore
SplineSet
560 1281 m 2
 295 1281 l 1
 295 130 l 1
 560 130 l 2
 901 130 1067 354 1067 706 c 0
 1067 1058 901 1281 560 1281 c 2
560 1411 m 2
 1013 1411 1217 1090 1217 706 c 0
 1217 322 1013 0 560 0 c 2
 145 0 l 1
 145 1411 l 1
 560 1411 l 2
EndSplineSet
Colour: ffff00
EndChar

StartChar: E
Encoding: 69 69 268
Width: 1151
VWidth: 1819
Flags: HMW
LayerCount: 2
Fore
SplineSet
1001 130 m 1
 1001 0 l 1
 145 0 l 1
 145 1411 l 1
 1001 1411 l 1
 1001 1281 l 1
 295 1281 l 1
 295 771 l 1
 1001 771 l 1
 1001 641 l 1
 295 641 l 1
 295 130 l 1
 1001 130 l 1
EndSplineSet
Colour: ffff00
EndChar

StartChar: F
Encoding: 70 70 269
Width: 1151
VWidth: 1819
Flags: HMW
LayerCount: 2
Fore
SplineSet
295 0 m 1
 145 0 l 1
 145 1411 l 1
 1001 1411 l 1
 1001 1281 l 1
 295 1281 l 1
 295 771 l 1
 885 771 l 1
 885 641 l 1
 295 641 l 1
 295 0 l 1
EndSplineSet
Colour: ffff00
EndChar

StartChar: G
Encoding: 71 71 270
Width: 1400
VWidth: 1819
Flags: HMW
LayerCount: 2
Fore
SplineSet
702 601 m 1
 702 731 l 1
 1255 733 l 1
 1255 440 l 2
 1255 198 1131 -20 731 -20 c 0
 283 -20 75 328 75 706 c 0
 75 1084 283 1431 731 1431 c 0
 904 1431 1074 1377 1184 1277 c 1
 1076 1187 l 1
 1000 1255 868 1301 731 1301 c 0
 397 1301 225 1052 225 706 c 0
 225 360 397 110 731 110 c 0
 1041 110 1105 238 1105 440 c 2
 1105 603 l 1
 702 601 l 1
EndSplineSet
Colour: ffff00
EndChar

StartChar: H
Encoding: 72 72 271
Width: 1309
VWidth: 1819
Flags: HMW
LayerCount: 2
Fore
SplineSet
1014 1411 m 1
 1164 1411 l 1
 1164 0 l 1
 1014 0 l 1
 1014 663 l 1
 295 663 l 1
 295 0 l 1
 145 0 l 1
 145 1411 l 1
 295 1411 l 1
 295 793 l 1
 1014 793 l 1
 1014 1411 l 1
EndSplineSet
Colour: ffff00
EndChar

StartChar: I
Encoding: 73 73 272
Width: 440
VWidth: 1819
Flags: HMW
LayerCount: 2
Fore
SplineSet
295 0 m 1
 145 0 l 1
 145 1411 l 1
 295 1411 l 1
 295 0 l 1
EndSplineSet
Colour: ffff00
EndChar

StartChar: J
Encoding: 74 74 273
Width: 840
VWidth: 1819
Flags: HMW
LayerCount: 2
Fore
SplineSet
61 30 m 1
 139 142 l 1
 178 122 228 110 286 110 c 0
 434 110 545 165 545 380 c 2
 545 1411 l 1
 695 1411 l 1
 695 380 l 2
 695 103 508 -20 286 -20 c 0
 206 -20 128 -6 61 30 c 1
EndSplineSet
Colour: ffff00
EndChar

StartChar: K
Encoding: 75 75 274
Width: 1276
VWidth: 1819
Flags: HMW
LayerCount: 2
Fore
SplineSet
979 1411 m 1
 1172 1411 l 1
 537 735 l 1
 1170 0 l 1
 983 0 l 1
 439 631 l 1
 295 478 l 1
 295 0 l 1
 145 0 l 1
 145 1411 l 1
 295 1411 l 1
 295 684 l 1
 979 1411 l 1
EndSplineSet
Colour: ffff00
EndChar

StartChar: L
Encoding: 76 76 275
Width: 1101
VWidth: 1819
Flags: HMW
LayerCount: 2
Fore
SplineSet
1001 130 m 1
 1001 0 l 1
 145 0 l 1
 145 1411 l 1
 295 1411 l 1
 295 130 l 1
 1001 130 l 1
EndSplineSet
Colour: ffff00
EndChar

StartChar: M
Encoding: 77 77 276
Width: 1755
VWidth: 1819
Flags: HMW
LayerCount: 2
Fore
SplineSet
295 0 m 1
 145 0 l 1
 145 1411 l 1
 320 1411 l 1
 854 158 l 1
 1437 1411 l 1
 1610 1411 l 1
 1610 0 l 1
 1460 0 l 1
 1460 1149 l 1
 926 0 l 1
 775 -0 l 1
 295 1130 l 1
 295 0 l 1
EndSplineSet
Colour: ffff00
EndChar

StartChar: N
Encoding: 78 78 277
Width: 1356
VWidth: 1819
Flags: HMW
LayerCount: 2
Fore
SplineSet
1061 1411 m 1
 1211 1411 l 1
 1211 0 l 1
 1044 0 l 1
 295 1200 l 1
 295 0 l 1
 145 0 l 1
 145 1411 l 1
 312 1411 l 1
 1061 211 l 1
 1061 1411 l 1
EndSplineSet
Colour: ffff00
EndChar

StartChar: O
Encoding: 79 79 278
Width: 1462
VWidth: 1819
Flags: HMW
LayerCount: 2
Fore
SplineSet
731 1301 m 0
 397 1301 225 1052 225 706 c 0
 225 360 397 110 731 110 c 0
 1065 110 1237 360 1237 706 c 0
 1237 1052 1066 1301 731 1301 c 0
731 1431 m 0
 1178 1431 1387 1084 1387 706 c 0
 1387 328 1179 -20 731 -20 c 0
 283 -20 75 328 75 706 c 0
 75 1084 283 1431 731 1431 c 0
EndSplineSet
Colour: ffff00
EndChar

StartChar: P
Encoding: 80 80 279
Width: 1173
VWidth: 1819
Flags: HMW
LayerCount: 2
Fore
SplineSet
295 1281 m 1
 295 771 l 1
 685 771 l 2
 827 771 948 870 948 1024 c 0
 948 1179 825 1281 685 1281 c 2
 295 1281 l 1
295 0 m 1
 145 0 l 1
 145 1411 l 1
 685 1411 l 0
 917 1411 1098 1241 1098 1024 c 0
 1098 806 915 641 685 641 c 2
 295 641 l 1
 295 0 l 1
EndSplineSet
Colour: ffff00
EndChar

StartChar: R
Encoding: 82 82 281
Width: 1223
VWidth: 1819
Flags: HMW
LayerCount: 2
Fore
SplineSet
295 771 m 1
 685 771 l 2
 827 771 948 870 948 1024 c 0
 948 1179 825 1281 685 1281 c 2
 295 1281 l 1
 295 771 l 1
145 1411 m 1
 685 1411 l 2
 917 1411 1098 1241 1098 1024 c 0
 1098 888 1026 773 917 705 c 1
 1027 635 1098 517 1098 381 c 2
 1098 0 l 1
 948 0 l 1
 948 381 l 2
 948 537 824 641 685 641 c 2
 295 641 l 1
 295 0 l 1
 145 0 l 1
 145 1411 l 1
EndSplineSet
Colour: ffff00
EndChar

StartChar: S
Encoding: 83 83 282
Width: 1146
VWidth: 1819
Flags: HMW
LayerCount: 2
Fore
SplineSet
75 396 m 1
 225 396 l 1
 225 208 400 110 587 110 c 0
 769 110 921 190 921 369 c 0
 921 521 776 590 559 650 c 0
 367 703 105 796 105 1043 c 0
 105 1296 321 1431 560 1431 c 0
 810 1431 1041 1276 1041 1015 c 1
 891 1015 l 1
 891 1200 740 1301 560 1301 c 0
 385 1301 255 1218 255 1043 c 0
 255 902 393 833 605 774 c 0
 802 720 1071 625 1071 369 c 0
 1071 100 819 -20 587 -20 c 0
 344 -20 75 118 75 396 c 1
EndSplineSet
Colour: ffff00
EndChar

StartChar: T
Encoding: 84 84 283
Width: 1300
VWidth: 1819
Flags: HMW
LayerCount: 2
Fore
SplineSet
725 0 m 1
 575 0 l 1
 575 1281 l 1
 100 1281 l 1
 100 1411 l 1
 1200 1411 l 1
 1200 1281 l 1
 725 1281 l 1
 725 0 l 1
EndSplineSet
Colour: ffff00
EndChar

StartChar: U
Encoding: 85 85 284
Width: 1316
VWidth: 1819
Flags: HMW
LayerCount: 2
Fore
SplineSet
1021 1411 m 1
 1171 1411 l 1
 1171 458 l 2
 1171 175 941 -20 658 -20 c 0
 375 -20 145 175 145 458 c 2
 145 1411 l 1
 295 1411 l 1
 295 458 l 2
 295 239 461 110 658 110 c 0
 855 110 1021 239 1021 458 c 2
 1021 1411 l 1
EndSplineSet
Colour: ffff00
EndChar

StartChar: V
Encoding: 86 86 285
Width: 1343
VWidth: 1819
Flags: HMW
LayerCount: 2
Fore
SplineSet
1144 1411 m 1
 1302 1411 l 1
 749 0 l 1
 593 0 l 1
 41 1411 l 1
 199 1411 l 1
 671 176 l 1
 1144 1411 l 1
EndSplineSet
Colour: ffff00
EndChar

StartChar: W
Encoding: 87 87 286
Width: 1932
VWidth: 1819
Flags: HMW
LayerCount: 2
Fore
SplineSet
1735 1411 m 1
 1890 1411 l 1
 1475 0 l 1
 1310 0 l 1
 966 1195 l 1
 621 -0 l 1
 456 0 l 1
 42 1411 l 1
 197 1411 l 1
 539 215 l 1
 884 1411 l 1
 1048 1411 l 1
 1392 215 l 1
 1735 1411 l 1
EndSplineSet
Colour: ffff00
EndChar

StartChar: X
Encoding: 88 88 287
Width: 1186
VWidth: 1819
Flags: HMW
LayerCount: 2
Fore
SplineSet
1153 0 m 1
 979 0 l 1
 593 606 l 1
 207 0 l 1
 33 0 l 1
 506 706 l 1
 33 1411 l 1
 207 1411 l 1
 593 805 l 1
 979 1411 l 1
 1153 1411 l 1
 680 706 l 1
 1153 0 l 1
EndSplineSet
Colour: ffff00
EndChar

StartChar: Y
Encoding: 89 89 288
Width: 1186
VWidth: 1819
Flags: HMW
LayerCount: 2
Fore
SplineSet
33 1411 m 1
 207 1411 l 1
 593 775 l 1
 979 1411 l 1
 1153 1411 l 1
 668 654 l 1
 668 0 l 1
 518 0 l 1
 518 654 l 1
 33 1411 l 1
EndSplineSet
Colour: ffff00
EndChar

StartChar: Z
Encoding: 90 90 289
Width: 1400
VWidth: 1819
Flags: HMW
LayerCount: 2
Fore
SplineSet
150 1281 m 1
 150 1411 l 1
 1250 1411 l 1
 1250 1277 l 1
 299 130 l 1
 1250 130 l 1
 1250 0 l 1
 150 0 l 1
 150 134 l 1
 1101 1281 l 1
 150 1281 l 1
EndSplineSet
Colour: ffff00
EndChar

StartChar: bracketleft
Encoding: 91 91 290
Width: 642
VWidth: 1819
Flags: HMW
LayerCount: 2
Fore
SplineSet
542 130 m 1
 542 0 l 1
 145 0 l 1
 145 1411 l 1
 542 1411 l 1
 542 1281 l 1
 295 1281 l 1
 295 130 l 1
 542 130 l 1
EndSplineSet
Colour: ffff00
EndChar

StartChar: backslash
Encoding: 92 92 291
Width: 1019
VWidth: 1819
Flags: HMW
LayerCount: 2
Fore
SplineSet
936 34 m 1
 802 -34 l 1
 83 1377 l 1
 217 1445 l 1
 936 34 l 1
EndSplineSet
Colour: ffff
EndChar

StartChar: bracketright
Encoding: 93 93 292
Width: 642
VWidth: 1819
Flags: HMW
LayerCount: 2
Fore
SplineSet
100 1281 m 1
 100 1411 l 1
 497 1411 l 1
 497 0 l 1
 100 0 l 1
 100 130 l 1
 347 130 l 1
 347 1281 l 1
 100 1281 l 1
EndSplineSet
Colour: ffff00
EndChar

StartChar: asciicircum
Encoding: 94 94 293
Width: 704
VWidth: 1819
Flags: HMW
LayerCount: 2
Fore
SplineSet
619 1171 m 1
 549 1115 l 1
 352 1364 l 1
 155 1115 l 1
 85 1171 l 1
 310 1456 l 1
 394 1456 l 1
 619 1171 l 1
EndSplineSet
Colour: ff00
EndChar

StartChar: underscore
Encoding: 95 95 294
Width: 666
VWidth: 1819
Flags: HMW
LayerCount: 2
Fore
SplineSet
666 150 m 1
 666 0 l 1
 0 0 l 1
 0 150 l 1
 666 150 l 1
EndSplineSet
Colour: ffff
EndChar

StartChar: grave
Encoding: 96 96 295
Width: 524
VWidth: 1819
Flags: HMW
LayerCount: 2
Fore
SplineSet
399 1191 m 1
 323 1143 l 1
 125 1459 l 1
 201 1507 l 1
 399 1191 l 1
EndSplineSet
Colour: ff00
EndChar

StartChar: a
Encoding: 97 97 296
Width: 1056
VWidth: 1819
Flags: HMW
LayerCount: 2
Fore
SplineSet
295 751 m 1
 145 751 l 1
 145 960 345 1063 527 1063 c 0
 710 1063 911 960 911 751 c 2
 911 322 l 2
 911 189 927 68 947 0 c 1
 801 0 l 1
 777 82 761 181 761 322 c 2
 761 751 l 2
 761 872 654 933 527 933 c 0
 401 933 295 872 295 751 c 1
EndSplineSet
Refer: 430 57355 N 1 0 0 1 0 0 2
Colour: ffff00
EndChar

StartChar: b
Encoding: 98 98 297
Width: 1158
VWidth: 1819
Flags: HMW
LayerCount: 2
Fore
SplineSet
295 0 m 1
 145 0 l 1
 145 1411 l 1
 295 1411 l 1
 295 0 l 1
EndSplineSet
Refer: 434 57359 N 1 0 0 1 0 0 2
Colour: ffff00
EndChar

StartChar: c
Encoding: 99 99 298
Width: 1074
VWidth: 1819
Flags: HMW
LayerCount: 2
Fore
SplineSet
942 840 m 1
 806 784 l 1
 754 878 671 933 544 933 c 0
 337 933 225 756 225 521 c 0
 225 286 337 110 544 110 c 0
 672 110 754 165 806 261 c 1
 942 205 l 1
 870 75 734 -20 544 -20 c 0
 215 -20 75 260 75 521 c 0
 75 782 215 1063 544 1063 c 0
 733 1063 870 970 942 840 c 1
EndSplineSet
Colour: ffff00
EndChar

StartChar: d
Encoding: 100 100 299
Width: 1158
VWidth: 1819
Flags: HMW
LayerCount: 2
Fore
SplineSet
1013 0 m 1
 863 0 l 1
 863 1411 l 1
 1013 1411 l 1
 1013 0 l 1
EndSplineSet
Refer: 434 57359 N -1 0 0 -1 1158 1043 2
Colour: ffff00
EndChar

StartChar: e
Encoding: 101 101 300
Width: 1095
VWidth: 1819
Flags: HMW
LayerCount: 2
Fore
SplineSet
228 586 m 1
 867 586 l 1
 845 786 733 933 544 933 c 0
 356 933 249 787 228 586 c 1
228 456 m 1
 254 212 400 107 592 107 c 0
 691 107 803 135 916 186 c 1
 965 75 l 1
 834 11 704 -20 585 -20 c 0
 297 -20 75 165 75 521 c 0
 75 782 215 1063 544 1063 c 0
 872 1063 1020 783 1020 521 c 2
 1020 456 l 1
 228 456 l 1
EndSplineSet
Colour: ffff00
EndChar

StartChar: f
Encoding: 102 102 301
Width: 784
VWidth: 1819
Flags: HMW
LayerCount: 2
Fore
SplineSet
683 1411 m 1
 683 1281 l 1
 496 1281 l 2
 449 1281 395 1240 395 1171 c 2
 395 0 l 1
 245 0 l 1
 245 1171 l 2
 245 1296 349 1411 496 1411 c 2
 683 1411 l 1
EndSplineSet
Refer: 429 57354 N 1 0 0 1 0 460 2
Colour: ffff00
EndChar

StartChar: g
Encoding: 103 103 302
Width: 1158
VWidth: 1819
Flags: HMW
LayerCount: 2
Fore
SplineSet
863 1043 m 1
 1013 1043 l 1
 1013 62 l 2
 1013 -285 782 -439 517 -439 c 0
 375 -439 229 -396 99 -322 c 1
 158 -204 l 1
 269 -268 404 -311 526 -311 c 0
 709 -311 863 -213 863 62 c 2
 863 1043 l 1
EndSplineSet
Refer: 434 57359 N -1 0 0 -1 1158 1043 2
Colour: ffff00
EndChar

StartChar: h
Encoding: 104 104 303
Width: 1108
VWidth: 1819
Flags: HMW
LayerCount: 2
Fore
SplineSet
295 0 m 1
 145 0 l 1
 145 1411 l 1
 295 1411 l 1
 295 0 l 1
EndSplineSet
Refer: 432 57357 N 1 0 0 1 20 0 2
Colour: ffff00
EndChar

StartChar: k
Encoding: 107 107 306
Width: 1000
VWidth: 1819
Flags: HMW
LayerCount: 2
Fore
SplineSet
782 1043 m 1
 973 1043 l 1
 498 521 l 1
 938 0 l 1
 754 0 l 1
 402 415 l 1
 295 297 l 1
 295 0 l 1
 145 0 l 1
 145 1411 l 1
 295 1411 l 1
 295 508 l 1
 782 1043 l 1
EndSplineSet
Colour: ffff00
EndChar

StartChar: l
Encoding: 108 108 307
Width: 440
VWidth: 1819
Flags: HMW
LayerCount: 2
Fore
SplineSet
295 0 m 1
 145 0 l 1
 145 1411 l 1
 295 1411 l 1
 295 0 l 1
EndSplineSet
Colour: ffff00
EndChar

StartChar: m
Encoding: 109 109 308
Width: 1576
VWidth: 1819
Flags: HMW
LayerCount: 2
Fore
SplineSet
145 1043 m 1
 295 1043 l 1
 295 0 l 1
 145 0 l 1
 145 1043 l 1
EndSplineSet
Refer: 431 57356 N 1 0 0 1 -548 0 2
Refer: 431 57356 N 1 0 0 1 20 0 2
Colour: ffff00
EndChar

StartChar: n
Encoding: 110 110 309
Width: 1108
VWidth: 1819
Flags: HMW
LayerCount: 2
Fore
SplineSet
295 0 m 1
 145 0 l 1
 145 1043 l 1
 295 1043 l 1
 295 0 l 1
EndSplineSet
Refer: 432 57357 N 1 0 0 1 20 0 2
Colour: ffff00
EndChar

StartChar: o
Encoding: 111 111 310
Width: 1088
VWidth: 1819
Flags: HMW
LayerCount: 2
Fore
SplineSet
544 1063 m 0
 873 1063 1013 782 1013 521 c 0
 1013 260 873 -20 544 -20 c 0
 215 -20 75 260 75 521 c 0
 75 782 215 1063 544 1063 c 0
544 933 m 0
 337 933 225 756 225 521 c 0
 225 286 337 110 544 110 c 0
 751 110 863 286 863 521 c 0
 863 756 751 933 544 933 c 0
EndSplineSet
Colour: ffff00
EndChar

StartChar: p
Encoding: 112 112 311
Width: 1158
VWidth: 1819
Flags: HMW
LayerCount: 2
Fore
SplineSet
145 1043 m 1
 295 1043 l 1
 295 -419 l 1
 145 -419 l 1
 145 1043 l 1
EndSplineSet
Refer: 434 57359 N 1 0 0 1 0 0 2
Colour: ffff00
EndChar

StartChar: q
Encoding: 113 113 312
Width: 1158
VWidth: 1819
Flags: HMW
LayerCount: 2
Fore
SplineSet
863 1043 m 1
 1013 1043 l 1
 1013 -419 l 1
 863 -419 l 1
 863 1043 l 1
EndSplineSet
Refer: 434 57359 N -1 0 0 -1 1158 1043 2
Colour: ffff00
EndChar

StartChar: r
Encoding: 114 114 313
Width: 774
VWidth: 1819
Flags: HMW
LayerCount: 2
Fore
SplineSet
145 1043 m 1
 295 1043 l 1
 295 0 l 1
 145 0 l 1
 145 1043 l 1
EndSplineSet
Refer: 433 57358 N 1 0 0 1 20 0 2
Colour: ffff00
EndChar

StartChar: s
Encoding: 115 115 314
Width: 959
VWidth: 1819
Flags: HMW
LayerCount: 2
Fore
SplineSet
867 754 m 1
 717 754 l 1
 717 882 613 933 479 933 c 0
 345 933 240 882 240 754 c 0
 240 663 317 626 488 604 c 0
 641 585 884 531 884 302 c 0
 884 74 666 -20 479 -20 c 0
 292 -20 75 74 75 302 c 1
 225 302 l 1
 225 166 338 110 479 110 c 0
 620 110 734 166 734 302 c 0
 734 415 641 455 466 476 c 0
 321 494 90 543 90 754 c 0
 90 974 299 1063 479 1063 c 0
 659 1063 867 974 867 754 c 1
EndSplineSet
Colour: ffff00
EndChar

StartChar: t
Encoding: 116 116 315
Width: 834
VWidth: 1819
Flags: HMW
LayerCount: 2
Fore
SplineSet
706 130 m 1
 706 0 l 1
 546 0 l 2
 399 0 295 115 295 240 c 2
 295 1279 l 1
 445 1279 l 1
 445 240 l 2
 445 171 499 130 546 130 c 2
 706 130 l 1
EndSplineSet
Refer: 429 57354 N 1.08562 0 0 1 -8.56164 460 2
Colour: ffff00
EndChar

StartChar: u
Encoding: 117 117 316
Width: 1108
VWidth: 1819
Flags: HMW
LayerCount: 2
Fore
SplineSet
813 1043 m 1
 963 1043 l 1
 963 0 l 1
 813 0 l 1
 813 1043 l 1
EndSplineSet
Refer: 432 57357 N -1 0 0 -1 1088 1043 2
Colour: ffff00
EndChar

StartChar: v
Encoding: 118 118 317
Width: 1041
VWidth: 1819
Flags: HMW
LayerCount: 2
Fore
SplineSet
854 1043 m 1
 1012 1043 l 1
 599 -0 l 1
 445 0 l 1
 29 1043 l 1
 187 1043 l 1
 521 175 l 1
 854 1043 l 1
EndSplineSet
Colour: ffff00
EndChar

StartChar: w
Encoding: 119 119 318
Width: 1459
VWidth: 1819
Flags: HMW
LayerCount: 2
Fore
SplineSet
1270 1043 m 1
 1425 1042 l 1
 1121 0 l 1
 957 0 l 1
 730 821 l 1
 503 -0 l 1
 339 0 l 1
 34 1043 l 1
 189 1043 l 1
 420 221 l 1
 647 1043 l 1
 812 1043 l 1
 1040 221 l 1
 1270 1043 l 1
EndSplineSet
Colour: ffff00
EndChar

StartChar: x
Encoding: 120 120 319
Width: 1127
VWidth: 1819
Flags: HMW
LayerCount: 2
Fore
SplineSet
909 1043 m 1
 1093 1043 l 1
 655 506 l 1
 1069 0 l 1
 885 0 l 1
 564 424 l 1
 242 0 l 1
 58 0 l 1
 472 506 l 1
 34 1043 l 1
 218 1043 l 1
 564 589 l 1
 909 1043 l 1
EndSplineSet
Colour: ffff00
EndChar

StartChar: y
Encoding: 121 121 320
Width: 1057
VWidth: 1819
Flags: HMW
LayerCount: 2
Fore
SplineSet
870 1043 m 1
 1028 1043 l 1
 636 44 l 2
 551 -173 454 -419 154 -419 c 2
 100 -419 l 1
 100 -289 l 1
 154 -289 l 2
 311 -289 384 -182 462 5 c 1
 47 1043 l 1
 205 1043 l 1
 541 175 l 1
 870 1043 l 1
EndSplineSet
Colour: ffff00
EndChar

StartChar: z
Encoding: 122 122 321
Width: 1021
VWidth: 1819
Flags: HMW
LayerCount: 2
Fore
SplineSet
100 913 m 1
 100 1043 l 1
 931 1043 l 1
 931 910 l 1
 242 130 l 1
 921 130 l 1
 921 0 l 1
 90 0 l 1
 90 134 l 1
 778 913 l 1
 100 913 l 1
EndSplineSet
Colour: ffff00
EndChar

StartChar: bar
Encoding: 124 124 322
Width: 440
VWidth: 1819
Flags: HMW
LayerCount: 2
Fore
SplineSet
145 1411 m 1
 295 1411 l 1
 295 -419 l 1
 145 -419 l 1
 145 1411 l 1
EndSplineSet
Colour: ffff
EndChar

StartChar: asciitilde
Encoding: 126 126 323
Width: 868
VWidth: 1819
Flags: HMW
LayerCount: 2
Fore
SplineSet
714 1360 m 1
 796 1324 l 1
 743 1201 660 1139 581 1139 c 0
 516 1139 464 1163 407 1206 c 0
 354 1246 332 1254 288 1254 c 0
 256 1254 200 1233 156 1129 c 1
 73 1165 l 1
 127 1291 212 1344 288 1344 c 0
 352 1344 402 1322 461 1278 c 0
 512 1239 538 1229 581 1229 c 0
 610 1229 669 1255 714 1360 c 1
EndSplineSet
Colour: ff00
EndChar

StartChar: cent
Encoding: 162 162 325
Width: 1074
VWidth: 1819
Flags: HMW
LayerCount: 2
Fore
SplineSet
619 -364 m 1
 469 -364 l 1
 469 65 l 1
 619 65 l 1
 619 -364 l 1
619 978 m 1
 469 978 l 1
 469 1411 l 1
 619 1411 l 1
 619 978 l 1
EndSplineSet
Refer: 298 99 N 1 0 0 1 0 0 2
Colour: ffff00
EndChar

StartChar: sterling
Encoding: 163 163 326
Width: 1254
VWidth: 1819
Flags: HMW
LayerCount: 2
Fore
SplineSet
120 130 m 17
 228 130 282 168 282 282 c 2
 282 1108 l 2
 282 1267 411 1411 594 1411 c 0
 755 1411 877 1298 902 1163 c 1
 754 1143 l 1
 739 1228 667 1281 594 1281 c 0
 513 1281 432 1213 432 1108 c 2
 432 282 l 2
 432 227 421 175 394 130 c 1
 1134 130 l 1
 1134 0 l 1
 120 0 l 1
 120 130 l 17
EndSplineSet
Refer: 429 57354 N 1 0 0 1 20 0 2
Colour: ffff00
EndChar

StartChar: currency
Encoding: 164 164 327
Width: 1263
VWidth: 1819
Flags: HMW
LayerCount: 2
Fore
SplineSet
853 138 m 1
 973 216 l 1
 1203 -47 l 1
 1083 -125 l 1
 853 138 l 1
973 825 m 1
 853 903 l 1
 1083 1166 l 1
 1203 1088 l 1
 973 825 l 1
290 216 m 1
 410 138 l 1
 180 -125 l 1
 60 -47 l 1
 290 216 l 1
410 903 m 1
 290 825 l 1
 60 1088 l 1
 180 1166 l 1
 410 903 l 1
EndSplineSet
Refer: 310 111 N 1 0 0 1 88 0 2
Colour: ffff00
EndChar

StartChar: brokenbar
Encoding: 166 166 329
Width: 440
VWidth: 1819
Flags: HMW
LayerCount: 2
Fore
SplineSet
295 0 m 1
 145 0 l 1
 145 519 l 1
 295 519 l 1
 295 0 l 1
295 875 m 1
 145 875 l 1
 145 1411 l 1
 295 1411 l 1
 295 875 l 1
EndSplineSet
Colour: ffff
EndChar

StartChar: section
Encoding: 167 167 330
Width: 952
VWidth: 1819
Flags: HMW
LayerCount: 2
Fore
SplineSet
470 877 m 1
 336 875 225 814 225 682 c 0
 225 581 309 557 482 533 c 1
 621 534 727 588 727 718 c 0
 727 826 642 851 470 877 c 1
77 276 m 1
 227 276 l 1
 227 143 337 87 476 87 c 0
 616 87 727 143 727 276 c 0
 727 351 638 380 464 404 c 0
 307 426 75 465 75 682 c 0
 75 801 135 885 219 938 c 1
 138 975 75 1034 75 1136 c 0
 75 1361 290 1454 476 1454 c 0
 662 1454 876 1361 876 1136 c 1
 726 1136 l 1
 726 1269 616 1324 476 1324 c 0
 336 1324 225 1269 225 1136 c 0
 225 1061 315 1032 489 1006 c 0
 649 982 877 938 877 718 c 0
 877 602 820 521 739 471 c 1
 817 435 877 376 877 276 c 0
 877 51 662 -43 476 -43 c 0
 289 -43 77 51 77 276 c 1
EndSplineSet
Colour: ffff00
EndChar

StartChar: copyright
Encoding: 169 169 332
Width: 1670
VWidth: 1819
Flags: HMW
LayerCount: 2
Fore
SplineSet
1040 551 m 1
 1162 475 l 1
 1084 380 962 324 835 324 c 0
 587 324 420 520 420 729 c 0
 420 938 587 1135 835 1135 c 0
 962 1135 1084 1079 1162 984 c 1
 1040 908 l 1
 988 971 910 1005 835 1005 c 0
 691 1005 570 886 570 729 c 0
 570 572 691 454 835 454 c 0
 910 454 988 488 1040 551 c 1
75 728 m 0
 75 1134 407 1476 835 1476 c 0
 1263 1476 1595 1134 1595 728 c 0
 1595 322 1263 -21 835 -21 c 0
 407 -21 75 322 75 728 c 0
225 728 m 0
 225 378 507 109 835 109 c 0
 1163 109 1445 378 1445 728 c 0
 1445 1078 1163 1346 835 1346 c 0
 507 1346 225 1078 225 728 c 0
EndSplineSet
Colour: ffff00
EndChar

StartChar: ordfeminine
Encoding: 170 170 333
Width: 747
VWidth: 1819
Flags: HMW
LayerCount: 2
Fore
SplineSet
495 1060 m 1
 495 1152 l 1
 464 1156 441 1158 411 1158 c 0
 260 1158 195 1114 195 1031 c 0
 195 981 229 939 310 939 c 0
 400 939 461 977 495 1060 c 1
625 928 m 1
 569 858 l 1
 548 875 529 899 516 931 c 1
 464 878 392 849 310 849 c 0
 191 849 105 925 105 1031 c 0
 105 1192 252 1248 411 1248 c 0
 441 1248 467 1246 495 1243 c 1
 495 1307 l 2
 495 1376 438 1410 350 1410 c 0
 263 1410 208 1377 208 1307 c 1
 118 1307 l 1
 118 1449 245 1500 350 1500 c 0
 454 1500 585 1450 585 1307 c 2
 585 1052 l 2
 585 969 608 941 625 928 c 1
EndSplineSet
Colour: ff00
EndChar

StartChar: logicalnot
Encoding: 172 172 334
Width: 1073
VWidth: 1819
Flags: HMW
LayerCount: 2
Fore
SplineSet
100 445 m 1
 100 575 l 1
 928 575 l 1
 928 238 l 1
 778 238 l 1
 778 445 l 1
 100 445 l 1
EndSplineSet
Colour: ffff00
EndChar

StartChar: registered
Encoding: 174 174 336
Width: 1670
VWidth: 1819
Flags: HMW
LayerCount: 2
Fore
SplineSet
75 728 m 0
 75 1134 407 1476 835 1476 c 0
 1263 1476 1595 1134 1595 728 c 0
 1595 322 1263 -21 835 -21 c 0
 407 -21 75 322 75 728 c 0
225 728 m 0
 225 378 507 109 835 109 c 0
 1163 109 1445 378 1445 728 c 0
 1445 1078 1163 1346 835 1346 c 0
 507 1346 225 1078 225 728 c 0
695 700 m 1
 866 700 l 2
 965 700 1042 758 1042 854 c 0
 1042 950 965 1010 866 1010 c 2
 695 1010 l 1
 695 700 l 1
1165 383 m 1
 1043 307 l 1
 827 570 l 1
 695 570 l 1
 695 345 l 1
 545 345 l 1
 545 1140 l 1
 866 1140 l 2
 1045 1140 1192 1020 1192 854 c 0
 1192 729 1109 633 994 592 c 1
 1165 383 l 1
EndSplineSet
Colour: ffff00
EndChar

StartChar: degree
Encoding: 176 176 338
Width: 646
VWidth: 1819
Flags: HMW
LayerCount: 2
Fore
SplineSet
560 1428 m 0
 560 1296 455 1191 323 1191 c 0
 191 1191 86 1296 86 1428 c 0
 86 1560 191 1665 323 1665 c 0
 455 1665 560 1560 560 1428 c 0
470 1428 m 0
 470 1510 405 1575 323 1575 c 0
 241 1575 176 1510 176 1428 c 0
 176 1346 241 1281 323 1281 c 0
 405 1281 470 1346 470 1428 c 0
EndSplineSet
Colour: ff00
EndChar

StartChar: uni00B2
Encoding: 178 178 340
Width: 658
VWidth: 1819
Flags: HMW
LayerCount: 2
Fore
SplineSet
234 964 m 1
 508 964 l 1
 508 874 l 1
 105 874 l 1
 105 964 l 1
 381 1211 l 2
 409 1239 423 1255 423 1303 c 0
 423 1377 372 1410 309 1410 c 0
 246 1410 195 1377 195 1303 c 1
 105 1303 l 1
 105 1435 212 1500 309 1500 c 0
 406 1500 513 1435 513 1303 c 0
 513 1227 479 1181 445 1147 c 2
 234 964 l 1
EndSplineSet
Colour: ff00
EndChar

StartChar: uni00B3
Encoding: 179 179 341
Width: 606
VWidth: 1819
Flags: HMW
LayerCount: 2
Fore
SplineSet
195 1321 m 1
 105 1321 l 1
 105 1426 200 1500 303 1500 c 0
 406 1500 501 1426 501 1321 c 0
 501 1266 475 1219 435 1187 c 1
 474 1156 501 1108 501 1053 c 0
 501 948 406 874 303 874 c 0
 200 874 105 948 105 1053 c 1
 195 1053 l 1
 195 1008 238 964 303 964 c 0
 368 964 411 1008 411 1053 c 0
 411 1098 368 1142 303 1142 c 2
 242 1142 l 1
 242 1232 l 1
 303 1232 l 2
 368 1232 411 1276 411 1321 c 0
 411 1366 368 1410 303 1410 c 0
 238 1410 195 1366 195 1321 c 1
EndSplineSet
Colour: ff00
EndChar

StartChar: acute
Encoding: 180 180 342
Width: 517
VWidth: 1819
Flags: HMW
LayerCount: 2
Fore
SplineSet
319 1507 m 1
 395 1459 l 1
 198 1143 l 1
 122 1191 l 1
 319 1507 l 1
EndSplineSet
Colour: ff00
EndChar

StartChar: mu
Encoding: 181 181 343
Width: 1108
VWidth: 1819
Flags: HMW
LayerCount: 2
Fore
SplineSet
813 1043 m 1
 963 1043 l 1
 963 0 l 1
 813 0 l 1
 813 157 l 1
 735 60 614 0 474 0 c 0
 399 0 340 16 295 41 c 1
 295 -787 l 1
 145 -787 l 1
 145 1043 l 1
 295 1043 l 1
 295 366 l 2
 295 248 339 130 504 130 c 0
 690 130 813 239 813 420 c 2
 813 1043 l 1
EndSplineSet
EndChar

StartChar: paragraph
Encoding: 182 182 344
Width: 1236
VWidth: 1819
Flags: HMW
LayerCount: 2
Fore
SplineSet
683 1281 m 1
 516 1281 l 2
 369 1281 225 1157 225 951 c 0
 225 746 369 622 516 622 c 2
 683 622 l 1
 683 1281 l 1
1091 -419 m 1
 956 -419 l 1
 956 1281 l 1
 818 1281 l 1
 818 -419 l 1
 683 -419 l 1
 683 492 l 1
 516 492 l 2
 263 492 75 696 75 951 c 0
 75 1205 263 1411 516 1411 c 2
 1091 1411 l 1
 1091 -419 l 1
EndSplineSet
Colour: ffff00
EndChar

StartChar: cedilla
Encoding: 184 184 346
Width: 723
VWidth: 1819
Flags: HMW
LayerCount: 2
Fore
SplineSet
160 -352 m 1
 202 -396 268 -414 342 -414 c 0
 436 -414 515 -369 515 -318 c 0
 515 -228 420 -106 324 -33 c 1
 374 43 l 1
 500 -48 595 -178 595 -318 c 0
 595 -457 454 -504 342 -504 c 0
 248 -504 170 -478 109 -410 c 1
 160 -352 l 1
EndSplineSet
Colour: ffff00
EndChar

StartChar: uni00B9
Encoding: 185 185 347
Width: 457
VWidth: 1819
Flags: HMW
LayerCount: 2
Fore
SplineSet
89 1268 m 1
 89 1298 89 1328 89 1358 c 1
 234 1358 l 1
 235 1455 l 1
 325 1455 l 1
 325 829 l 1
 235 829 l 1
 235 1268 l 1
 89 1268 l 1
EndSplineSet
Colour: ff00
EndChar

StartChar: onequarter
Encoding: 188 188 349
Width: 1965
VWidth: 1819
Flags: HMW
LayerCount: 2
Fore
SplineSet
150 1236 m 1
 150 1366 l 1
 182 1366 l 2
 365 1366 396 1390 396 1590 c 1
 546 1590 l 1
 546 530 l 1
 396 530 l 1
 396 1272 l 1
 336 1244 265 1236 182 1236 c 2
 150 1236 l 1
1815 1 m 1
 1815 -129 l 1
 1694 -129 l 1
 1694 -358 l 1
 1544 -358 l 1
 1544 -129 l 1
 1030 -129 l 1
 1030 -11 l 1
 1537 765 l 1
 1694 765 l 1
 1694 1 l 1
 1815 1 l 1
1544 1 m 1
 1544 522 l 1
 1200 1 l 1
 1544 1 l 1
630 8 m 1
 504 80 l 1
 1534 1447 l 1
 1660 1375 l 1
 630 8 l 1
EndSplineSet
Colour: ffff00
EndChar

StartChar: onehalf
Encoding: 189 189 350
Width: 2096
VWidth: 1819
Flags: HMW
LayerCount: 2
Fore
SplineSet
150 1236 m 1
 150 1366 l 1
 182 1366 l 2
 365 1366 396 1390 396 1590 c 1
 546 1590 l 1
 546 530 l 1
 396 530 l 1
 396 1272 l 1
 336 1244 265 1236 182 1236 c 2
 150 1236 l 1
627 8 m 1
 501 80 l 1
 1532 1447 l 1
 1658 1375 l 1
 627 8 l 1
1981 -253 m 1
 1981 -383 l 1
 1244 -383 l 1
 1244 -256 l 1
 1740 213 l 2
 1797 266 1831 310 1831 418 c 0
 1831 579 1719 642 1612 642 c 0
 1505 642 1395 580 1395 418 c 1
 1245 418 l 1
 1245 646 1425 772 1612 772 c 0
 1799 772 1981 647 1981 418 c 0
 1981 278 1921 192 1850 125 c 2
 1450 -253 l 1
 1981 -253 l 1
EndSplineSet
Colour: ffff00
EndChar

StartChar: threequarters
Encoding: 190 190 351
Width: 2140
VWidth: 2047
Flags: HMW
LayerCount: 2
Fore
SplineSet
1990 1 m 1
 1990 -129 l 1
 1869 -129 l 1
 1869 -358 l 1
 1719 -358 l 1
 1719 -129 l 1
 1205 -129 l 1
 1205 -11 l 1
 1713 765 l 1
 1869 765 l 1
 1869 1 l 1
 1990 1 l 1
1719 1 m 1
 1719 520 l 1
 1375 1 l 1
 1719 1 l 1
805 8 m 1
 679 80 l 1
 1710 1447 l 1
 1836 1375 l 1
 805 8 l 1
75 819 m 1
 225 819 l 1
 225 657 336 595 443 595 c 0
 561 595 660 680 660 782 c 0
 660 931 574 977 426 977 c 2
 340 977 l 1
 340 1107 l 1
 426 1107 l 2
 574 1107 660 1153 660 1303 c 0
 660 1405 561 1490 443 1490 c 0
 337 1490 225 1427 225 1265 c 1
 75 1265 l 1
 75 1493 255 1620 443 1620 c 0
 643 1620 810 1479 810 1303 c 0
 810 1188 765 1098 681 1042 c 1
 764 987 810 897 810 782 c 0
 810 606 643 465 443 465 c 0
 256 465 75 591 75 819 c 1
EndSplineSet
Colour: ffff00
EndChar

StartChar: AE
Encoding: 198 198 359
Width: 1904
VWidth: 1819
Flags: HMW
LayerCount: 2
Fore
SplineSet
845 1281 m 1
 826 1281 l 1
 438 485 l 1
 845 485 l 1
 845 1281 l 1
1754 130 m 1
 1754 0 l 1
 845 0 l 1
 845 355 l 1
 374 355 l 1
 201 0 l 1
 39 0 l 1
 726 1411 l 1
 1754 1411 l 1
 1754 1281 l 1
 995 1281 l 1
 995 758 l 1
 1754 758 l 1
 1754 628 l 1
 995 628 l 1
 995 130 l 1
 1754 130 l 1
EndSplineSet
Colour: ffff00
EndChar

StartChar: Thorn
Encoding: 222 222 383
Width: 1079
VWidth: 1819
Flags: HMW
LayerCount: 2
Fore
SplineSet
275 436 m 1
 537 436 l 2
 716 436 854 518 854 707 c 0
 854 896 716 978 537 978 c 2
 275 978 l 1
 275 436 l 1
275 0 m 1
 125 0 l 1
 125 1411 l 1
 275 1411 l 1
 275 1108 l 1
 537 1108 l 2
 780 1108 1004 974 1004 707 c 0
 1004 440 780 306 537 306 c 2
 275 306 l 1
 275 0 l 1
EndSplineSet
Colour: ffff00
EndChar

StartChar: germandbls
Encoding: 223 223 384
Width: 1099
VWidth: 1819
Flags: HMW
LayerCount: 2
Fore
SplineSet
517 0 m 1
 517 130 l 1
 819 130 874 148 874 251 c 0
 874 333 823 380 750 432 c 0
 678 484 579 557 579 690 c 0
 579 799 624 846 666 889 c 0
 704.551176263 928.469061412 740 968 740 1052 c 0
 740 1207 661 1301 507 1301 c 0
 348 1301 275 1208 275 1052 c 2
 275 0 l 1
 125 0 l 1
 125 1052 l 2
 125 1246 242 1431 507 1431 c 0
 765 1431 890 1247 890 1052 c 0
 890 950 846.288832882 900.740288975 804 854 c 0
 766 812 729 770 729 690 c 0
 729 619 772 585 846 532 c 0
 925 476 1024 391 1024 251 c 0
 1024 20 789 0 517 0 c 1
EndSplineSet
Colour: ffff00
EndChar

StartChar: ae
Encoding: 230 230 391
Width: 1830
VWidth: 1819
Flags: HMW
LayerCount: 2
Fore
SplineSet
761 489 m 1
 723 495 679 499 635 499 c 0
 460 499 271 432 271 270 c 0
 271 171 350 110 479 110 c 0
 618 110 761 200 761 356 c 2
 761 489 l 1
913 456 m 1
 936 238 1067 110 1255 110 c 0
 1346 110 1456 135 1580 191 c 1
 1650 75 l 1
 1510 11 1376 -20 1255 -20 c 0
 1054 -20 904 73 824 223 c 1
 755 63 610 -20 433 -20 c 0
 257 -20 126 99 126 268 c 0
 126 521 394 609 635 609 c 0
 678 609 721 606 761 601 c 1
 761 751 l 2
 761 872 654 933 527 933 c 0
 401 933 295 872 295 751 c 1
 145 751 l 1
 145 960 345 1063 527 1063 c 0
 660 1063 802 1009 870 899 c 1
 946 997 1064 1063 1229 1063 c 0
 1557 1063 1705 783 1705 521 c 2
 1705 456 l 1
 1441 456 1177 456 913 456 c 1
913 586 m 1
 1552 586 l 1
 1530 786 1418 933 1229 933 c 0
 1041 933 934 787 913 586 c 1
EndSplineSet
EndChar

StartChar: eth
Encoding: 240 240 401
Width: 1088
VWidth: 1819
Flags: HMW
LayerCount: 2
Fore
SplineSet
355 1099 m 1
 740 1411 l 1025
257 1411 m 0
 623 1343 929 837 937 555 c 1024
EndSplineSet
Refer: 310 111 N 1 0 0 1 0 0 2
EndChar

StartChar: dotlessi
Encoding: 305 305 417
Width: 400
VWidth: 1819
Flags: HMW
LayerCount: 2
Fore
SplineSet
125 1043 m 1
 275 1043 l 1
 275 0 l 1
 125 0 l 1
 125 1043 l 1
EndSplineSet
Colour: ffff00
EndChar

StartChar: OE
Encoding: 338 338 418
Width: 1685
VWidth: 1819
Flags: HMW
LayerCount: 2
Fore
SplineSet
679 132 m 1
 679 1279 l 1
 379 1256 225 1033 225 706 c 0
 225 379 379 155 679 132 c 1
1535 1411 m 1
 1535 1281 l 1
 829 1281 l 1
 829 771 l 1
 1535 771 l 1
 1535 641 l 1
 829 641 l 1
 829 130 l 1
 1535 130 l 1
 1535 0 l 1
 731 0 l 2
 283 0 75 328 75 706 c 0
 75 1084 284 1411 731 1411 c 2
 1535 1411 l 1
EndSplineSet
Colour: ffff00
EndChar

StartChar: uniE003
Encoding: 57347 57347 420
Width: 1762
VWidth: 1819
Flags: HMW
LayerCount: 2
Fore
SplineSet
1574 1451 m 1
 1650 1371 l 1
 188 -40 l 1
 112 40 l 1
 1574 1451 l 1
EndSplineSet
Colour: ff00ff
EndChar

StartChar: uniE004
Encoding: 57348 57348 421
Width: 1088
VWidth: 1819
Flags: HMW
LayerCount: 2
Fore
SplineSet
193 -34 m 1
 107 34 l 1
 895 1047 l 1
 981 979 l 1
 193 -34 l 1
EndSplineSet
Colour: ff00ff
EndChar

StartChar: uniE005
Encoding: 57349 57349 423
Width: 1462
VWidth: 1819
Flags: HMW
LayerCount: 2
Fore
SplineSet
1354 6 m 1
 1270 -64 l 1
 801 496 l 1
 885 566 l 1
 1354 6 l 1
EndSplineSet
Colour: ff00ff
EndChar

StartChar: uniE006
Encoding: 57350 57350 424
Width: 1146
VWidth: 1819
Flags: HMW
LayerCount: 2
Fore
SplineSet
236 95 m 1
 236 205 l 1
 910 205 l 1
 910 95 l 1
 236 95 l 1
236 421 m 1
 236 531 l 1
 910 531 l 1
 910 421 l 1
 236 421 l 1
EndSplineSet
Colour: ff00ff
EndChar

StartChar: uniE007
Encoding: 57351 57351 425
Width: 869
VWidth: 1954
Flags: HMW
LayerCount: 2
Fore
SplineSet
171 1077 m 1
 209 1159 l 1
 244 1142 289 1132 344 1132 c 0
 446 1132 512 1186 512 1226 c 0
 512 1262 489 1275 421 1296 c 0
 355 1317 250 1355 250 1482 c 0
 250 1587 350 1672 472 1672 c 0
 513 1672 554 1661 585 1648 c 2
 611 1637 l 1
 575 1555 l 1
 550 1565 l 2
 521 1575 497 1582 472 1582 c 0
 388 1582 340 1525 340 1482 c 0
 340 1419 377 1403 447 1382 c 0
 507 1364 602 1332 602 1226 c 0
 602 1102 460 1042 344 1042 c 0
 279 1042 220 1054 171 1077 c 1
EndSplineSet
Colour: ffff
EndChar

StartChar: uniE008
Encoding: 57352 57352 426
Width: 1454
VWidth: 1819
Flags: HMW
LayerCount: 2
Fore
SplineSet
638 1137 m 0
 638 1001 530 888 392 888 c 0
 254 888 145 1000 145 1137 c 0
 145 1268 247 1391 392 1391 c 0
 537 1391 638 1268 638 1137 c 0
528 1137 m 0
 528 1214 469 1281 392 1281 c 0
 315 1281 255 1214 255 1137 c 0
 255 1060 316 998 392 998 c 0
 468 998 528 1059 528 1137 c 0
EndSplineSet
Colour: ff00ff
EndChar

StartChar: uniE009
Encoding: 57353 57353 427
Width: 1146
VWidth: 1819
Flags: HMW
LayerCount: 2
Fore
SplineSet
518 1615 m 1
 628 1615 l 1
 628 -202 l 1
 518 -202 l 1
 518 1615 l 1
EndSplineSet
Colour: ff00ff
EndChar

StartChar: uni0237
Encoding: 567 567 428
Width: 400
VWidth: 1819
Flags: HMW
LayerCount: 2
Fore
SplineSet
-55 -419 m 1
 -55 -289 l 1
 23 -289 l 2
 70 -289 125 -246 125 -179 c 2
 125 1043 l 1
 275 1043 l 1
 275 -179 l 2
 275 -304 170 -419 23 -419 c 2
 -55 -419 l 1
EndSplineSet
Colour: ffff00
EndChar

StartChar: uniE00A
Encoding: 57354 57354 429
Width: 1214
VWidth: 1819
Flags: HMW
LayerCount: 2
Fore
SplineSet
100 463 m 1
 100 573 l 1
 684 573 l 1
 684 463 l 1
 100 463 l 1
EndSplineSet
Colour: ff00ff
EndChar

StartChar: uniE00B
Encoding: 57355 57355 430
Width: 1108
VWidth: 1819
Flags: HMW
LayerCount: 2
Fore
SplineSet
857 572 m 1
 813 488 l 1
 764 501 701 509 635 509 c 0
 457 509 270 435 270 272 c 0
 270 167 360 109 470 109 c 0
 652 109 761 200 761 376 c 1
 851 376 l 1
 851 106 644 -20 436 -20 c 0
 246 -20 126 99 126 268 c 0
 126 521 394 599 635 599 c 0
 715 599 792 589 857 572 c 1
EndSplineSet
Colour: ffff00
EndChar

StartChar: uniE00C
Encoding: 57356 57356 431
Width: 1536
VWidth: 1819
Flags: HMW
LayerCount: 2
Back
SplineSet
843 692 m 1
 783 692 l 1
 783 852 885 1043 1097 1043 c 0
 1362 1043 1411 818 1411 692 c 2
 1411 0 l 1
 1261 0 l 1
 1261 692 l 2
 1261 838 1187 913 1052 913 c 0
 918 913 843 832 843 692 c 1
EndSplineSet
Fore
SplineSet
843 692 m 1
 783 692 l 1
 783 852 885 1063 1097 1063 c 0
 1362 1063 1411 818 1411 692 c 2
 1411 0 l 1
 1261 0 l 1
 1261 692 l 2
 1261 838 1187 933 1052 933 c 0
 918 933 843 832 843 692 c 1
EndSplineSet
Colour: ffff00
EndChar

StartChar: uniE00D
Encoding: 57357 57357 432
Width: 1068
VWidth: 1819
Flags: HMW
LayerCount: 2
Back
SplineSet
943 0 m 1
 793 0 l 1
 793 623 l 6
 793 832 717 913 534 913 c 4
 366 913 275 825 275 623 c 5
 215 623 l 5
 215 864 337 1043 579 1043 c 4
 872 1043 943 811 943 677 c 6
 943 0 l 1
EndSplineSet
Fore
SplineSet
943 0 m 1
 793 0 l 1
 793 643 l 2
 793 852 697 933 534 933 c 0
 386 933 275 825 275 623 c 1
 215 623 l 1
 215 864 357 1063 579 1063 c 0
 852 1063 943 831 943 697 c 2
 943 0 l 1
EndSplineSet
Colour: ffff00
EndChar

StartChar: uniE00E
Encoding: 57358 57358 433
Width: 754
VWidth: 1819
Flags: HMW
LayerCount: 2
Fore
SplineSet
275 531 m 1
 185 531 l 1
 185 769 317 1043 611 1043 c 2
 654 1043 l 1
 654 913 l 1
 581 913 l 2
 385 913 275 747 275 531 c 1
EndSplineSet
Colour: ffff00
EndChar

StartChar: uniE00F
Encoding: 57359 57359 434
Width: 1158
VWidth: 1819
Flags: HMW
LayerCount: 2
Back
SplineSet
654 1043 m 4
 983 1043 1083 782 1083 521 c 0
 1083 260 983 0 654 0 c 0
 355 0 225 260 225 521 c 0
 225 782 355 1043 654 1043 c 4
614 913 m 4
 407 913 295 756 295 521 c 0
 295 286 407 130 614 130 c 0
 821 130 933 286 933 521 c 0
 933 756 821 913 614 913 c 4
EndSplineSet
Fore
SplineSet
654 1063 m 0
 983 1063 1083 782 1083 521 c 0
 1083 260 983 -20 654 -20 c 0
 355 -20 225 260 225 521 c 0
 225 782 355 1063 654 1063 c 0
614 933 m 0
 407 933 295 756 295 521 c 0
 295 286 407 110 614 110 c 0
 821 110 933 286 933 521 c 0
 933 756 821 933 614 933 c 0
EndSplineSet
Colour: ffff00
EndChar

StartChar: quoteright
Encoding: 8217 8217 436
Width: 598
VWidth: 1854
Flags: HMW
LayerCount: 2
Fore
SplineSet
322 746 m 1
 256 794 l 1
 309 855 358 971 358 1066 c 0
 358 1177 120 1045 120 1231 c 0
 120 1330 169 1411 290 1411 c 0
 413 1411 478 1316 478 1179 c 0
 478 999 401 845 322 746 c 1
EndSplineSet
EndChar

StartChar: quoteleft
Encoding: 8216 8216 437
Width: 598
VWidth: 1854
Flags: HMW
LayerCount: 2
Fore
SplineSet
276 746 m 1
 197 845 120 999 120 1179 c 0
 120 1316 185 1411 308 1411 c 0
 429 1411 478 1330 478 1231 c 0
 478 1045 240 1177 240 1066 c 0
 240 971 289 855 342 794 c 1
 276 746 l 1
EndSplineSet
EndChar

StartChar: uniFB9F
Encoding: 64415 64415 462
Width: 1690
VWidth: 1854
Flags: HW
AnchorPoint: "Anchor-5" 827 773 basechar 0
AnchorPoint: "Anchor-3" 728 -502 basechar 0
LayerCount: 2
Fore
SplineSet
253 1 m 0
 253 -220 452 -353 729 -353 c 0
 1030 -353 1289 -197 1289 86 c 0
 1289 154 1274 233 1239 324 c 2
 1149 556 l 25
 1289 610 l 25
 1405 315 l 2
 1450 200 1503 149 1690 149 c 0
 1690 -1 l 0
 1592 -1 1507 14 1438 49 c 1
 1415 -327 1059 -503 729 -503 c 0
 414 -503 103 -338 103 1 c 0
 103 169.125976562 179.998046875 396.346679688 278.040039062 573.918945312 c 1
 402.571289062 496.366210938 l 1
 315.983398438 338.55859375 253 134.134765625 253 1 c 0
EndSplineSet
Colour: ff
EndChar

StartChar: uniFD3E
Encoding: 64830 64830 464
Width: 598
VWidth: 1647
Flags: HW
LayerCount: 2
Fore
SplineSet
461 40 m 1
 335 -40 l 1
 199 174 125 414 125 706 c 0
 125 998 199 1238 335 1451 c 1
 461 1371 l 1
 339 1180 275 972 275 706 c 0
 275 440 339 230 461 40 c 1
EndSplineSet
EndChar

StartChar: uniFD3F
Encoding: 64831 64831 465
Width: 598
VWidth: 1647
Flags: HW
LayerCount: 2
Fore
SplineSet
137 1371 m 1
 263 1451 l 1
 399 1237 473 997 473 705 c 0
 473 413 399 173 263 -40 c 1
 137 40 l 1
 259 231 323 439 323 705 c 0
 323 971 259 1181 137 1371 c 1
EndSplineSet
EndChar
